<svg width="344" height="265" viewBox="0 0 344 265" fill="none" xmlns="http://www.w3.org/2000/svg">
<line x1="40.25" y1="48" x2="40.25" y2="217" stroke="url(#paint0_linear_10_118)" stroke-width="0.5"/>
<line x1="84.25" y1="48" x2="84.25" y2="217" stroke="url(#paint1_linear_10_118)" stroke-width="0.5"/>
<line x1="129.25" y1="48" x2="129.25" y2="217" stroke="#B6B6B6" stroke-width="0.5"/>
<line x1="168.25" y1="48" x2="168.25" y2="217" stroke="url(#paint2_linear_10_118)" stroke-width="0.5"/>
<line x1="26" y1="73.75" x2="317" y2="73.75" stroke="url(#paint3_linear_10_118)" stroke-width="0.5"/>
<line x1="26" y1="115.75" x2="317" y2="115.75" stroke="url(#paint4_linear_10_118)" stroke-width="0.5"/>
<line x1="26" y1="156.75" x2="317" y2="156.75" stroke="url(#paint5_linear_10_118)" stroke-width="0.5"/>
<line x1="26" y1="200.75" x2="317" y2="200.75" stroke="url(#paint6_linear_10_118)" stroke-width="0.5"/>
<line x1="212.25" y1="48" x2="212.25" y2="217" stroke="url(#paint7_linear_10_118)" stroke-width="0.5"/>
<line x1="257.25" y1="48" x2="257.25" y2="217" stroke="url(#paint8_linear_10_118)" stroke-width="0.5"/>
<line x1="296.25" y1="48" x2="296.25" y2="217" stroke="url(#paint9_linear_10_118)" stroke-width="0.5"/>
<rect x="317.008" y="246.767" width="289.011" height="79.729" transform="rotate(-179.993 317.008 246.767)" fill="url(#paint10_linear_10_118)"/>
<g filter="url(#filter0_i_10_118)">
<path d="M148.125 157.696C147.958 157.247 147.958 156.753 148.125 156.304C149.748 152.367 152.504 149.002 156.043 146.634C159.581 144.265 163.743 143.001 168.001 143.001C172.259 143.001 176.421 144.265 179.959 146.634C183.498 149.002 186.254 152.367 187.877 156.304C188.044 156.753 188.044 157.247 187.877 157.696C186.254 161.632 183.498 164.998 179.959 167.366C176.421 169.734 172.259 170.999 168.001 170.999C163.743 170.999 159.581 169.734 156.043 167.366C152.504 164.998 149.748 161.632 148.125 157.696Z" stroke="#DEDEDE" stroke-width="2" stroke-linecap="round" stroke-linejoin="round"/>
<path d="M168 163C171.314 163 174 160.314 174 157C174 153.686 171.314 151 168 151C164.686 151 162 153.686 162 157C162 160.314 164.686 163 168 163Z" stroke="#DEDEDE" stroke-width="2" stroke-linecap="round" stroke-linejoin="round"/>
</g>
<path d="M178.359 137.571V113" stroke="url(#paint11_linear_10_118)"/>
<path d="M161.602 136.036V113" stroke="url(#paint12_linear_10_118)"/>
<path d="M146.812 156L133.998 139.404V113" stroke="url(#paint13_linear_10_118)"/>
<path d="M190.188 156L203.002 138.948V113" stroke="url(#paint14_linear_10_118)"/>
<g clip-path="url(#clip0_10_118)">
<g filter="url(#filter1_bd_10_118)">
<rect x="51" y="83" width="245" height="30" rx="6" fill="white" fill-opacity="0.32"/>
<rect x="51" y="83" width="245" height="30" rx="6" stroke="url(#paint15_linear_10_118)"/>
</g>
<path d="M67.6676 104L65.2472 95.2727H66.6321L68.3324 102.031H68.4134L70.1818 95.2727H71.554L73.3224 102.036H73.4034L75.0994 95.2727H76.4886L74.0639 104H72.7386L70.902 97.4631H70.8338L68.9972 104H67.6676ZM79.6996 104.132C79.0859 104.132 78.5504 103.991 78.093 103.71C77.6357 103.429 77.2805 103.036 77.0277 102.53C76.7749 102.024 76.6484 101.433 76.6484 100.757C76.6484 100.078 76.7749 99.4844 77.0277 98.9759C77.2805 98.4673 77.6357 98.0724 78.093 97.7912C78.5504 97.5099 79.0859 97.3693 79.6996 97.3693C80.3132 97.3693 80.8487 97.5099 81.3061 97.7912C81.7635 98.0724 82.1186 98.4673 82.3714 98.9759C82.6243 99.4844 82.7507 100.078 82.7507 100.757C82.7507 101.433 82.6243 102.024 82.3714 102.53C82.1186 103.036 81.7635 103.429 81.3061 103.71C80.8487 103.991 80.3132 104.132 79.6996 104.132ZM79.7038 103.062C80.1016 103.062 80.4311 102.957 80.6925 102.747C80.9538 102.537 81.147 102.257 81.272 101.908C81.3999 101.558 81.4638 101.173 81.4638 100.753C81.4638 100.335 81.3999 99.9517 81.272 99.6023C81.147 99.25 80.9538 98.9673 80.6925 98.7543C80.4311 98.5412 80.1016 98.4347 79.7038 98.4347C79.3033 98.4347 78.9709 98.5412 78.7067 98.7543C78.4453 98.9673 78.2507 99.25 78.1229 99.6023C77.9979 99.9517 77.9354 100.335 77.9354 100.753C77.9354 101.173 77.9979 101.558 78.1229 101.908C78.2507 102.257 78.4453 102.537 78.7067 102.747C78.9709 102.957 79.3033 103.062 79.7038 103.062ZM84.1729 104V97.4545H85.4045V98.4943H85.4727C85.592 98.142 85.8022 97.8651 86.1033 97.6634C86.4073 97.4588 86.7511 97.3565 87.1346 97.3565C87.2141 97.3565 87.3079 97.3594 87.4158 97.3651C87.5266 97.3707 87.6133 97.3778 87.6758 97.3864V98.6051C87.6246 98.5909 87.5337 98.5753 87.4031 98.5582C87.2724 98.5384 87.1417 98.5284 87.011 98.5284C86.7099 98.5284 86.4414 98.5923 86.2056 98.7202C85.9727 98.8452 85.788 99.0199 85.6516 99.2443C85.5153 99.4659 85.4471 99.7187 85.4471 100.003V104H84.1729ZM89.9503 101.78L89.9418 100.224H90.1634L92.7713 97.4545H94.2969L91.3224 100.608H91.1222L89.9503 101.78ZM88.7784 104V95.2727H90.0526V104H88.7784ZM92.9119 104L90.5682 100.889L91.446 99.9986L94.4759 104H92.9119ZM100.445 104L98.0245 95.2727H99.4094L101.11 102.031H101.191L102.959 95.2727H104.331L106.1 102.036H106.181L107.877 95.2727H109.266L106.841 104H105.516L103.679 97.4631H103.611L101.775 104H100.445ZM110.364 104V97.4545H111.638V104H110.364ZM111.008 96.4446C110.786 96.4446 110.596 96.3707 110.437 96.223C110.281 96.0724 110.202 95.8935 110.202 95.6861C110.202 95.4759 110.281 95.2969 110.437 95.1491C110.596 94.9986 110.786 94.9233 111.008 94.9233C111.229 94.9233 111.418 94.9986 111.575 95.1491C111.734 95.2969 111.813 95.4759 111.813 95.6861C111.813 95.8935 111.734 96.0724 111.575 96.223C111.418 96.3707 111.229 96.4446 111.008 96.4446ZM116.408 97.4545V98.4773H112.833V97.4545H116.408ZM113.792 95.8864H115.066V102.078C115.066 102.325 115.103 102.511 115.176 102.636C115.25 102.759 115.346 102.842 115.462 102.888C115.581 102.93 115.711 102.952 115.85 102.952C115.952 102.952 116.042 102.945 116.118 102.93C116.195 102.916 116.255 102.905 116.297 102.896L116.527 103.949C116.453 103.977 116.348 104.006 116.212 104.034C116.076 104.065 115.905 104.082 115.701 104.085C115.365 104.091 115.053 104.031 114.763 103.906C114.473 103.781 114.239 103.588 114.06 103.327C113.881 103.065 113.792 102.737 113.792 102.342V95.8864ZM119.232 100.114V104H117.958V95.2727H119.215V98.5199H119.296C119.45 98.1676 119.684 97.8878 119.999 97.6804C120.315 97.473 120.727 97.3693 121.235 97.3693C121.684 97.3693 122.076 97.4616 122.411 97.6463C122.749 97.831 123.011 98.1065 123.195 98.473C123.383 98.8366 123.477 99.2912 123.477 99.8366V104H122.202V99.9901C122.202 99.5099 122.079 99.1378 121.832 98.8736C121.585 98.6065 121.241 98.473 120.8 98.473C120.499 98.473 120.229 98.5369 119.991 98.6648C119.755 98.7926 119.569 98.9801 119.433 99.2273C119.299 99.4716 119.232 99.767 119.232 100.114ZM129.192 104H127.794L130.935 95.2727H132.456L135.597 104H134.199L131.732 96.858H131.664L129.192 104ZM129.426 100.582H133.961V101.69H129.426V100.582ZM136.755 106.455V97.4545H137.999V98.5156H138.106C138.18 98.3793 138.286 98.2216 138.425 98.0426C138.565 97.8636 138.758 97.7074 139.005 97.5739C139.252 97.4375 139.579 97.3693 139.985 97.3693C140.513 97.3693 140.985 97.5028 141.4 97.7699C141.815 98.0369 142.14 98.4219 142.376 98.9247C142.614 99.4276 142.734 100.033 142.734 100.74C142.734 101.447 142.616 102.054 142.38 102.56C142.144 103.062 141.82 103.45 141.408 103.723C140.996 103.993 140.526 104.128 139.998 104.128C139.6 104.128 139.275 104.061 139.022 103.928C138.772 103.794 138.576 103.638 138.434 103.459C138.292 103.28 138.183 103.121 138.106 102.982H138.029V106.455H136.755ZM138.004 100.727C138.004 101.187 138.07 101.591 138.204 101.938C138.337 102.284 138.531 102.555 138.783 102.751C139.036 102.945 139.346 103.041 139.712 103.041C140.093 103.041 140.411 102.94 140.667 102.739C140.923 102.534 141.116 102.257 141.246 101.908C141.38 101.558 141.447 101.165 141.447 100.727C141.447 100.295 141.381 99.9077 141.251 99.5639C141.123 99.2202 140.93 98.9489 140.671 98.75C140.415 98.5511 140.096 98.4517 139.712 98.4517C139.343 98.4517 139.031 98.5469 138.775 98.7372C138.522 98.9276 138.33 99.1932 138.2 99.5341C138.069 99.875 138.004 100.273 138.004 100.727ZM144.161 106.455V97.4545H145.406V98.5156H145.512C145.586 98.3793 145.692 98.2216 145.832 98.0426C145.971 97.8636 146.164 97.7074 146.411 97.5739C146.658 97.4375 146.985 97.3693 147.391 97.3693C147.92 97.3693 148.391 97.5028 148.806 97.7699C149.221 98.0369 149.546 98.4219 149.782 98.9247C150.021 99.4276 150.14 100.033 150.14 100.74C150.14 101.447 150.022 102.054 149.786 102.56C149.55 103.062 149.227 103.45 148.815 103.723C148.403 103.993 147.933 104.128 147.404 104.128C147.006 104.128 146.681 104.061 146.428 103.928C146.178 103.794 145.982 103.638 145.84 103.459C145.698 103.28 145.589 103.121 145.512 102.982H145.435V106.455H144.161ZM145.41 100.727C145.41 101.187 145.477 101.591 145.61 101.938C145.744 102.284 145.937 102.555 146.19 102.751C146.442 102.945 146.752 103.041 147.119 103.041C147.499 103.041 147.817 102.94 148.073 102.739C148.329 102.534 148.522 102.257 148.653 101.908C148.786 101.558 148.853 101.165 148.853 100.727C148.853 100.295 148.788 99.9077 148.657 99.5639C148.529 99.2202 148.336 98.9489 148.077 98.75C147.822 98.5511 147.502 98.4517 147.119 98.4517C146.749 98.4517 146.437 98.5469 146.181 98.7372C145.928 98.9276 145.737 99.1932 145.606 99.5341C145.475 99.875 145.41 100.273 145.41 100.727ZM152.842 95.2727V104H151.567V95.2727H152.842ZM154.556 104V97.4545H155.83V104H154.556ZM155.199 96.4446C154.978 96.4446 154.787 96.3707 154.628 96.223C154.472 96.0724 154.394 95.8935 154.394 95.6861C154.394 95.4759 154.472 95.2969 154.628 95.1491C154.787 94.9986 154.978 94.9233 155.199 94.9233C155.421 94.9233 155.61 94.9986 155.766 95.1491C155.925 95.2969 156.005 95.4759 156.005 95.6861C156.005 95.8935 155.925 96.0724 155.766 96.223C155.61 96.3707 155.421 96.4446 155.199 96.4446ZM160.301 104.132C159.668 104.132 159.122 103.989 158.665 103.702C158.21 103.412 157.861 103.013 157.616 102.504C157.372 101.996 157.25 101.413 157.25 100.757C157.25 100.092 157.375 99.5057 157.625 98.9972C157.875 98.4858 158.227 98.0866 158.682 97.7997C159.136 97.5128 159.672 97.3693 160.288 97.3693C160.786 97.3693 161.229 97.4616 161.618 97.6463C162.007 97.8281 162.321 98.0838 162.56 98.4134C162.801 98.7429 162.945 99.1278 162.99 99.5682H161.75C161.682 99.2614 161.526 98.9972 161.281 98.7756C161.04 98.554 160.716 98.4432 160.31 98.4432C159.955 98.4432 159.643 98.5369 159.376 98.7244C159.112 98.9091 158.906 99.1733 158.759 99.517C158.611 99.858 158.537 100.261 158.537 100.727C158.537 101.205 158.609 101.616 158.754 101.963C158.899 102.31 159.104 102.578 159.368 102.768C159.635 102.959 159.949 103.054 160.31 103.054C160.551 103.054 160.77 103.01 160.966 102.922C161.165 102.831 161.331 102.702 161.464 102.534C161.601 102.366 161.696 102.165 161.75 101.929H162.99C162.945 102.352 162.807 102.73 162.577 103.062C162.347 103.395 162.038 103.656 161.652 103.847C161.268 104.037 160.818 104.132 160.301 104.132ZM166.257 104.145C165.843 104.145 165.468 104.068 165.132 103.915C164.797 103.759 164.532 103.533 164.336 103.237C164.142 102.942 164.046 102.58 164.046 102.151C164.046 101.781 164.117 101.477 164.259 101.239C164.401 101 164.593 100.811 164.834 100.672C165.076 100.533 165.346 100.428 165.644 100.357C165.942 100.286 166.246 100.232 166.556 100.195C166.948 100.149 167.266 100.112 167.51 100.084C167.755 100.053 167.932 100.003 168.043 99.9347C168.154 99.8665 168.209 99.7557 168.209 99.6023V99.5724C168.209 99.2003 168.104 98.9119 167.894 98.7074C167.686 98.5028 167.377 98.4006 166.965 98.4006C166.536 98.4006 166.198 98.4957 165.951 98.6861C165.706 98.8736 165.537 99.0824 165.444 99.3125L164.246 99.0398C164.388 98.642 164.596 98.321 164.868 98.0767C165.144 97.8295 165.461 97.6506 165.819 97.5398C166.176 97.4261 166.553 97.3693 166.948 97.3693C167.209 97.3693 167.486 97.4006 167.779 97.4631C168.074 97.5227 168.35 97.6335 168.605 97.7955C168.864 97.9574 169.076 98.1889 169.24 98.4901C169.405 98.7884 169.488 99.1761 169.488 99.6534V104H168.243V103.105H168.192C168.11 103.27 167.986 103.432 167.821 103.591C167.657 103.75 167.445 103.882 167.186 103.987C166.928 104.092 166.618 104.145 166.257 104.145ZM166.534 103.122C166.887 103.122 167.188 103.053 167.438 102.913C167.691 102.774 167.882 102.592 168.013 102.368C168.147 102.141 168.213 101.898 168.213 101.639V100.795C168.168 100.841 168.08 100.884 167.949 100.923C167.821 100.96 167.675 100.993 167.51 101.021C167.346 101.047 167.185 101.071 167.029 101.094C166.873 101.114 166.742 101.131 166.637 101.145C166.39 101.176 166.164 101.229 165.959 101.303C165.757 101.376 165.596 101.483 165.473 101.622C165.354 101.759 165.294 101.94 165.294 102.168C165.294 102.483 165.411 102.722 165.644 102.884C165.877 103.043 166.174 103.122 166.534 103.122ZM172.459 100.114V104H171.185V97.4545H172.408V98.5199H172.489C172.639 98.1733 172.875 97.8949 173.196 97.6847C173.52 97.4744 173.928 97.3693 174.419 97.3693C174.865 97.3693 175.256 97.4631 175.591 97.6506C175.926 97.8352 176.186 98.1108 176.371 98.4773C176.555 98.8437 176.648 99.2969 176.648 99.8366V104H175.374V99.9901C175.374 99.5156 175.25 99.1449 175.003 98.8778C174.756 98.608 174.416 98.473 173.984 98.473C173.689 98.473 173.426 98.5369 173.196 98.6648C172.969 98.7926 172.788 98.9801 172.655 99.2273C172.524 99.4716 172.459 99.767 172.459 100.114ZM181.412 97.4545V98.4773H177.837V97.4545H181.412ZM178.795 95.8864H180.07V102.078C180.07 102.325 180.107 102.511 180.18 102.636C180.254 102.759 180.349 102.842 180.466 102.888C180.585 102.93 180.714 102.952 180.854 102.952C180.956 102.952 181.045 102.945 181.122 102.93C181.199 102.916 181.259 102.905 181.301 102.896L181.531 103.949C181.457 103.977 181.352 104.006 181.216 104.034C181.08 104.065 180.909 104.082 180.705 104.085C180.369 104.091 180.057 104.031 179.767 103.906C179.477 103.781 179.243 103.588 179.064 103.327C178.885 103.065 178.795 102.737 178.795 102.342V95.8864ZM185.669 96.4062V95.2727H192.423V96.4062H189.7V104H188.388V96.4062H185.669ZM193.134 104V97.4545H194.365V98.4943H194.434C194.553 98.142 194.763 97.8651 195.064 97.6634C195.368 97.4588 195.712 97.3565 196.096 97.3565C196.175 97.3565 196.269 97.3594 196.377 97.3651C196.488 97.3707 196.574 97.3778 196.637 97.3864V98.6051C196.586 98.5909 196.495 98.5753 196.364 98.5582C196.233 98.5384 196.103 98.5284 195.972 98.5284C195.671 98.5284 195.402 98.5923 195.167 98.7202C194.934 98.8452 194.749 99.0199 194.613 99.2443C194.476 99.4659 194.408 99.7187 194.408 100.003V104H193.134ZM199.586 104.145C199.171 104.145 198.796 104.068 198.461 103.915C198.125 103.759 197.86 103.533 197.664 103.237C197.471 102.942 197.374 102.58 197.374 102.151C197.374 101.781 197.445 101.477 197.587 101.239C197.729 101 197.921 100.811 198.162 100.672C198.404 100.533 198.674 100.428 198.972 100.357C199.27 100.286 199.574 100.232 199.884 100.195C200.276 100.149 200.594 100.112 200.838 100.084C201.083 100.053 201.26 100.003 201.371 99.9347C201.482 99.8665 201.537 99.7557 201.537 99.6023V99.5724C201.537 99.2003 201.432 98.9119 201.222 98.7074C201.015 98.5028 200.705 98.4006 200.293 98.4006C199.864 98.4006 199.526 98.4957 199.279 98.6861C199.034 98.8736 198.865 99.0824 198.772 99.3125L197.574 99.0398C197.716 98.642 197.924 98.321 198.196 98.0767C198.472 97.8295 198.789 97.6506 199.147 97.5398C199.505 97.4261 199.881 97.3693 200.276 97.3693C200.537 97.3693 200.814 97.4006 201.107 97.4631C201.402 97.5227 201.678 97.6335 201.934 97.7955C202.192 97.9574 202.404 98.1889 202.569 98.4901C202.733 98.7884 202.816 99.1761 202.816 99.6534V104H201.571V103.105H201.52C201.438 103.27 201.314 103.432 201.15 103.591C200.985 103.75 200.773 103.882 200.515 103.987C200.256 104.092 199.946 104.145 199.586 104.145ZM199.863 103.122C200.215 103.122 200.516 103.053 200.766 102.913C201.019 102.774 201.211 102.592 201.341 102.368C201.475 102.141 201.542 101.898 201.542 101.639V100.795C201.496 100.841 201.408 100.884 201.277 100.923C201.15 100.96 201.003 100.993 200.838 101.021C200.674 101.047 200.513 101.071 200.357 101.094C200.201 101.114 200.07 101.131 199.965 101.145C199.718 101.176 199.492 101.229 199.287 101.303C199.086 101.376 198.924 101.483 198.801 101.622C198.682 101.759 198.623 101.94 198.623 102.168C198.623 102.483 198.739 102.722 198.972 102.884C199.205 103.043 199.502 103.122 199.863 103.122ZM207.27 104.132C206.636 104.132 206.091 103.989 205.634 103.702C205.179 103.412 204.83 103.013 204.585 102.504C204.341 101.996 204.219 101.413 204.219 100.757C204.219 100.092 204.344 99.5057 204.594 98.9972C204.844 98.4858 205.196 98.0866 205.651 97.7997C206.105 97.5128 206.641 97.3693 207.257 97.3693C207.754 97.3693 208.197 97.4616 208.587 97.6463C208.976 97.8281 209.29 98.0838 209.528 98.4134C209.77 98.7429 209.913 99.1278 209.959 99.5682H208.719C208.651 99.2614 208.494 98.9972 208.25 98.7756C208.009 98.554 207.685 98.4432 207.278 98.4432C206.923 98.4432 206.612 98.5369 206.345 98.7244C206.081 98.9091 205.875 99.1733 205.727 99.517C205.58 99.858 205.506 100.261 205.506 100.727C205.506 101.205 205.578 101.616 205.723 101.963C205.868 102.31 206.072 102.578 206.337 102.768C206.604 102.959 206.918 103.054 207.278 103.054C207.52 103.054 207.739 103.01 207.935 102.922C208.134 102.831 208.3 102.702 208.433 102.534C208.57 102.366 208.665 102.165 208.719 101.929H209.959C209.913 102.352 209.776 102.73 209.545 103.062C209.315 103.395 209.007 103.656 208.621 103.847C208.237 104.037 207.787 104.132 207.27 104.132ZM212.493 101.78L212.485 100.224H212.706L215.314 97.4545H216.84L213.865 100.608H213.665L212.493 101.78ZM211.321 104V95.2727H212.596V104H211.321ZM215.455 104L213.111 100.889L213.989 99.9986L217.019 104H215.455ZM218.001 104V97.4545H219.275V104H218.001ZM218.645 96.4446C218.423 96.4446 218.233 96.3707 218.074 96.223C217.917 96.0724 217.839 95.8935 217.839 95.6861C217.839 95.4759 217.917 95.2969 218.074 95.1491C218.233 94.9986 218.423 94.9233 218.645 94.9233C218.866 94.9233 219.055 94.9986 219.211 95.1491C219.37 95.2969 219.45 95.4759 219.45 95.6861C219.45 95.8935 219.37 96.0724 219.211 96.223C219.055 96.3707 218.866 96.4446 218.645 96.4446ZM222.263 100.114V104H220.989V97.4545H222.212V98.5199H222.293C222.444 98.1733 222.68 97.8949 223.001 97.6847C223.325 97.4744 223.732 97.3693 224.224 97.3693C224.67 97.3693 225.06 97.4631 225.396 97.6506C225.731 97.8352 225.991 98.1108 226.175 98.4773C226.36 98.8437 226.452 99.2969 226.452 99.8366V104H225.178V99.9901C225.178 99.5156 225.055 99.1449 224.808 98.8778C224.56 98.608 224.221 98.473 223.789 98.473C223.494 98.473 223.231 98.5369 223.001 98.6648C222.773 98.7926 222.593 98.9801 222.46 99.2273C222.329 99.4716 222.263 99.767 222.263 100.114ZM230.906 106.591C230.386 106.591 229.938 106.523 229.563 106.386C229.191 106.25 228.887 106.07 228.651 105.845C228.415 105.621 228.239 105.375 228.123 105.108L229.218 104.656C229.295 104.781 229.397 104.913 229.525 105.053C229.656 105.195 229.832 105.315 230.053 105.415C230.278 105.514 230.566 105.564 230.918 105.564C231.401 105.564 231.8 105.446 232.116 105.21C232.431 104.977 232.589 104.605 232.589 104.094V102.807H232.508C232.431 102.946 232.32 103.101 232.175 103.271C232.033 103.442 231.837 103.589 231.587 103.714C231.337 103.839 231.012 103.902 230.612 103.902C230.094 103.902 229.629 103.781 229.214 103.54C228.802 103.295 228.475 102.936 228.234 102.462C227.995 101.984 227.876 101.398 227.876 100.702C227.876 100.006 227.994 99.4091 228.229 98.9119C228.468 98.4148 228.795 98.0341 229.21 97.7699C229.624 97.5028 230.094 97.3693 230.62 97.3693C231.026 97.3693 231.354 97.4375 231.604 97.5739C231.854 97.7074 232.049 97.8636 232.188 98.0426C232.33 98.2216 232.44 98.3793 232.516 98.5156H232.61V97.4545H233.859V104.145C233.859 104.707 233.728 105.169 233.467 105.53C233.205 105.891 232.852 106.158 232.406 106.331C231.962 106.504 231.462 106.591 230.906 106.591ZM230.893 102.845C231.259 102.845 231.569 102.76 231.822 102.589C232.077 102.416 232.271 102.169 232.401 101.848C232.535 101.524 232.602 101.136 232.602 100.685C232.602 100.244 232.536 99.8565 232.406 99.5213C232.275 99.1861 232.083 98.9247 231.83 98.7372C231.577 98.5469 231.265 98.4517 230.893 98.4517C230.509 98.4517 230.19 98.5511 229.934 98.75C229.678 98.946 229.485 99.2131 229.354 99.5511C229.227 99.8892 229.163 100.267 229.163 100.685C229.163 101.114 229.228 101.49 229.359 101.814C229.489 102.138 229.683 102.391 229.938 102.572C230.197 102.754 230.515 102.845 230.893 102.845ZM243.605 97.5653C243.56 97.1619 243.373 96.8494 243.043 96.6278C242.713 96.4034 242.299 96.2912 241.799 96.2912C241.441 96.2912 241.131 96.348 240.87 96.4616C240.608 96.5724 240.405 96.7259 240.26 96.9219C240.118 97.1151 240.047 97.3352 240.047 97.5824C240.047 97.7898 240.096 97.9687 240.192 98.1193C240.292 98.2699 240.421 98.3963 240.58 98.4986C240.742 98.598 240.915 98.6818 241.1 98.75C241.284 98.8153 241.462 98.8693 241.632 98.9119L242.485 99.1335C242.763 99.2017 243.049 99.294 243.341 99.4105C243.634 99.527 243.905 99.6804 244.155 99.8707C244.405 100.061 244.607 100.297 244.76 100.578C244.917 100.859 244.995 101.196 244.995 101.588C244.995 102.082 244.867 102.521 244.611 102.905C244.358 103.288 243.99 103.591 243.507 103.812C243.027 104.034 242.446 104.145 241.765 104.145C241.111 104.145 240.546 104.041 240.069 103.834C239.591 103.626 239.218 103.332 238.948 102.952C238.678 102.568 238.529 102.114 238.5 101.588H239.821C239.847 101.903 239.949 102.166 240.128 102.376C240.31 102.584 240.542 102.739 240.823 102.841C241.107 102.94 241.418 102.99 241.756 102.99C242.128 102.99 242.459 102.932 242.749 102.815C243.042 102.696 243.272 102.531 243.439 102.321C243.607 102.108 243.691 101.859 243.691 101.575C243.691 101.317 243.617 101.105 243.469 100.94C243.324 100.776 243.127 100.639 242.877 100.531C242.63 100.423 242.35 100.328 242.037 100.246L241.006 99.9645C240.307 99.7741 239.753 99.4943 239.344 99.125C238.938 98.7557 238.735 98.267 238.735 97.6591C238.735 97.1562 238.871 96.7173 239.144 96.3423C239.417 95.9673 239.786 95.6761 240.252 95.4688C240.718 95.2585 241.243 95.1534 241.828 95.1534C242.419 95.1534 242.941 95.2571 243.392 95.4645C243.847 95.6719 244.205 95.9574 244.466 96.321C244.728 96.6818 244.864 97.0966 244.875 97.5653H243.605ZM247.271 106.455C247.081 106.455 246.908 106.439 246.751 106.408C246.595 106.379 246.479 106.348 246.402 106.314L246.709 105.27C246.942 105.332 247.149 105.359 247.331 105.351C247.513 105.342 247.673 105.274 247.812 105.146C247.955 105.018 248.08 104.81 248.188 104.52L248.345 104.085L245.95 97.4545H247.314L248.972 102.534H249.04L250.697 97.4545H252.065L249.368 104.874C249.243 105.214 249.084 105.503 248.891 105.739C248.697 105.977 248.467 106.156 248.2 106.276C247.933 106.395 247.624 106.455 247.271 106.455ZM258.168 99.0526L257.013 99.2571C256.964 99.1094 256.888 98.9687 256.783 98.8352C256.68 98.7017 256.541 98.5923 256.365 98.5071C256.189 98.4219 255.969 98.3793 255.705 98.3793C255.344 98.3793 255.043 98.4602 254.801 98.6222C254.56 98.7812 254.439 98.9872 254.439 99.2401C254.439 99.4588 254.52 99.6349 254.682 99.7685C254.844 99.902 255.105 100.011 255.466 100.097L256.506 100.335C257.108 100.474 257.557 100.689 257.852 100.979C258.148 101.268 258.295 101.645 258.295 102.108C258.295 102.5 258.182 102.849 257.955 103.156C257.73 103.46 257.416 103.699 257.013 103.872C256.612 104.045 256.148 104.132 255.619 104.132C254.886 104.132 254.288 103.976 253.825 103.663C253.362 103.348 253.078 102.901 252.973 102.321L254.205 102.134C254.281 102.455 254.439 102.697 254.678 102.862C254.916 103.024 255.227 103.105 255.611 103.105C256.028 103.105 256.362 103.018 256.612 102.845C256.862 102.669 256.987 102.455 256.987 102.202C256.987 101.997 256.911 101.825 256.757 101.686C256.607 101.547 256.375 101.442 256.062 101.371L254.955 101.128C254.344 100.989 253.892 100.767 253.599 100.463C253.31 100.159 253.165 99.7741 253.165 99.3082C253.165 98.9219 253.273 98.5838 253.489 98.294C253.705 98.0043 254.003 97.7784 254.384 97.6165C254.764 97.4517 255.2 97.3693 255.692 97.3693C256.399 97.3693 256.956 97.5227 257.362 97.8295C257.768 98.1335 258.037 98.5412 258.168 99.0526ZM262.752 97.4545V98.4773H259.176V97.4545H262.752ZM260.135 95.8864H261.409V102.078C261.409 102.325 261.446 102.511 261.52 102.636C261.594 102.759 261.689 102.842 261.806 102.888C261.925 102.93 262.054 102.952 262.194 102.952C262.296 102.952 262.385 102.945 262.462 102.93C262.539 102.916 262.598 102.905 262.641 102.896L262.871 103.949C262.797 103.977 262.692 104.006 262.556 104.034C262.419 104.065 262.249 104.082 262.044 104.085C261.709 104.091 261.397 104.031 261.107 103.906C260.817 103.781 260.583 103.588 260.404 103.327C260.225 103.065 260.135 102.737 260.135 102.342V95.8864ZM266.912 104.132C266.267 104.132 265.712 103.994 265.246 103.719C264.783 103.44 264.425 103.05 264.172 102.547C263.922 102.041 263.797 101.449 263.797 100.77C263.797 100.099 263.922 99.5085 264.172 98.9972C264.425 98.4858 264.777 98.0866 265.229 97.7997C265.683 97.5128 266.214 97.3693 266.822 97.3693C267.192 97.3693 267.55 97.4304 267.896 97.5526C268.243 97.6747 268.554 97.8665 268.83 98.1278C269.105 98.3892 269.322 98.7287 269.482 99.1463C269.641 99.5611 269.72 100.065 269.72 100.659V101.111H264.517V100.156H268.472C268.472 99.821 268.403 99.5241 268.267 99.2656C268.131 99.0043 267.939 98.7983 267.692 98.6477C267.447 98.4972 267.161 98.4219 266.831 98.4219C266.473 98.4219 266.161 98.5099 265.893 98.6861C265.629 98.8594 265.425 99.0866 265.28 99.3679C265.138 99.6463 265.067 99.9489 265.067 100.276V101.021C265.067 101.459 265.143 101.831 265.297 102.138C265.453 102.445 265.67 102.679 265.949 102.841C266.227 103 266.553 103.08 266.925 103.08C267.166 103.08 267.386 103.045 267.585 102.977C267.784 102.906 267.956 102.801 268.101 102.662C268.246 102.523 268.357 102.351 268.433 102.146L269.639 102.364C269.543 102.719 269.369 103.03 269.119 103.297C268.872 103.561 268.561 103.767 268.186 103.915C267.814 104.06 267.389 104.132 266.912 104.132ZM271.134 104V97.4545H272.357V98.5199H272.438C272.574 98.1591 272.797 97.8778 273.107 97.6761C273.417 97.4716 273.787 97.3693 274.219 97.3693C274.657 97.3693 275.023 97.4716 275.319 97.6761C275.617 97.8807 275.837 98.1619 275.979 98.5199H276.047C276.203 98.1705 276.452 97.892 276.793 97.6847C277.134 97.4744 277.54 97.3693 278.012 97.3693C278.605 97.3693 279.09 97.5554 279.465 97.9276C279.843 98.2997 280.032 98.8608 280.032 99.6108V104H278.757V99.7301C278.757 99.2869 278.637 98.9659 278.395 98.767C278.154 98.5682 277.865 98.4688 277.53 98.4688C277.115 98.4688 276.793 98.5966 276.563 98.8523C276.333 99.1051 276.218 99.4304 276.218 99.8281V104H274.948V99.6491C274.948 99.294 274.837 99.0085 274.615 98.7926C274.394 98.5767 274.105 98.4688 273.75 98.4688C273.509 98.4688 273.286 98.5327 273.081 98.6605C272.88 98.7855 272.716 98.9602 272.591 99.1847C272.469 99.4091 272.408 99.669 272.408 99.9645V104H271.134Z" fill="black"/>
</g>
<defs>
<filter id="filter0_i_10_118" x="144" y="133" width="48" height="52" filterUnits="userSpaceOnUse" color-interpolation-filters="sRGB">
<feFlood flood-opacity="0" result="BackgroundImageFix"/>
<feBlend mode="normal" in="SourceGraphic" in2="BackgroundImageFix" result="shape"/>
<feColorMatrix in="SourceAlpha" type="matrix" values="0 0 0 0 0 0 0 0 0 0 0 0 0 0 0 0 0 0 127 0" result="hardAlpha"/>
<feOffset dy="4"/>
<feGaussianBlur stdDeviation="2"/>
<feComposite in2="hardAlpha" operator="arithmetic" k2="-1" k3="1"/>
<feColorMatrix type="matrix" values="0 0 0 0 0 0 0 0 0 0 0 0 0 0 0 0 0 0 0.25 0"/>
<feBlend mode="normal" in2="shape" result="effect1_innerShadow_10_118"/>
</filter>
<filter id="filter1_bd_10_118" x="23.3172" y="55.3172" width="300.366" height="85.3656" filterUnits="userSpaceOnUse" color-interpolation-filters="sRGB">
<feFlood flood-opacity="0" result="BackgroundImageFix"/>
<feGaussianBlur in="BackgroundImageFix" stdDeviation="13.5914"/>
<feComposite in2="SourceAlpha" operator="in" result="effect1_backgroundBlur_10_118"/>
<feColorMatrix in="SourceAlpha" type="matrix" values="0 0 0 0 0 0 0 0 0 0 0 0 0 0 0 0 0 0 127 0" result="hardAlpha"/>
<feOffset dy="1"/>
<feGaussianBlur stdDeviation="1"/>
<feColorMatrix type="matrix" values="0 0 0 0 0.0352941 0 0 0 0 0.0352941 0 0 0 0 0.0431373 0 0 0 0.04 0"/>
<feBlend mode="normal" in2="effect1_backgroundBlur_10_118" result="effect2_dropShadow_10_118"/>
<feBlend mode="normal" in="SourceGraphic" in2="effect2_dropShadow_10_118" result="shape"/>
</filter>
<linearGradient id="paint0_linear_10_118" x1="39.5" y1="48" x2="39.5" y2="217" gradientUnits="userSpaceOnUse">
<stop stop-color="white"/>
<stop offset="1" stop-color="#828282"/>
</linearGradient>
<linearGradient id="paint1_linear_10_118" x1="83.5" y1="48" x2="83.5" y2="217" gradientUnits="userSpaceOnUse">
<stop stop-color="white"/>
<stop offset="1" stop-color="#828282"/>
</linearGradient>
<linearGradient id="paint2_linear_10_118" x1="167.5" y1="48" x2="167.5" y2="217" gradientUnits="userSpaceOnUse">
<stop stop-color="white"/>
<stop offset="1" stop-color="#828282"/>
</linearGradient>
<linearGradient id="paint3_linear_10_118" x1="26" y1="74.5" x2="317" y2="74.5" gradientUnits="userSpaceOnUse">
<stop stop-color="#B6B6B6"/>
<stop offset="1" stop-color="#505050" stop-opacity="0.76"/>
</linearGradient>
<linearGradient id="paint4_linear_10_118" x1="26" y1="116.5" x2="317" y2="116.5" gradientUnits="userSpaceOnUse">
<stop stop-color="#B6B6B6"/>
<stop offset="1" stop-color="#505050" stop-opacity="0.76"/>
</linearGradient>
<linearGradient id="paint5_linear_10_118" x1="26" y1="157.5" x2="317" y2="157.5" gradientUnits="userSpaceOnUse">
<stop stop-color="#B6B6B6"/>
<stop offset="1" stop-color="#505050" stop-opacity="0.76"/>
</linearGradient>
<linearGradient id="paint6_linear_10_118" x1="26" y1="201.5" x2="317" y2="201.5" gradientUnits="userSpaceOnUse">
<stop stop-color="#B6B6B6"/>
<stop offset="1" stop-color="#505050" stop-opacity="0.76"/>
</linearGradient>
<linearGradient id="paint7_linear_10_118" x1="211.5" y1="48" x2="211.5" y2="217" gradientUnits="userSpaceOnUse">
<stop stop-color="white"/>
<stop offset="1" stop-color="#828282"/>
</linearGradient>
<linearGradient id="paint8_linear_10_118" x1="256.5" y1="48" x2="256.5" y2="217" gradientUnits="userSpaceOnUse">
<stop stop-color="white"/>
<stop offset="1" stop-color="#828282"/>
</linearGradient>
<linearGradient id="paint9_linear_10_118" x1="295.5" y1="48" x2="295.5" y2="217" gradientUnits="userSpaceOnUse">
<stop stop-color="white"/>
<stop offset="1" stop-color="#828282"/>
</linearGradient>
<linearGradient id="paint10_linear_10_118" x1="455.226" y1="269.611" x2="461.065" y2="494.937" gradientUnits="userSpaceOnUse">
<stop stop-color="#F7F7F7"/>
<stop offset="1" stop-color="#F8F8F8" stop-opacity="0"/>
</linearGradient>
<linearGradient id="paint11_linear_10_118" x1="178.859" y1="113" x2="178.859" y2="137.571" gradientUnits="userSpaceOnUse">
<stop stop-color="#5787EF"/>
<stop offset="1" stop-color="white"/>
</linearGradient>
<linearGradient id="paint12_linear_10_118" x1="162.102" y1="113" x2="162.102" y2="136.036" gradientUnits="userSpaceOnUse">
<stop stop-color="#5787EF"/>
<stop offset="1" stop-color="white"/>
</linearGradient>
<linearGradient id="paint13_linear_10_118" x1="140.405" y1="113" x2="140.405" y2="156" gradientUnits="userSpaceOnUse">
<stop stop-color="#5787EF"/>
<stop offset="1" stop-color="white"/>
</linearGradient>
<linearGradient id="paint14_linear_10_118" x1="196.595" y1="113" x2="196.595" y2="156" gradientUnits="userSpaceOnUse">
<stop stop-color="#5787EF"/>
<stop offset="1" stop-color="white"/>
</linearGradient>
<linearGradient id="paint15_linear_10_118" x1="-71.5" y1="98" x2="-64.2616" y2="157.114" gradientUnits="userSpaceOnUse">
<stop stop-color="#A1A1AA" stop-opacity="0.32"/>
<stop offset="0.554305" stop-color="#A1A1AA" stop-opacity="0.16"/>
<stop offset="0.999317" stop-color="#A1A1AA" stop-opacity="0.32"/>
</linearGradient>
<clipPath id="clip0_10_118">
<rect width="245" height="30" fill="white" transform="translate(51 83)"/>
</clipPath>
</defs>
</svg>
