<svg width="344" height="265" viewBox="0 0 344 265" fill="none" xmlns="http://www.w3.org/2000/svg">
<g filter="url(#filter0_i_11_273)">
<path d="M179 113V96.9998C178.999 96.2984 178.814 95.6094 178.463 95.0021C178.112 94.3948 177.607 93.8905 177 93.5398L163 85.5398C162.392 85.1887 161.702 85.0039 161 85.0039C160.298 85.0039 159.608 85.1887 159 85.5398L145 93.5398C144.393 93.8905 143.888 94.3948 143.537 95.0021C143.186 95.6094 143.001 96.2984 143 96.9998V113C143.001 113.701 143.186 114.39 143.537 114.997C143.888 115.605 144.393 116.109 145 116.46L159 124.46C159.608 124.811 160.298 124.996 161 124.996C161.702 124.996 162.392 124.811 163 124.46L177 116.46C177.607 116.109 178.112 115.605 178.463 114.997C178.814 114.39 178.999 113.701 179 113Z" stroke="white" stroke-width="2" stroke-linecap="round" stroke-linejoin="round"/>
<path d="M161 113C165.418 113 169 109.418 169 105C169 100.582 165.418 97 161 97C156.582 97 153 100.582 153 105C153 109.418 156.582 113 161 113Z" stroke="white" stroke-width="2" stroke-linecap="round" stroke-linejoin="round"/>
</g>
<g clip-path="url(#clip0_11_273)">
<g filter="url(#filter1_bd_11_273)">
<rect x="36" y="162" width="260" height="46" rx="6" fill="white" fill-opacity="0.32"/>
<rect x="36" y="162" width="260" height="46" rx="6" stroke="url(#paint0_linear_11_273)"/>
</g>
<path d="M79.8299 183.455C79.6396 183.455 79.4663 183.439 79.31 183.408C79.1538 183.379 79.0373 183.348 78.9606 183.314L79.2674 182.27C79.5004 182.332 79.7077 182.359 79.8896 182.351C80.0714 182.342 80.2319 182.274 80.3711 182.146C80.5131 182.018 80.6381 181.81 80.7461 181.52L80.9038 181.085L78.5089 174.455H79.8725L81.5302 179.534H81.5984L83.256 174.455H84.6239L81.9265 181.874C81.8015 182.214 81.6424 182.503 81.4492 182.739C81.256 182.977 81.0259 183.156 80.7589 183.276C80.4918 183.395 80.1822 183.455 79.8299 183.455ZM88.3558 181.132C87.7422 181.132 87.2067 180.991 86.7493 180.71C86.2919 180.429 85.9368 180.036 85.6839 179.53C85.4311 179.024 85.3047 178.433 85.3047 177.757C85.3047 177.078 85.4311 176.484 85.6839 175.976C85.9368 175.467 86.2919 175.072 86.7493 174.791C87.2067 174.51 87.7422 174.369 88.3558 174.369C88.9695 174.369 89.505 174.51 89.9624 174.791C90.4197 175.072 90.7749 175.467 91.0277 175.976C91.2805 176.484 91.407 177.078 91.407 177.757C91.407 178.433 91.2805 179.024 91.0277 179.53C90.7749 180.036 90.4197 180.429 89.9624 180.71C89.505 180.991 88.9695 181.132 88.3558 181.132ZM88.3601 180.062C88.7578 180.062 89.0874 179.957 89.3487 179.747C89.6101 179.537 89.8033 179.257 89.9283 178.908C90.0561 178.558 90.12 178.173 90.12 177.753C90.12 177.335 90.0561 176.952 89.9283 176.602C89.8033 176.25 89.6101 175.967 89.3487 175.754C89.0874 175.541 88.7578 175.435 88.3601 175.435C87.9595 175.435 87.6271 175.541 87.3629 175.754C87.1016 175.967 86.907 176.25 86.7791 176.602C86.6541 176.952 86.5916 177.335 86.5916 177.753C86.5916 178.173 86.6541 178.558 86.7791 178.908C86.907 179.257 87.1016 179.537 87.3629 179.747C87.6271 179.957 87.9595 180.062 88.3601 180.062ZM96.9755 178.286V174.455H98.2539V181H97.0011V179.866H96.9329C96.7823 180.216 96.5408 180.507 96.2085 180.74C95.8789 180.97 95.4684 181.085 94.9769 181.085C94.5565 181.085 94.1843 180.993 93.8604 180.808C93.5394 180.621 93.2866 180.344 93.1019 179.977C92.9201 179.611 92.8292 179.158 92.8292 178.618V174.455H94.1033V178.464C94.1033 178.911 94.2269 179.266 94.4741 179.53C94.7212 179.794 95.0423 179.926 95.4371 179.926C95.6758 179.926 95.913 179.866 96.1488 179.747C96.3874 179.628 96.5849 179.447 96.7411 179.206C96.9002 178.964 96.9783 178.658 96.9755 178.286ZM105.899 181.132C105.265 181.132 104.72 180.989 104.262 180.702C103.808 180.412 103.458 180.013 103.214 179.504C102.97 178.996 102.848 178.413 102.848 177.757C102.848 177.092 102.973 176.506 103.223 175.997C103.473 175.486 103.825 175.087 104.279 174.8C104.734 174.513 105.27 174.369 105.886 174.369C106.383 174.369 106.826 174.462 107.216 174.646C107.605 174.828 107.919 175.084 108.157 175.413C108.399 175.743 108.542 176.128 108.588 176.568H107.348C107.279 176.261 107.123 175.997 106.879 175.776C106.637 175.554 106.314 175.443 105.907 175.443C105.552 175.443 105.241 175.537 104.974 175.724C104.71 175.909 104.504 176.173 104.356 176.517C104.208 176.858 104.135 177.261 104.135 177.727C104.135 178.205 104.207 178.616 104.352 178.963C104.497 179.31 104.701 179.578 104.966 179.768C105.233 179.959 105.547 180.054 105.907 180.054C106.149 180.054 106.368 180.01 106.564 179.922C106.762 179.831 106.929 179.702 107.062 179.534C107.199 179.366 107.294 179.165 107.348 178.929H108.588C108.542 179.352 108.404 179.73 108.174 180.062C107.944 180.395 107.636 180.656 107.25 180.847C106.866 181.037 106.416 181.132 105.899 181.132ZM111.855 181.145C111.44 181.145 111.065 181.068 110.73 180.915C110.395 180.759 110.129 180.533 109.933 180.237C109.74 179.942 109.643 179.58 109.643 179.151C109.643 178.781 109.714 178.477 109.857 178.239C109.999 178 110.19 177.811 110.432 177.672C110.673 177.533 110.943 177.428 111.241 177.357C111.54 177.286 111.844 177.232 112.153 177.195C112.545 177.149 112.864 177.112 113.108 177.084C113.352 177.053 113.53 177.003 113.641 176.935C113.751 176.866 113.807 176.756 113.807 176.602V176.572C113.807 176.2 113.702 175.912 113.491 175.707C113.284 175.503 112.974 175.401 112.562 175.401C112.134 175.401 111.795 175.496 111.548 175.686C111.304 175.874 111.135 176.082 111.041 176.312L109.844 176.04C109.986 175.642 110.193 175.321 110.466 175.077C110.741 174.83 111.058 174.651 111.416 174.54C111.774 174.426 112.151 174.369 112.545 174.369C112.807 174.369 113.084 174.401 113.376 174.463C113.672 174.523 113.947 174.634 114.203 174.795C114.462 174.957 114.673 175.189 114.838 175.49C115.003 175.788 115.085 176.176 115.085 176.653V181H113.841V180.105H113.79C113.707 180.27 113.584 180.432 113.419 180.591C113.254 180.75 113.043 180.882 112.784 180.987C112.526 181.092 112.216 181.145 111.855 181.145ZM112.132 180.122C112.484 180.122 112.786 180.053 113.036 179.913C113.288 179.774 113.48 179.592 113.611 179.368C113.744 179.141 113.811 178.898 113.811 178.639V177.795C113.766 177.841 113.678 177.884 113.547 177.923C113.419 177.96 113.273 177.993 113.108 178.021C112.943 178.047 112.783 178.071 112.626 178.094C112.47 178.114 112.339 178.131 112.234 178.145C111.987 178.176 111.761 178.229 111.557 178.303C111.355 178.376 111.193 178.483 111.071 178.622C110.952 178.759 110.892 178.94 110.892 179.168C110.892 179.483 111.009 179.722 111.241 179.884C111.474 180.043 111.771 180.122 112.132 180.122ZM118.056 177.114V181H116.782V174.455H118.005V175.52H118.086C118.237 175.173 118.473 174.895 118.794 174.685C119.118 174.474 119.525 174.369 120.017 174.369C120.463 174.369 120.853 174.463 121.189 174.651C121.524 174.835 121.784 175.111 121.968 175.477C122.153 175.844 122.245 176.297 122.245 176.837V181H120.971V176.99C120.971 176.516 120.848 176.145 120.6 175.878C120.353 175.608 120.014 175.473 119.582 175.473C119.287 175.473 119.024 175.537 118.794 175.665C118.566 175.793 118.386 175.98 118.252 176.227C118.122 176.472 118.056 176.767 118.056 177.114ZM129.887 181.132C129.254 181.132 128.708 180.989 128.251 180.702C127.796 180.412 127.447 180.013 127.202 179.504C126.958 178.996 126.836 178.413 126.836 177.757C126.836 177.092 126.961 176.506 127.211 175.997C127.461 175.486 127.813 175.087 128.268 174.8C128.722 174.513 129.258 174.369 129.874 174.369C130.371 174.369 130.815 174.462 131.204 174.646C131.593 174.828 131.907 175.084 132.146 175.413C132.387 175.743 132.531 176.128 132.576 176.568H131.336C131.268 176.261 131.112 175.997 130.867 175.776C130.626 175.554 130.302 175.443 129.896 175.443C129.54 175.443 129.229 175.537 128.962 175.724C128.698 175.909 128.492 176.173 128.344 176.517C128.197 176.858 128.123 177.261 128.123 177.727C128.123 178.205 128.195 178.616 128.34 178.963C128.485 179.31 128.69 179.578 128.954 179.768C129.221 179.959 129.535 180.054 129.896 180.054C130.137 180.054 130.356 180.01 130.552 179.922C130.751 179.831 130.917 179.702 131.05 179.534C131.187 179.366 131.282 179.165 131.336 178.929H132.576C132.531 179.352 132.393 179.73 132.163 180.062C131.933 180.395 131.624 180.656 131.238 180.847C130.854 181.037 130.404 181.132 129.887 181.132ZM133.939 181V174.455H135.17V175.494H135.238C135.358 175.142 135.568 174.865 135.869 174.663C136.173 174.459 136.517 174.357 136.9 174.357C136.98 174.357 137.074 174.359 137.181 174.365C137.292 174.371 137.379 174.378 137.441 174.386V175.605C137.39 175.591 137.299 175.575 137.169 175.558C137.038 175.538 136.907 175.528 136.777 175.528C136.475 175.528 136.207 175.592 135.971 175.72C135.738 175.845 135.554 176.02 135.417 176.244C135.281 176.466 135.213 176.719 135.213 177.003V181H133.939ZM141.131 181.132C140.486 181.132 139.93 180.994 139.464 180.719C139.001 180.44 138.643 180.05 138.391 179.547C138.141 179.041 138.016 178.449 138.016 177.77C138.016 177.099 138.141 176.509 138.391 175.997C138.643 175.486 138.996 175.087 139.447 174.8C139.902 174.513 140.433 174.369 141.041 174.369C141.411 174.369 141.768 174.43 142.115 174.553C142.462 174.675 142.773 174.866 143.048 175.128C143.324 175.389 143.541 175.729 143.7 176.146C143.859 176.561 143.939 177.065 143.939 177.659V178.111H138.736V177.156H142.69C142.69 176.821 142.622 176.524 142.486 176.266C142.349 176.004 142.158 175.798 141.911 175.648C141.666 175.497 141.379 175.422 141.05 175.422C140.692 175.422 140.379 175.51 140.112 175.686C139.848 175.859 139.643 176.087 139.499 176.368C139.357 176.646 139.286 176.949 139.286 177.276V178.021C139.286 178.459 139.362 178.831 139.516 179.138C139.672 179.445 139.889 179.679 140.168 179.841C140.446 180 140.771 180.08 141.143 180.08C141.385 180.08 141.605 180.045 141.804 179.977C142.003 179.906 142.175 179.801 142.32 179.662C142.464 179.523 142.575 179.351 142.652 179.146L143.858 179.364C143.761 179.719 143.588 180.03 143.338 180.297C143.091 180.561 142.78 180.767 142.405 180.915C142.033 181.06 141.608 181.132 141.131 181.132ZM147.257 181.145C146.843 181.145 146.468 181.068 146.132 180.915C145.797 180.759 145.532 180.533 145.336 180.237C145.142 179.942 145.046 179.58 145.046 179.151C145.046 178.781 145.117 178.477 145.259 178.239C145.401 178 145.593 177.811 145.834 177.672C146.076 177.533 146.346 177.428 146.644 177.357C146.942 177.286 147.246 177.232 147.556 177.195C147.948 177.149 148.266 177.112 148.51 177.084C148.755 177.053 148.932 177.003 149.043 176.935C149.154 176.866 149.209 176.756 149.209 176.602V176.572C149.209 176.2 149.104 175.912 148.894 175.707C148.686 175.503 148.377 175.401 147.965 175.401C147.536 175.401 147.198 175.496 146.951 175.686C146.706 175.874 146.537 176.082 146.444 176.312L145.246 176.04C145.388 175.642 145.596 175.321 145.868 175.077C146.144 174.83 146.461 174.651 146.819 174.54C147.176 174.426 147.553 174.369 147.948 174.369C148.209 174.369 148.486 174.401 148.779 174.463C149.074 174.523 149.35 174.634 149.605 174.795C149.864 174.957 150.076 175.189 150.24 175.49C150.405 175.788 150.488 176.176 150.488 176.653V181H149.243V180.105H149.192C149.11 180.27 148.986 180.432 148.821 180.591C148.657 180.75 148.445 180.882 148.186 180.987C147.928 181.092 147.618 181.145 147.257 181.145ZM147.534 180.122C147.887 180.122 148.188 180.053 148.438 179.913C148.691 179.774 148.882 179.592 149.013 179.368C149.147 179.141 149.213 178.898 149.213 178.639V177.795C149.168 177.841 149.08 177.884 148.949 177.923C148.821 177.96 148.675 177.993 148.51 178.021C148.346 178.047 148.185 178.071 148.029 178.094C147.873 178.114 147.742 178.131 147.637 178.145C147.39 178.176 147.164 178.229 146.959 178.303C146.757 178.376 146.596 178.483 146.473 178.622C146.354 178.759 146.294 178.94 146.294 179.168C146.294 179.483 146.411 179.722 146.644 179.884C146.877 180.043 147.174 180.122 147.534 180.122ZM155.24 174.455V175.477H151.665V174.455H155.24ZM152.624 172.886H153.898V179.078C153.898 179.325 153.935 179.511 154.009 179.636C154.082 179.759 154.178 179.842 154.294 179.888C154.413 179.93 154.543 179.952 154.682 179.952C154.784 179.952 154.874 179.945 154.95 179.93C155.027 179.916 155.087 179.905 155.129 179.896L155.359 180.949C155.286 180.977 155.18 181.006 155.044 181.034C154.908 181.065 154.737 181.082 154.533 181.085C154.197 181.091 153.885 181.031 153.595 180.906C153.305 180.781 153.071 180.588 152.892 180.327C152.713 180.065 152.624 179.737 152.624 179.342V172.886ZM159.4 181.132C158.755 181.132 158.2 180.994 157.734 180.719C157.271 180.44 156.913 180.05 156.66 179.547C156.41 179.041 156.285 178.449 156.285 177.77C156.285 177.099 156.41 176.509 156.66 175.997C156.913 175.486 157.265 175.087 157.717 174.8C158.172 174.513 158.703 174.369 159.311 174.369C159.68 174.369 160.038 174.43 160.385 174.553C160.731 174.675 161.042 174.866 161.318 175.128C161.593 175.389 161.811 175.729 161.97 176.146C162.129 176.561 162.208 177.065 162.208 177.659V178.111H157.005V177.156H160.96C160.96 176.821 160.892 176.524 160.755 176.266C160.619 176.004 160.427 175.798 160.18 175.648C159.936 175.497 159.649 175.422 159.319 175.422C158.961 175.422 158.649 175.51 158.382 175.686C158.118 175.859 157.913 176.087 157.768 176.368C157.626 176.646 157.555 176.949 157.555 177.276V178.021C157.555 178.459 157.632 178.831 157.785 179.138C157.941 179.445 158.159 179.679 158.437 179.841C158.716 180 159.041 180.08 159.413 180.08C159.654 180.08 159.875 180.045 160.074 179.977C160.272 179.906 160.444 179.801 160.589 179.662C160.734 179.523 160.845 179.351 160.922 179.146L162.127 179.364C162.031 179.719 161.858 180.03 161.608 180.297C161.36 180.561 161.049 180.767 160.674 180.915C160.302 181.06 159.877 181.132 159.4 181.132ZM167.603 183.455C167.413 183.455 167.24 183.439 167.083 183.408C166.927 183.379 166.811 183.348 166.734 183.314L167.041 182.27C167.274 182.332 167.481 182.359 167.663 182.351C167.845 182.342 168.005 182.274 168.145 182.146C168.287 182.018 168.412 181.81 168.52 181.52L168.677 181.085L166.282 174.455H167.646L169.304 179.534H169.372L171.029 174.455H172.397L169.7 181.874C169.575 182.214 169.416 182.503 169.223 182.739C169.029 182.977 168.799 183.156 168.532 183.276C168.265 183.395 167.956 183.455 167.603 183.455ZM176.129 181.132C175.516 181.132 174.98 180.991 174.523 180.71C174.065 180.429 173.71 180.036 173.457 179.53C173.205 179.024 173.078 178.433 173.078 177.757C173.078 177.078 173.205 176.484 173.457 175.976C173.71 175.467 174.065 175.072 174.523 174.791C174.98 174.51 175.516 174.369 176.129 174.369C176.743 174.369 177.278 174.51 177.736 174.791C178.193 175.072 178.548 175.467 178.801 175.976C179.054 176.484 179.18 177.078 179.18 177.757C179.18 178.433 179.054 179.024 178.801 179.53C178.548 180.036 178.193 180.429 177.736 180.71C177.278 180.991 176.743 181.132 176.129 181.132ZM176.134 180.062C176.531 180.062 176.861 179.957 177.122 179.747C177.384 179.537 177.577 179.257 177.702 178.908C177.83 178.558 177.893 178.173 177.893 177.753C177.893 177.335 177.83 176.952 177.702 176.602C177.577 176.25 177.384 175.967 177.122 175.754C176.861 175.541 176.531 175.435 176.134 175.435C175.733 175.435 175.401 175.541 175.136 175.754C174.875 175.967 174.68 176.25 174.553 176.602C174.428 176.952 174.365 177.335 174.365 177.753C174.365 178.173 174.428 178.558 174.553 178.908C174.68 179.257 174.875 179.537 175.136 179.747C175.401 179.957 175.733 180.062 176.134 180.062ZM184.749 178.286V174.455H186.027V181H184.775V179.866H184.706C184.556 180.216 184.314 180.507 183.982 180.74C183.652 180.97 183.242 181.085 182.75 181.085C182.33 181.085 181.958 180.993 181.634 180.808C181.313 180.621 181.06 180.344 180.875 179.977C180.694 179.611 180.603 179.158 180.603 178.618V174.455H181.877V178.464C181.877 178.911 182 179.266 182.248 179.53C182.495 179.794 182.816 179.926 183.211 179.926C183.449 179.926 183.686 179.866 183.922 179.747C184.161 179.628 184.358 179.447 184.515 179.206C184.674 178.964 184.752 178.658 184.749 178.286ZM187.739 181V174.455H188.971V175.494H189.039C189.158 175.142 189.369 174.865 189.67 174.663C189.974 174.459 190.317 174.357 190.701 174.357C190.781 174.357 190.874 174.359 190.982 174.365C191.093 174.371 191.18 174.378 191.242 174.386V175.605C191.191 175.591 191.1 175.575 190.969 175.558C190.839 175.538 190.708 175.528 190.577 175.528C190.276 175.528 190.008 175.592 189.772 175.72C189.539 175.845 189.354 176.02 189.218 176.244C189.082 176.466 189.013 176.719 189.013 177.003V181H187.739ZM195.521 181V174.455H196.752V175.494H196.82C196.94 175.142 197.15 174.865 197.451 174.663C197.755 174.459 198.099 174.357 198.482 174.357C198.562 174.357 198.656 174.359 198.763 174.365C198.874 174.371 198.961 174.378 199.023 174.386V175.605C198.972 175.591 198.881 175.575 198.751 175.558C198.62 175.538 198.489 175.528 198.359 175.528C198.058 175.528 197.789 175.592 197.553 175.72C197.32 175.845 197.136 176.02 196.999 176.244C196.863 176.466 196.795 176.719 196.795 177.003V181H195.521ZM202.713 181.132C202.068 181.132 201.512 180.994 201.047 180.719C200.583 180.44 200.225 180.05 199.973 179.547C199.723 179.041 199.598 178.449 199.598 177.77C199.598 177.099 199.723 176.509 199.973 175.997C200.225 175.486 200.578 175.087 201.029 174.8C201.484 174.513 202.015 174.369 202.623 174.369C202.993 174.369 203.35 174.43 203.697 174.553C204.044 174.675 204.355 174.866 204.63 175.128C204.906 175.389 205.123 175.729 205.282 176.146C205.441 176.561 205.521 177.065 205.521 177.659V178.111H200.318V177.156H204.272C204.272 176.821 204.204 176.524 204.068 176.266C203.931 176.004 203.74 175.798 203.493 175.648C203.248 175.497 202.961 175.422 202.632 175.422C202.274 175.422 201.961 175.51 201.694 175.686C201.43 175.859 201.225 176.087 201.081 176.368C200.939 176.646 200.868 176.949 200.868 177.276V178.021C200.868 178.459 200.944 178.831 201.098 179.138C201.254 179.445 201.471 179.679 201.75 179.841C202.028 180 202.353 180.08 202.725 180.08C202.967 180.08 203.187 180.045 203.386 179.977C203.585 179.906 203.757 179.801 203.902 179.662C204.047 179.523 204.157 179.351 204.234 179.146L205.44 179.364C205.343 179.719 205.17 180.03 204.92 180.297C204.673 180.561 204.362 180.767 203.987 180.915C203.615 181.06 203.19 181.132 202.713 181.132ZM211.839 176.053L210.685 176.257C210.636 176.109 210.56 175.969 210.455 175.835C210.352 175.702 210.213 175.592 210.037 175.507C209.861 175.422 209.641 175.379 209.376 175.379C209.016 175.379 208.714 175.46 208.473 175.622C208.232 175.781 208.111 175.987 208.111 176.24C208.111 176.459 208.192 176.635 208.354 176.768C208.516 176.902 208.777 177.011 209.138 177.097L210.178 177.335C210.78 177.474 211.229 177.689 211.524 177.979C211.82 178.268 211.967 178.645 211.967 179.108C211.967 179.5 211.854 179.849 211.626 180.156C211.402 180.46 211.088 180.699 210.685 180.872C210.284 181.045 209.82 181.132 209.291 181.132C208.558 181.132 207.96 180.976 207.497 180.663C207.034 180.348 206.75 179.901 206.645 179.321L207.876 179.134C207.953 179.455 208.111 179.697 208.349 179.862C208.588 180.024 208.899 180.105 209.283 180.105C209.7 180.105 210.034 180.018 210.284 179.845C210.534 179.669 210.659 179.455 210.659 179.202C210.659 178.997 210.582 178.825 210.429 178.686C210.278 178.547 210.047 178.442 209.734 178.371L208.626 178.128C208.016 177.989 207.564 177.767 207.271 177.463C206.982 177.159 206.837 176.774 206.837 176.308C206.837 175.922 206.945 175.584 207.161 175.294C207.376 175.004 207.675 174.778 208.055 174.616C208.436 174.452 208.872 174.369 209.364 174.369C210.071 174.369 210.628 174.523 211.034 174.83C211.44 175.134 211.709 175.541 211.839 176.053ZM217.515 178.286V174.455H218.793V181H217.54V179.866H217.472C217.321 180.216 217.08 180.507 216.748 180.74C216.418 180.97 216.007 181.085 215.516 181.085C215.096 181.085 214.723 180.993 214.4 180.808C214.078 180.621 213.826 180.344 213.641 179.977C213.459 179.611 213.368 179.158 213.368 178.618V174.455H214.642V178.464C214.642 178.911 214.766 179.266 215.013 179.53C215.26 179.794 215.581 179.926 215.976 179.926C216.215 179.926 216.452 179.866 216.688 179.747C216.926 179.628 217.124 179.447 217.28 179.206C217.439 178.964 217.517 178.658 217.515 178.286ZM220.505 181V174.455H221.728V175.52H221.809C221.945 175.159 222.168 174.878 222.478 174.676C222.788 174.472 223.158 174.369 223.59 174.369C224.028 174.369 224.394 174.472 224.69 174.676C224.988 174.881 225.208 175.162 225.35 175.52H225.418C225.575 175.17 225.823 174.892 226.164 174.685C226.505 174.474 226.911 174.369 227.383 174.369C227.977 174.369 228.461 174.555 228.836 174.928C229.214 175.3 229.403 175.861 229.403 176.611V181H228.129V176.73C228.129 176.287 228.008 175.966 227.766 175.767C227.525 175.568 227.237 175.469 226.901 175.469C226.487 175.469 226.164 175.597 225.934 175.852C225.704 176.105 225.589 176.43 225.589 176.828V181H224.319V176.649C224.319 176.294 224.208 176.009 223.987 175.793C223.765 175.577 223.477 175.469 223.121 175.469C222.88 175.469 222.657 175.533 222.452 175.661C222.251 175.786 222.087 175.96 221.962 176.185C221.84 176.409 221.779 176.669 221.779 176.964V181H220.505ZM233.931 181.132C233.287 181.132 232.731 180.994 232.265 180.719C231.802 180.44 231.444 180.05 231.191 179.547C230.941 179.041 230.816 178.449 230.816 177.77C230.816 177.099 230.941 176.509 231.191 175.997C231.444 175.486 231.797 175.087 232.248 174.8C232.703 174.513 233.234 174.369 233.842 174.369C234.211 174.369 234.569 174.43 234.916 174.553C235.262 174.675 235.574 174.866 235.849 175.128C236.125 175.389 236.342 175.729 236.501 176.146C236.66 176.561 236.74 177.065 236.74 177.659V178.111H231.537V177.156H235.491C235.491 176.821 235.423 176.524 235.287 176.266C235.15 176.004 234.958 175.798 234.711 175.648C234.467 175.497 234.18 175.422 233.85 175.422C233.493 175.422 233.18 175.51 232.913 175.686C232.649 175.859 232.444 176.087 232.299 176.368C232.157 176.646 232.086 176.949 232.086 177.276V178.021C232.086 178.459 232.163 178.831 232.316 179.138C232.473 179.445 232.69 179.679 232.968 179.841C233.247 180 233.572 180.08 233.944 180.08C234.186 180.08 234.406 180.045 234.605 179.977C234.804 179.906 234.975 179.801 235.12 179.662C235.265 179.523 235.376 179.351 235.453 179.146L236.659 179.364C236.562 179.719 236.389 180.03 236.139 180.297C235.892 180.561 235.581 180.767 235.206 180.915C234.833 181.06 234.409 181.132 233.931 181.132ZM241.329 174.455H242.603V181.426C242.603 181.864 242.524 182.233 242.365 182.534C242.208 182.835 241.975 183.064 241.666 183.22C241.359 183.376 240.98 183.455 240.528 183.455C240.483 183.455 240.44 183.455 240.4 183.455C240.358 183.455 240.314 183.453 240.268 183.45V182.355C240.308 182.355 240.343 182.355 240.375 182.355C240.403 182.355 240.436 182.355 240.473 182.355C240.774 182.355 240.991 182.274 241.125 182.112C241.261 181.953 241.329 181.722 241.329 181.418V174.455ZM241.96 173.445C241.738 173.445 241.548 173.371 241.389 173.223C241.233 173.072 241.154 172.893 241.154 172.686C241.154 172.476 241.233 172.297 241.389 172.149C241.548 171.999 241.738 171.923 241.96 171.923C242.181 171.923 242.37 171.999 242.527 172.149C242.686 172.297 242.765 172.476 242.765 172.686C242.765 172.893 242.686 173.072 242.527 173.223C242.37 173.371 242.181 173.445 241.96 173.445ZM248.464 178.286V174.455H249.742V181H248.489V179.866H248.421C248.271 180.216 248.029 180.507 247.697 180.74C247.367 180.97 246.957 181.085 246.465 181.085C246.045 181.085 245.673 180.993 245.349 180.808C245.028 180.621 244.775 180.344 244.59 179.977C244.408 179.611 244.317 179.158 244.317 178.618V174.455H245.592V178.464C245.592 178.911 245.715 179.266 245.962 179.53C246.21 179.794 246.531 179.926 246.925 179.926C247.164 179.926 247.401 179.866 247.637 179.747C247.876 179.628 248.073 179.447 248.229 179.206C248.388 178.964 248.467 178.658 248.464 178.286ZM256.359 176.053L255.204 176.257C255.156 176.109 255.079 175.969 254.974 175.835C254.872 175.702 254.733 175.592 254.556 175.507C254.38 175.422 254.16 175.379 253.896 175.379C253.535 175.379 253.234 175.46 252.993 175.622C252.751 175.781 252.63 175.987 252.63 176.24C252.63 176.459 252.711 176.635 252.873 176.768C253.035 176.902 253.297 177.011 253.657 177.097L254.697 177.335C255.299 177.474 255.748 177.689 256.044 177.979C256.339 178.268 256.487 178.645 256.487 179.108C256.487 179.5 256.373 179.849 256.146 180.156C255.922 180.46 255.608 180.699 255.204 180.872C254.804 181.045 254.339 181.132 253.811 181.132C253.078 181.132 252.48 180.976 252.017 180.663C251.554 180.348 251.27 179.901 251.164 179.321L252.396 179.134C252.473 179.455 252.63 179.697 252.869 179.862C253.108 180.024 253.419 180.105 253.802 180.105C254.22 180.105 254.554 180.018 254.804 179.845C255.054 179.669 255.179 179.455 255.179 179.202C255.179 178.997 255.102 178.825 254.949 178.686C254.798 178.547 254.566 178.442 254.254 178.371L253.146 178.128C252.535 177.989 252.083 177.767 251.791 177.463C251.501 177.159 251.356 176.774 251.356 176.308C251.356 175.922 251.464 175.584 251.68 175.294C251.896 175.004 252.194 174.778 252.575 174.616C252.956 174.452 253.392 174.369 253.883 174.369C254.591 174.369 255.147 174.523 255.554 174.83C255.96 175.134 256.228 175.541 256.359 176.053ZM260.943 174.455V175.477H257.368V174.455H260.943ZM258.327 172.886H259.601V179.078C259.601 179.325 259.638 179.511 259.712 179.636C259.786 179.759 259.881 179.842 259.997 179.888C260.116 179.93 260.246 179.952 260.385 179.952C260.487 179.952 260.577 179.945 260.653 179.93C260.73 179.916 260.79 179.905 260.832 179.896L261.062 180.949C260.989 180.977 260.884 181.006 260.747 181.034C260.611 181.065 260.44 181.082 260.236 181.085C259.901 181.091 259.588 181.031 259.298 180.906C259.009 180.781 258.774 180.588 258.595 180.327C258.416 180.065 258.327 179.737 258.327 179.342V172.886ZM265.528 181V174.455H266.803V181H265.528ZM266.172 173.445C265.95 173.445 265.76 173.371 265.601 173.223C265.445 173.072 265.366 172.893 265.366 172.686C265.366 172.476 265.445 172.297 265.601 172.149C265.76 171.999 265.95 171.923 266.172 171.923C266.393 171.923 266.582 171.999 266.739 172.149C266.898 172.297 266.977 172.476 266.977 172.686C266.977 172.893 266.898 173.072 266.739 173.223C266.582 173.371 266.393 173.445 266.172 173.445ZM269.791 177.114V181H268.517V174.455H269.74V175.52H269.821C269.971 175.173 270.207 174.895 270.528 174.685C270.852 174.474 271.26 174.369 271.751 174.369C272.197 174.369 272.588 174.463 272.923 174.651C273.258 174.835 273.518 175.111 273.703 175.477C273.887 175.844 273.98 176.297 273.98 176.837V181H272.706V176.99C272.706 176.516 272.582 176.145 272.335 175.878C272.088 175.608 271.748 175.473 271.316 175.473C271.021 175.473 270.758 175.537 270.528 175.665C270.301 175.793 270.12 175.98 269.987 176.227C269.856 176.472 269.791 176.767 269.791 177.114ZM154.47 199V192.455H155.693V193.52H155.774C155.91 193.159 156.133 192.878 156.443 192.676C156.752 192.472 157.123 192.369 157.555 192.369C157.993 192.369 158.359 192.472 158.654 192.676C158.953 192.881 159.173 193.162 159.315 193.52H159.383C159.539 193.17 159.788 192.892 160.129 192.685C160.47 192.474 160.876 192.369 161.348 192.369C161.941 192.369 162.426 192.555 162.801 192.928C163.179 193.3 163.368 193.861 163.368 194.611V199H162.093V194.73C162.093 194.287 161.973 193.966 161.731 193.767C161.49 193.568 161.201 193.469 160.866 193.469C160.451 193.469 160.129 193.597 159.899 193.852C159.669 194.105 159.554 194.43 159.554 194.828V199H158.284V194.649C158.284 194.294 158.173 194.009 157.951 193.793C157.73 193.577 157.441 193.469 157.086 193.469C156.845 193.469 156.622 193.533 156.417 193.661C156.216 193.786 156.052 193.96 155.927 194.185C155.805 194.409 155.744 194.669 155.744 194.964V199H154.47ZM165.075 199V192.455H166.349V199H165.075ZM165.719 191.445C165.497 191.445 165.307 191.371 165.148 191.223C164.991 191.072 164.913 190.893 164.913 190.686C164.913 190.476 164.991 190.297 165.148 190.149C165.307 189.999 165.497 189.923 165.719 189.923C165.94 189.923 166.129 189.999 166.286 190.149C166.445 190.297 166.524 190.476 166.524 190.686C166.524 190.893 166.445 191.072 166.286 191.223C166.129 191.371 165.94 191.445 165.719 191.445ZM169.338 195.114V199H168.064V192.455H169.287V193.52H169.368C169.518 193.173 169.754 192.895 170.075 192.685C170.399 192.474 170.806 192.369 171.298 192.369C171.744 192.369 172.135 192.463 172.47 192.651C172.805 192.835 173.065 193.111 173.25 193.477C173.434 193.844 173.527 194.297 173.527 194.837V199H172.252V194.99C172.252 194.516 172.129 194.145 171.882 193.878C171.635 193.608 171.295 193.473 170.863 193.473C170.568 193.473 170.305 193.537 170.075 193.665C169.848 193.793 169.667 193.98 169.534 194.227C169.403 194.472 169.338 194.767 169.338 195.114ZM179.382 196.286V192.455H180.66V199H179.407V197.866H179.339C179.189 198.216 178.947 198.507 178.615 198.74C178.285 198.97 177.875 199.085 177.383 199.085C176.963 199.085 176.591 198.993 176.267 198.808C175.946 198.621 175.693 198.344 175.508 197.977C175.326 197.611 175.235 197.158 175.235 196.618V192.455H176.51V196.464C176.51 196.911 176.633 197.266 176.88 197.53C177.127 197.794 177.449 197.926 177.843 197.926C178.082 197.926 178.319 197.866 178.555 197.747C178.794 197.628 178.991 197.447 179.147 197.206C179.306 196.964 179.385 196.658 179.382 196.286ZM185.428 192.455V193.477H181.852V192.455H185.428ZM182.811 190.886H184.085V197.078C184.085 197.325 184.122 197.511 184.196 197.636C184.27 197.759 184.365 197.842 184.482 197.888C184.601 197.93 184.73 197.952 184.869 197.952C184.972 197.952 185.061 197.945 185.138 197.93C185.214 197.916 185.274 197.905 185.317 197.896L185.547 198.949C185.473 198.977 185.368 199.006 185.232 199.034C185.095 199.065 184.925 199.082 184.72 199.085C184.385 199.091 184.072 199.031 183.783 198.906C183.493 198.781 183.259 198.588 183.08 198.327C182.901 198.065 182.811 197.737 182.811 197.342V190.886ZM189.588 199.132C188.943 199.132 188.387 198.994 187.922 198.719C187.458 198.44 187.1 198.05 186.848 197.547C186.598 197.041 186.473 196.449 186.473 195.77C186.473 195.099 186.598 194.509 186.848 193.997C187.1 193.486 187.453 193.087 187.904 192.8C188.359 192.513 188.89 192.369 189.498 192.369C189.868 192.369 190.225 192.43 190.572 192.553C190.919 192.675 191.23 192.866 191.505 193.128C191.781 193.389 191.998 193.729 192.157 194.146C192.316 194.561 192.396 195.065 192.396 195.659V196.111H187.193V195.156H191.147C191.147 194.821 191.079 194.524 190.943 194.266C190.806 194.004 190.615 193.798 190.368 193.648C190.123 193.497 189.836 193.422 189.507 193.422C189.149 193.422 188.836 193.51 188.569 193.686C188.305 193.859 188.1 194.087 187.956 194.368C187.814 194.646 187.743 194.949 187.743 195.276V196.021C187.743 196.459 187.819 196.831 187.973 197.138C188.129 197.445 188.346 197.679 188.625 197.841C188.903 198 189.228 198.08 189.6 198.08C189.842 198.08 190.062 198.045 190.261 197.977C190.46 197.906 190.632 197.801 190.777 197.662C190.922 197.523 191.032 197.351 191.109 197.146L192.315 197.364C192.218 197.719 192.045 198.03 191.795 198.297C191.548 198.561 191.237 198.767 190.862 198.915C190.49 199.06 190.065 199.132 189.588 199.132ZM198.714 194.053L197.56 194.257C197.511 194.109 197.435 193.969 197.33 193.835C197.227 193.702 197.088 193.592 196.912 193.507C196.736 193.422 196.516 193.379 196.251 193.379C195.891 193.379 195.589 193.46 195.348 193.622C195.107 193.781 194.986 193.987 194.986 194.24C194.986 194.459 195.067 194.635 195.229 194.768C195.391 194.902 195.652 195.011 196.013 195.097L197.053 195.335C197.655 195.474 198.104 195.689 198.399 195.979C198.695 196.268 198.842 196.645 198.842 197.108C198.842 197.5 198.729 197.849 198.501 198.156C198.277 198.46 197.963 198.699 197.56 198.872C197.159 199.045 196.695 199.132 196.166 199.132C195.433 199.132 194.835 198.976 194.372 198.663C193.909 198.348 193.625 197.901 193.52 197.321L194.751 197.134C194.828 197.455 194.986 197.697 195.224 197.862C195.463 198.024 195.774 198.105 196.158 198.105C196.575 198.105 196.909 198.018 197.159 197.845C197.409 197.669 197.534 197.455 197.534 197.202C197.534 196.997 197.457 196.825 197.304 196.686C197.153 196.547 196.922 196.442 196.609 196.371L195.501 196.128C194.891 195.989 194.439 195.767 194.146 195.463C193.857 195.159 193.712 194.774 193.712 194.308C193.712 193.922 193.82 193.584 194.036 193.294C194.251 193.004 194.55 192.778 194.93 192.616C195.311 192.452 195.747 192.369 196.239 192.369C196.946 192.369 197.503 192.523 197.909 192.83C198.315 193.134 198.584 193.541 198.714 194.053Z" fill="#27272A"/>
<rect x="45" y="172" width="24" height="26.3022" rx="12" fill="white"/>
<path d="M62.5263 176.782H58.0078L54.8125 180.284V180.369H57.9761L62.4489 185.272V188.738H62.5263L65.7216 185.236V180.284L62.5263 176.782V176.782Z" fill="#A1A1AA"/>
<path d="M57.0732 182.76H52.5546L49.3594 186.262V191.214L52.5546 194.715H57.0732L60.2685 191.214V186.262L57.0732 182.76V182.76Z" fill="#A1A1AA"/>
</g>
<g filter="url(#filter2_d_11_273)">
<path d="M187.308 132L183 118L197 122.308L190.538 125.538L187.308 132Z" fill="#2E6AEC"/>
<path d="M186.352 132.294L187.086 134.68L188.202 132.447L191.284 126.284L197.447 123.202L199.68 122.086L197.294 121.352L183.294 117.044L181.489 116.489L182.044 118.294L186.352 132.294Z" stroke="white" stroke-width="2"/>
</g>
<path d="M128 48.1132L125.113 51L128 53.8868L130.887 51L128 48.1132ZM127.5 51V152H128.5V51H127.5Z" fill="url(#paint1_linear_11_273)"/>
<path d="M107.113 143.5L110 146.387L112.887 143.5L110 140.613L107.113 143.5ZM110 144H222.035V143H110V144Z" fill="url(#paint2_linear_11_273)"/>
<path d="M114.113 68.248L117 71.1348L119.887 68.248L117 65.3613L114.113 68.248ZM117 68.748H204.006V67.748H117V68.748Z" fill="url(#paint3_linear_11_273)"/>
<path d="M196.5 51.1113L193.613 53.998L196.5 56.8848L199.387 53.998L196.5 51.1113ZM196 53.998L196 158.003H197L197 53.998H196Z" fill="url(#paint4_linear_11_273)"/>
<g filter="url(#filter3_d_11_273)">
<path d="M130.308 139L134 125L122 129.308L127.538 132.538L130.308 139Z" fill="#DB72CB"/>
<path d="M131.275 139.255L130.533 142.065L129.389 139.394L126.749 133.236L121.496 130.171L119.644 129.091L121.662 128.366L133.662 124.059L135.452 123.416L134.967 125.255L131.275 139.255Z" stroke="white" stroke-width="2"/>
</g>
<defs>
<filter id="filter0_i_11_273" x="137" y="81" width="48" height="52" filterUnits="userSpaceOnUse" color-interpolation-filters="sRGB">
<feFlood flood-opacity="0" result="BackgroundImageFix"/>
<feBlend mode="normal" in="SourceGraphic" in2="BackgroundImageFix" result="shape"/>
<feColorMatrix in="SourceAlpha" type="matrix" values="0 0 0 0 0 0 0 0 0 0 0 0 0 0 0 0 0 0 127 0" result="hardAlpha"/>
<feOffset dy="4"/>
<feGaussianBlur stdDeviation="2"/>
<feComposite in2="hardAlpha" operator="arithmetic" k2="-1" k3="1"/>
<feColorMatrix type="matrix" values="0 0 0 0 0 0 0 0 0 0 0 0 0 0 0 0 0 0 0.25 0"/>
<feBlend mode="normal" in2="shape" result="effect1_innerShadow_11_273"/>
</filter>
<filter id="filter1_bd_11_273" x="8.31718" y="134.317" width="315.366" height="101.366" filterUnits="userSpaceOnUse" color-interpolation-filters="sRGB">
<feFlood flood-opacity="0" result="BackgroundImageFix"/>
<feGaussianBlur in="BackgroundImageFix" stdDeviation="13.5914"/>
<feComposite in2="SourceAlpha" operator="in" result="effect1_backgroundBlur_11_273"/>
<feColorMatrix in="SourceAlpha" type="matrix" values="0 0 0 0 0 0 0 0 0 0 0 0 0 0 0 0 0 0 127 0" result="hardAlpha"/>
<feOffset dy="1"/>
<feGaussianBlur stdDeviation="1"/>
<feColorMatrix type="matrix" values="0 0 0 0 0.0352941 0 0 0 0 0.0352941 0 0 0 0 0.0431373 0 0 0 0.04 0"/>
<feBlend mode="normal" in2="effect1_backgroundBlur_11_273" result="effect2_dropShadow_11_273"/>
<feBlend mode="normal" in="SourceGraphic" in2="effect2_dropShadow_11_273" result="shape"/>
</filter>
<filter id="filter2_d_11_273" x="177.977" y="113.978" width="26.3828" height="26.3818" filterUnits="userSpaceOnUse" color-interpolation-filters="sRGB">
<feFlood flood-opacity="0" result="BackgroundImageFix"/>
<feColorMatrix in="SourceAlpha" type="matrix" values="0 0 0 0 0 0 0 0 0 0 0 0 0 0 0 0 0 0 127 0" result="hardAlpha"/>
<feOffset dy="1"/>
<feGaussianBlur stdDeviation="1"/>
<feColorMatrix type="matrix" values="0 0 0 0 0.0352941 0 0 0 0 0.0352941 0 0 0 0 0.0431373 0 0 0 0.16 0"/>
<feBlend mode="normal" in2="BackgroundImageFix" result="effect1_dropShadow_11_273"/>
<feBlend mode="normal" in="SourceGraphic" in2="effect1_dropShadow_11_273" result="shape"/>
</filter>
<filter id="filter3_d_11_273" x="115.289" y="120.833" width="23.6172" height="27.2979" filterUnits="userSpaceOnUse" color-interpolation-filters="sRGB">
<feFlood flood-opacity="0" result="BackgroundImageFix"/>
<feColorMatrix in="SourceAlpha" type="matrix" values="0 0 0 0 0 0 0 0 0 0 0 0 0 0 0 0 0 0 127 0" result="hardAlpha"/>
<feOffset dy="1"/>
<feGaussianBlur stdDeviation="1"/>
<feColorMatrix type="matrix" values="0 0 0 0 0.0352941 0 0 0 0 0.0352941 0 0 0 0 0.0431373 0 0 0 0.16 0"/>
<feBlend mode="normal" in2="BackgroundImageFix" result="effect1_dropShadow_11_273"/>
<feBlend mode="normal" in="SourceGraphic" in2="effect1_dropShadow_11_273" result="shape"/>
</filter>
<linearGradient id="paint0_linear_11_273" x1="-94" y1="185" x2="-78.2171" y2="274.208" gradientUnits="userSpaceOnUse">
<stop stop-color="#A1A1AA" stop-opacity="0.32"/>
<stop offset="0.554305" stop-color="#A1A1AA" stop-opacity="0.16"/>
<stop offset="0.999317" stop-color="#A1A1AA" stop-opacity="0.32"/>
</linearGradient>
<linearGradient id="paint1_linear_11_273" x1="127.5" y1="51" x2="127.5" y2="152" gradientUnits="userSpaceOnUse">
<stop stop-color="#262626"/>
<stop offset="1" stop-color="white"/>
</linearGradient>
<linearGradient id="paint2_linear_11_273" x1="110" y1="144" x2="222.035" y2="144" gradientUnits="userSpaceOnUse">
<stop stop-color="#262626"/>
<stop offset="1" stop-color="white"/>
</linearGradient>
<linearGradient id="paint3_linear_11_273" x1="117" y1="68.748" x2="204.006" y2="68.748" gradientUnits="userSpaceOnUse">
<stop stop-color="#262626"/>
<stop offset="1" stop-color="white"/>
</linearGradient>
<linearGradient id="paint4_linear_11_273" x1="196" y1="53.998" x2="196" y2="158.003" gradientUnits="userSpaceOnUse">
<stop stop-color="#262626"/>
<stop offset="1" stop-color="white"/>
</linearGradient>
<clipPath id="clip0_11_273">
<rect width="260" height="70" fill="white" transform="translate(36 151)"/>
</clipPath>
</defs>
</svg>
