<svg width="344" height="265" viewBox="0 0 344 265" fill="none" xmlns="http://www.w3.org/2000/svg">
<g opacity="0.48">
<g opacity="0.32" filter="url(#filter0_f_0_1637)">
<circle cx="172" cy="133" r="87" stroke="url(#paint0_linear_0_1637)" stroke-width="2"/>
</g>
<g opacity="0.32" filter="url(#filter1_f_0_1637)">
<circle cx="172" cy="133" r="111" stroke="url(#paint1_linear_0_1637)" stroke-width="2"/>
</g>
<g opacity="0.64" filter="url(#filter2_f_0_1637)">
<circle cx="172" cy="133" r="63.25" stroke="url(#paint2_linear_0_1637)" stroke-width="1.5"/>
</g>
</g>
<g filter="url(#filter3_f_0_1637)">
<path fill-rule="evenodd" clip-rule="evenodd" d="M127 133.5C127 134.052 127.304 134.567 127.806 134.867L170.245 156.801C170.632 157 171.082 157.05 171.5 156.95C171.918 157.05 172.368 157 172.755 156.801L215.194 134.867C215.696 134.567 216 134.052 216 133.5C216 132.948 215.696 132.433 215.194 132.133L172.755 110.199C172.368 110 171.918 109.95 171.5 110.05C171.082 109.95 170.632 110 170.245 110.199L127.806 132.133C127.304 132.433 127 132.948 127 133.5Z" fill="url(#paint3_linear_0_1637)"/>
</g>
<rect x="140" y="101" width="64" height="64" rx="28" fill="url(#paint4_linear_0_1637)"/>
<path d="M188 135C188 145 181 150 172.68 152.9C172.244 153.048 171.771 153.04 171.34 152.88C163 150 156 145 156 135V121C156 120.469 156.211 119.961 156.586 119.586C156.961 119.211 157.47 119 158 119C162 119 167 116.6 170.48 113.56C170.904 113.198 171.443 112.999 172 112.999C172.557 112.999 173.096 113.198 173.52 113.56C177.02 116.62 182 119 186 119C186.53 119 187.039 119.211 187.414 119.586C187.789 119.961 188 120.469 188 121V135Z" stroke="#2563EB" stroke-width="2" stroke-linecap="round" stroke-linejoin="round"/>
<path d="M166 133L170 137L178 129" stroke="#2563EB" stroke-width="2" stroke-linecap="round" stroke-linejoin="round"/>
<defs>
<filter id="filter0_f_0_1637" x="79.9226" y="40.9226" width="184.155" height="184.155" filterUnits="userSpaceOnUse" color-interpolation-filters="sRGB">
<feFlood flood-opacity="0" result="BackgroundImageFix"/>
<feBlend mode="normal" in="SourceGraphic" in2="BackgroundImageFix" result="shape"/>
<feGaussianBlur stdDeviation="2.03871" result="effect1_foregroundBlur_0_1637"/>
</filter>
<filter id="filter1_f_0_1637" x="54.5634" y="15.5634" width="234.873" height="234.873" filterUnits="userSpaceOnUse" color-interpolation-filters="sRGB">
<feFlood flood-opacity="0" result="BackgroundImageFix"/>
<feBlend mode="normal" in="SourceGraphic" in2="BackgroundImageFix" result="shape"/>
<feGaussianBlur stdDeviation="2.71828" result="effect1_foregroundBlur_0_1637"/>
</filter>
<filter id="filter2_f_0_1637" x="106.641" y="67.6409" width="130.718" height="130.718" filterUnits="userSpaceOnUse" color-interpolation-filters="sRGB">
<feFlood flood-opacity="0" result="BackgroundImageFix"/>
<feBlend mode="normal" in="SourceGraphic" in2="BackgroundImageFix" result="shape"/>
<feGaussianBlur stdDeviation="0.67957" result="effect1_foregroundBlur_0_1637"/>
</filter>
<filter id="filter3_f_0_1637" x="83.5075" y="66.5075" width="175.985" height="133.985" filterUnits="userSpaceOnUse" color-interpolation-filters="sRGB">
<feFlood flood-opacity="0" result="BackgroundImageFix"/>
<feBlend mode="normal" in="SourceGraphic" in2="BackgroundImageFix" result="shape"/>
<feGaussianBlur stdDeviation="21.7463" result="effect1_foregroundBlur_0_1637"/>
</filter>
<linearGradient id="paint0_linear_0_1637" x1="84" y1="45" x2="84" y2="221" gradientUnits="userSpaceOnUse">
<stop stop-color="#A1A1AA"/>
<stop offset="0.587904" stop-color="#A1A1AA" stop-opacity="0.01"/>
<stop offset="1" stop-color="#A1A1AA"/>
</linearGradient>
<linearGradient id="paint1_linear_0_1637" x1="60" y1="21" x2="60" y2="245" gradientUnits="userSpaceOnUse">
<stop stop-color="#A1A1AA"/>
<stop offset="0.587904" stop-color="#A1A1AA" stop-opacity="0.01"/>
<stop offset="1" stop-color="#A1A1AA"/>
</linearGradient>
<linearGradient id="paint2_linear_0_1637" x1="108" y1="69" x2="108" y2="197" gradientUnits="userSpaceOnUse">
<stop stop-color="#A1A1AA"/>
<stop offset="0.587904" stop-color="#A1A1AA" stop-opacity="0.01"/>
<stop offset="1" stop-color="#A1A1AA"/>
</linearGradient>
<linearGradient id="paint3_linear_0_1637" x1="216" y1="110" x2="127" y2="110" gradientUnits="userSpaceOnUse">
<stop stop-color="#2563EB"/>
<stop offset="1" stop-color="#2563EB" stop-opacity="0.483118"/>
<stop offset="1" stop-color="#2563EB"/>
</linearGradient>
<linearGradient id="paint4_linear_0_1637" x1="204" y1="101" x2="140" y2="101" gradientUnits="userSpaceOnUse">
<stop stop-color="white"/>
<stop offset="1" stop-color="white" stop-opacity="0.01"/>
</linearGradient>
</defs>
</svg>
