<svg width="344" height="272" viewBox="0 0 344 272" fill="none" xmlns="http://www.w3.org/2000/svg">
<g clip-path="url(#clip0_0_1220)">
<g filter="url(#filter0_d_0_1220)">
<rect x="24" y="51" width="296" height="176" rx="4" fill="#2563EB"/>
</g>
<rect x="43" y="75" width="81" height="18" rx="4" fill="#FAFAFA"/>
<rect x="43" y="106" width="226" height="13" rx="4" fill="#FAFAFA"/>
<rect x="43" y="126" width="245" height="13" rx="4" fill="#FAFAFA"/>
<rect x="43" y="146" width="211" height="13" rx="4" fill="#FAFAFA"/>
<rect x="43" y="186" width="44" height="13" rx="4" fill="#FAFAFA"/>
<rect x="43" y="206" width="76" height="13" rx="4" fill="#FAFAFA"/>
</g>
<rect y="7" width="344" height="265" fill="url(#paint0_linear_0_1220)"/>
<mask id="mask0_0_1220" style="mask-type:luminance" maskUnits="userSpaceOnUse" x="0" y="7" width="344" height="265">
<rect y="7" width="344" height="265" fill="white"/>
</mask>
<g mask="url(#mask0_0_1220)">
</g>
<path d="M233.943 20.2536C233.962 20.4716 233.904 20.7066 233.769 20.9588C233.634 21.2111 233.478 21.4024 233.301 21.5328C233.252 21.5684 233.167 21.6072 233.045 21.6491C232.923 21.6911 232.791 21.734 232.648 21.7777C232.515 21.8102 232.382 21.8479 232.25 21.8907C232.128 21.9223 232.03 21.9464 231.959 21.9631L232.532 24.2345C232.709 24.9406 232.854 25.6546 232.97 26.3766C233.094 27.0872 233.291 27.7863 233.56 28.474C233.586 28.5344 233.611 28.5897 233.637 28.6398C233.662 28.6899 233.678 28.7564 233.685 28.8394C233.697 28.9743 233.665 29.0817 233.588 29.1616C233.522 29.2405 233.433 29.3005 233.321 29.3416C233.221 29.3921 233.109 29.428 232.986 29.4492C232.862 29.4704 232.748 29.4855 232.645 29.4945L232.427 29.5135C232.105 29.5414 231.854 29.5371 231.673 29.5006C231.502 29.4631 231.365 29.3862 231.26 29.2698C231.156 29.1534 231.08 29.0031 231.033 28.819C230.985 28.6246 230.928 28.389 230.862 28.1124C230.448 26.235 230.003 24.3603 229.526 22.4882C228.89 22.6272 228.248 22.7614 227.601 22.8909C226.964 23.0194 226.321 23.1433 225.672 23.2623L225.44 26.3566C225.435 26.5452 225.426 26.8022 225.412 27.1275C225.409 27.4519 225.397 27.7876 225.374 28.1346C225.362 28.4703 225.337 28.7861 225.3 29.0821C225.273 29.3772 225.23 29.5953 225.169 29.7365C225.117 29.8665 225.068 29.9596 225.02 30.016C224.973 30.0724 224.877 30.107 224.731 30.1196C224.545 30.1358 224.355 30.1157 224.162 30.0593C223.98 30.0124 223.811 29.933 223.655 29.8211C223.51 29.7186 223.389 29.588 223.291 29.4292C223.194 29.2704 223.136 29.0872 223.118 28.8796C223.1 28.6721 223.103 28.4627 223.126 28.2516C223.16 28.0395 223.183 27.8283 223.197 27.6181C223.251 26.9233 223.296 26.2345 223.331 25.5518C223.365 24.8588 223.409 24.1701 223.465 23.4856C223.391 23.4815 223.307 23.4732 223.212 23.4605C223.116 23.4375 223.019 23.4093 222.922 23.3759C222.835 23.3416 222.758 23.2961 222.69 23.2392C222.623 23.1824 222.585 23.1124 222.578 23.0294C222.569 22.9256 222.597 22.8291 222.663 22.7397C222.738 22.6391 222.824 22.548 222.921 22.4663C223.028 22.3734 223.137 22.296 223.246 22.2342C223.355 22.162 223.449 22.1067 223.53 22.0684C223.621 20.5966 223.703 19.1309 223.775 17.6713C223.847 16.2117 223.896 14.7383 223.924 13.2511C223.931 12.8532 223.933 12.4505 223.929 12.0431C223.925 11.6356 223.921 11.2282 223.917 10.8208C223.923 10.4124 223.935 10.0088 223.953 9.60999C223.981 9.21023 224.029 8.80867 224.099 8.4053C224.16 8.02359 224.289 7.70911 224.487 7.46187C224.685 7.21462 224.997 7.0725 225.423 7.03552C225.547 7.0247 225.667 7.0247 225.783 7.03554C225.91 7.04547 226.022 7.07751 226.121 7.13165C226.403 7.24311 226.715 7.58716 227.058 8.1638C227.401 8.74044 227.755 9.4468 228.12 10.2829C228.485 11.1086 228.84 12.0083 229.186 12.982C229.542 13.9548 229.87 14.8987 230.169 15.8137C230.468 16.7288 230.729 17.5583 230.95 18.3023C231.171 19.036 231.333 19.5813 231.437 19.9382C231.653 19.8881 231.868 19.8432 232.085 19.8035C232.3 19.7534 232.516 19.7189 232.734 19.7C232.838 19.691 232.958 19.6858 233.094 19.6844C233.229 19.6831 233.357 19.7034 233.475 19.7453C233.603 19.776 233.708 19.8349 233.789 19.922C233.879 19.9978 233.93 20.1083 233.943 20.2536ZM229.044 20.5539C228.646 19.1038 228.224 17.6714 227.777 16.2569C227.339 14.8311 226.845 13.4155 226.294 12.01C226.244 13.5932 226.177 15.1675 226.093 16.7327C226.009 18.2978 225.91 19.8644 225.796 21.4323C226.349 21.3006 226.891 21.1646 227.423 21.0243C227.964 20.8727 228.504 20.7159 229.044 20.5539ZM239.483 18.4861C239.49 18.5691 239.497 18.6521 239.504 18.7351C239.511 18.8078 239.506 18.8813 239.492 18.9558C239.696 19.5026 239.886 20.056 240.06 20.616C240.243 21.1646 240.422 21.7137 240.595 22.2633C240.602 21.6249 240.599 20.9873 240.586 20.3507C240.582 19.7028 240.552 19.0623 240.497 18.4293C240.443 17.8066 240.367 17.1754 240.27 16.5356C240.171 15.8854 240.014 15.2718 239.796 14.6947L239.715 14.4822C239.69 14.4321 239.669 14.3764 239.653 14.315C239.638 14.2536 239.627 14.1918 239.622 14.1295C239.612 14.0154 239.63 13.9249 239.676 13.8582C239.732 13.7801 239.8 13.7219 239.881 13.6835C239.961 13.6452 240.053 13.6163 240.156 13.5969C240.258 13.5775 240.351 13.5642 240.434 13.557C240.694 13.5345 240.966 13.5421 241.252 13.5801C241.443 13.6157 241.6 13.6805 241.724 13.7743C241.846 13.8578 241.939 13.9647 242.002 14.0951C242.076 14.2246 242.131 14.3715 242.166 14.5357C242.201 14.6896 242.23 14.8491 242.255 15.0142C242.257 15.035 242.258 15.0557 242.26 15.0765C242.272 15.0963 242.279 15.1166 242.281 15.1374C242.373 15.5895 242.449 16.0481 242.511 16.5133C242.581 16.9672 242.636 17.4173 242.675 17.8635C242.796 19.2541 242.833 20.6467 242.787 22.0414C242.752 23.4351 242.679 24.8217 242.568 26.201C242.555 26.4112 242.527 26.628 242.484 26.8514C242.451 27.0738 242.391 27.2829 242.303 27.4787C242.216 27.6745 242.094 27.8419 241.939 27.9809C241.783 28.1095 241.58 28.1846 241.331 28.2062C241.051 28.2306 240.817 28.1882 240.63 28.079C240.442 27.9594 240.282 27.806 240.151 27.6187C240.029 27.4202 239.931 27.1987 239.858 26.9541C239.784 26.7096 239.722 26.4693 239.67 26.2333C239.639 26.121 239.609 26.019 239.58 25.9274C239.562 25.8349 239.539 25.7481 239.511 25.6668L238.907 23.7745C238.849 24.0723 238.767 24.4506 238.661 24.9095C238.564 25.3571 238.452 25.8112 238.324 26.2719C238.207 26.7316 238.082 27.1503 237.947 27.528C237.823 27.9047 237.715 28.165 237.623 28.309C237.521 28.4538 237.384 28.5702 237.214 28.6582C237.045 28.7565 236.872 28.8134 236.696 28.8287C236.385 28.8558 236.106 28.7806 235.861 28.6033C235.635 28.4138 235.479 28.1868 235.394 27.9224C235.308 27.658 235.238 27.3923 235.183 27.1252C235.181 27.1044 235.174 27.0789 235.161 27.0487C235.158 27.0176 235.156 26.9916 235.154 26.9709C234.899 25.8429 234.685 24.6957 234.51 23.5293C234.335 22.3526 234.196 21.1779 234.094 20.0053L233.869 17.4212C233.861 17.3279 233.858 17.2288 233.859 17.1241C233.861 17.0195 233.873 16.9243 233.897 16.8385C233.93 16.7415 233.981 16.6639 234.049 16.6057C234.128 16.5466 234.24 16.5108 234.385 16.4981C234.769 16.4647 235.095 16.5514 235.364 16.758C235.633 16.9647 235.8 17.2535 235.863 17.6244C235.938 18.1198 236.002 18.6213 236.057 19.1289C236.122 19.6356 236.181 20.1375 236.235 20.6348C236.295 21.2046 236.348 21.7594 236.395 22.299C236.451 22.8274 236.536 23.3846 236.65 23.9707C236.739 23.5551 236.822 23.1245 236.898 22.6787C236.975 22.2329 237.035 21.7833 237.079 21.3299C237.134 20.8755 237.168 20.4281 237.182 19.9878C237.206 19.5361 237.199 19.1028 237.163 18.6877C237.159 18.6358 237.15 18.5947 237.137 18.5645C237.133 18.523 237.129 18.4763 237.125 18.4244C237.11 18.3734 237.1 18.322 237.096 18.2701C237.091 18.2182 237.087 18.1663 237.082 18.1144C237.059 17.855 237.1 17.658 237.203 17.5236C237.307 17.3891 237.498 17.3097 237.778 17.2854C237.882 17.2763 238.008 17.2811 238.156 17.2996C238.314 17.3172 238.469 17.3508 238.62 17.4005C238.781 17.4492 238.928 17.5148 239.06 17.5974C239.193 17.68 239.285 17.7765 239.336 17.8871L239.321 17.8884C239.382 17.9877 239.421 18.0836 239.44 18.1761C239.458 18.2686 239.473 18.3719 239.483 18.4861ZM250.784 24.5458C250.811 24.8572 250.751 25.1865 250.603 25.5339C250.466 25.8805 250.275 26.2055 250.029 26.5092C249.783 26.8025 249.491 27.0526 249.154 27.2597C248.827 27.4659 248.492 27.5839 248.149 27.6136C247.662 27.656 247.233 27.5992 246.864 27.443C246.494 27.2765 246.165 27.0437 245.878 26.7445C245.59 26.435 245.344 26.0799 245.142 25.6792C244.951 25.2777 244.789 24.863 244.658 24.4353C244.526 23.9972 244.42 23.562 244.34 23.1297C244.271 22.6862 244.22 22.2828 244.188 21.9196C244.161 21.6083 244.145 21.2385 244.139 20.8104C244.143 20.3813 244.167 19.9348 244.211 19.471C244.264 19.0063 244.35 18.544 244.467 18.0842C244.583 17.6245 244.741 17.2083 244.938 16.8356C245.146 16.462 245.402 16.1523 245.704 15.9064C246.018 15.6596 246.387 15.5177 246.812 15.4807C247.144 15.4518 247.446 15.4936 247.717 15.6059C247.999 15.7174 248.238 15.8796 248.434 16.0926C248.64 16.2943 248.802 16.5364 248.921 16.8188C249.05 17.1004 249.128 17.3968 249.155 17.7081C249.19 18.1128 249.135 18.562 248.99 19.0556C248.844 19.5492 248.64 20.0322 248.378 20.5046C248.127 20.9761 247.83 21.4097 247.488 21.8054C247.155 22.1898 246.815 22.4912 246.468 22.7095C246.505 22.8945 246.571 23.1659 246.665 23.5237C246.757 23.8711 246.871 24.2168 247.006 24.5606C247.15 24.9035 247.307 25.1984 247.475 25.4452C247.653 25.6911 247.846 25.805 248.053 25.787C248.157 25.7779 248.243 25.7391 248.31 25.6706C248.387 25.6011 248.453 25.5118 248.506 25.4026C248.559 25.2934 248.601 25.1747 248.632 25.0466C248.673 24.9175 248.709 24.7941 248.741 24.6764L248.815 24.4503C248.833 24.4174 248.842 24.3957 248.841 24.3854C248.851 24.3741 248.86 24.3576 248.868 24.336C248.929 24.1947 248.986 24.0643 249.038 23.9448C249.101 23.8243 249.191 23.7172 249.308 23.6233L249.293 23.6247C249.33 23.5795 249.37 23.5552 249.412 23.5516C249.463 23.5367 249.509 23.5274 249.55 23.5238C249.665 23.5139 249.792 23.5394 249.933 23.6003C250.075 23.6612 250.207 23.7438 250.331 23.848C250.455 23.9419 250.558 24.0531 250.643 24.1817C250.726 24.2999 250.773 24.4213 250.784 24.5458ZM247.105 17.949C247.096 17.8452 247.082 17.7367 247.061 17.6234C247.041 17.5102 247.007 17.4139 246.958 17.3344C246.828 17.5235 246.717 17.7475 246.624 18.0065C246.541 18.2542 246.475 18.5161 246.426 18.7922C246.376 19.058 246.336 19.328 246.308 19.6024C246.29 19.8758 246.28 20.1275 246.28 20.3577C246.521 20.0125 246.729 19.6285 246.901 19.2058C247.072 18.7726 247.141 18.3537 247.105 17.949ZM256.033 15.4635C256.044 15.588 256.006 15.6958 255.92 15.787C255.844 15.8772 255.747 15.9589 255.628 16.032C255.508 16.0947 255.381 16.1423 255.248 16.1747C255.125 16.2063 255.022 16.2257 254.939 16.2329C254.815 16.2438 254.695 16.2438 254.579 16.2329C254.462 16.2117 254.345 16.1905 254.228 16.1693C254.111 16.1481 254 16.1316 253.894 16.1199C253.788 16.0978 253.678 16.0917 253.563 16.1016C253.408 16.1151 253.254 16.1546 253.103 16.22C252.952 16.2854 252.818 16.3702 252.702 16.4745C252.585 16.5787 252.492 16.7019 252.42 16.844C252.359 16.9852 252.336 17.1388 252.351 17.3049C252.372 17.5539 252.446 17.7985 252.571 18.0385C252.696 18.2682 252.852 18.5003 253.039 18.735C253.238 18.9687 253.457 19.2058 253.697 19.4463C253.947 19.6755 254.208 19.909 254.48 20.1468C254.809 20.4527 255.14 20.7639 255.47 21.0802C255.811 21.3956 256.118 21.7297 256.389 22.0825C256.67 22.4345 256.907 22.8112 257.099 23.2128C257.29 23.6144 257.406 24.0435 257.446 24.5001C257.48 24.8944 257.443 25.2531 257.335 25.5762C257.238 25.8983 257.079 26.1787 256.86 26.4174C256.65 26.6552 256.385 26.8456 256.062 26.9886C255.751 27.1411 255.404 27.234 255.02 27.2674C254.916 27.2764 254.754 27.2696 254.532 27.2471C254.321 27.2236 254.077 27.1873 253.801 27.1381C253.524 27.0785 253.236 27.0146 252.938 26.9465C252.649 26.8775 252.381 26.8014 252.134 26.7184C251.895 26.6241 251.694 26.5318 251.529 26.4416C251.374 26.34 251.292 26.2426 251.284 26.1492C251.273 26.0246 251.32 25.8952 251.423 25.7607C251.525 25.6159 251.65 25.4848 251.797 25.3675C251.942 25.2398 252.095 25.1324 252.255 25.0454C252.425 24.9574 252.567 24.9084 252.681 24.8985C252.837 24.885 253.001 24.9073 253.173 24.9655C253.356 25.0228 253.54 25.0905 253.724 25.1686C253.93 25.2552 254.136 25.3315 254.34 25.3974C254.555 25.4624 254.771 25.4854 254.989 25.4664C255.155 25.452 255.244 25.3868 255.254 25.2709C255.276 25.154 255.28 25.0229 255.267 24.8776C255.236 24.5144 255.144 24.1774 254.991 23.8665C254.838 23.5452 254.649 23.2375 254.425 22.9433C254.2 22.6491 253.946 22.368 253.661 22.1C253.376 21.8216 253.091 21.5484 252.806 21.2804C252.511 21.0133 252.221 20.7457 251.936 20.4777C251.662 20.2087 251.413 19.9324 251.19 19.6486C250.966 19.3544 250.777 19.0518 250.625 18.741C250.483 18.4292 250.396 18.0917 250.364 17.7285C250.325 17.2822 250.389 16.8741 250.556 16.5042C250.721 16.1238 250.948 15.7904 251.237 15.5039C251.536 15.2165 251.877 14.9882 252.26 14.819C252.652 14.6385 253.05 14.5307 253.455 14.4955C253.59 14.4838 253.8 14.4969 254.086 14.5348C254.371 14.5624 254.652 14.6163 254.931 14.6966C255.21 14.7769 255.46 14.8807 255.68 15.008C255.9 15.1352 256.018 15.287 256.033 15.4635ZM264.642 19.7811C264.721 20.6839 264.721 21.5935 264.644 22.5099C264.577 23.415 264.344 24.2874 263.946 25.127C263.822 25.3783 263.676 25.6263 263.509 25.8708C263.341 26.105 263.151 26.3202 262.938 26.5164C262.736 26.7222 262.505 26.8887 262.244 27.0159C261.995 27.1526 261.725 27.2336 261.434 27.2588C260.977 27.2985 260.568 27.2243 260.207 27.0361C259.857 26.8574 259.542 26.6077 259.264 26.2869C258.994 25.9548 258.758 25.578 258.554 25.1566C258.359 24.7239 258.196 24.2833 258.062 23.8348C257.939 23.375 257.837 22.929 257.758 22.4968C257.689 22.0636 257.64 21.681 257.611 21.3489C257.579 20.9753 257.559 20.5641 257.551 20.1151C257.543 19.6662 257.555 19.2051 257.588 18.7318C257.63 18.2576 257.694 17.7867 257.778 17.3193C257.874 16.851 258.008 16.4106 258.181 15.9982C258.354 15.5754 258.571 15.1958 258.835 14.8592C259.098 14.5122 259.413 14.2287 259.78 14.0085L259.782 14.0241C260.099 13.8188 260.423 13.7017 260.755 13.6728C260.963 13.6548 261.128 13.6875 261.25 13.771C261.371 13.8441 261.436 13.9849 261.443 14.1933C262.023 14.2475 262.509 14.4824 262.9 14.8979C263.292 15.3135 263.607 15.8089 263.845 16.3842C264.094 16.9586 264.276 17.5544 264.393 18.1716C264.519 18.788 264.603 19.3245 264.642 19.7811ZM260.786 16.1953C260.61 16.2106 260.438 16.1576 260.27 16.0362C260.099 16.3543 259.964 16.7164 259.863 17.1224C259.761 17.5181 259.687 17.9271 259.64 18.3495C259.603 18.7605 259.587 19.1749 259.591 19.5927C259.596 20.0105 259.615 20.401 259.646 20.7643C259.672 21.0652 259.722 21.453 259.794 21.9277C259.866 22.3919 259.964 22.8592 260.089 23.3293C260.224 23.7986 260.387 24.234 260.579 24.6355C260.781 25.0362 261.02 25.3239 261.297 25.4985C261.602 25.2837 261.841 24.965 262.014 24.5422C262.195 24.1082 262.327 23.6419 262.409 23.1433C262.492 22.6447 262.532 22.1446 262.53 21.6428C262.539 21.1402 262.528 20.7125 262.497 20.3596C262.474 20.1002 262.429 19.7643 262.362 19.3519C262.295 18.9395 262.207 18.5237 262.097 18.1045C261.986 17.675 261.848 17.2793 261.68 16.9174C261.523 16.5547 261.338 16.2885 261.125 16.1188C261.034 16.158 260.921 16.1835 260.786 16.1953ZM268.895 25.7634C268.916 26.0021 268.857 26.1641 268.718 26.2493C268.589 26.3337 268.426 26.3845 268.229 26.4016C268.053 26.4169 267.875 26.4167 267.696 26.4009C267.528 26.3946 267.363 26.3619 267.201 26.3027C267.049 26.2427 266.911 26.1554 266.786 26.0408C266.672 25.9253 266.585 25.7708 266.526 25.5772C266.327 24.9672 266.191 24.3673 266.119 23.7776C266.046 23.1775 265.982 22.5609 265.927 21.9279L265.76 20.0132C265.685 19.1415 265.642 18.2355 265.634 17.2952C265.625 16.3446 265.623 15.4298 265.631 14.5508C265.628 14.5197 265.63 14.4829 265.637 14.4405C265.644 14.3981 265.646 14.3665 265.644 14.3458C265.645 14.2307 265.649 14.1048 265.658 13.9681C265.667 13.8314 265.688 13.7094 265.721 13.602C265.763 13.4833 265.822 13.3841 265.899 13.3042C265.986 13.2234 266.102 13.1767 266.247 13.1641C266.413 13.1497 266.572 13.1725 266.724 13.2325C266.885 13.2812 267.027 13.3577 267.151 13.4619C267.275 13.5558 267.374 13.6778 267.45 13.8281C267.536 13.9774 267.586 14.1351 267.601 14.3012C267.619 14.5087 267.627 14.7276 267.627 14.9577C267.635 15.1765 267.638 15.3906 267.635 15.5999C267.627 15.747 267.621 15.8574 267.617 15.9309C267.623 16.0035 267.629 16.1233 267.633 16.2903C267.738 16.0615 267.859 15.8314 267.996 15.6C268.142 15.3572 268.307 15.1443 268.489 14.9611C268.671 14.7675 268.872 14.6089 269.091 14.4853C269.32 14.3504 269.569 14.2712 269.839 14.2478C270.109 14.2243 270.336 14.2516 270.521 14.3297C270.704 14.3974 270.855 14.5046 270.972 14.6512C271.088 14.7875 271.176 14.9576 271.236 15.1615C271.295 15.3655 271.335 15.5816 271.355 15.8099C271.368 15.9552 271.375 16.0957 271.376 16.2315C271.388 16.3664 271.394 16.5018 271.396 16.6376C271.397 16.7734 271.398 16.9092 271.4 17.045C271.41 17.1696 271.422 17.3045 271.435 17.4498C271.458 17.7196 271.486 17.9786 271.518 18.2267C271.559 18.4636 271.602 18.7161 271.647 18.9841C271.721 18.6326 271.811 18.2326 271.919 17.7841C272.036 17.3347 272.174 16.8732 272.332 16.3994C272.499 15.9248 272.684 15.4591 272.885 15.0025C273.095 14.5347 273.325 14.1173 273.576 13.7505C273.836 13.3828 274.124 13.0807 274.438 12.8443C274.751 12.5975 275.089 12.4583 275.452 12.4268C276.023 12.3771 276.437 12.5085 276.694 12.8207C276.962 13.132 277.118 13.5471 277.163 14.066C277.176 14.2113 277.184 14.3674 277.188 14.5344C277.191 14.6909 277.189 14.8428 277.181 14.9898C277.178 15.5547 277.186 16.1343 277.206 16.7285C277.237 17.3219 277.277 17.8987 277.326 18.4591L277.351 18.7549C277.414 19.4813 277.505 20.1635 277.623 20.8015C277.741 21.4395 277.925 22.1084 278.174 22.8082L278.335 23.2177C278.389 23.3593 278.45 23.5161 278.517 23.6881C278.595 23.8591 278.662 24.0258 278.717 24.1882C278.773 24.3506 278.823 24.5031 278.867 24.6457C278.911 24.7883 278.936 24.9011 278.943 24.9841C278.962 25.2021 278.897 25.3541 278.748 25.4403C278.599 25.5265 278.441 25.5768 278.275 25.5912C278.171 25.6002 278.051 25.6054 277.915 25.6067C277.781 25.6185 277.644 25.6146 277.507 25.5952C277.38 25.5853 277.253 25.5598 277.124 25.5187C277.005 25.4768 276.906 25.4174 276.826 25.3407L276.827 25.3563C276.726 25.271 276.648 25.1627 276.595 25.0314C276.542 24.9001 276.499 24.7679 276.466 24.6348L276.423 24.4974C276.229 23.9497 276.061 23.4572 275.918 23.02C275.786 22.5818 275.67 22.1424 275.568 21.7015C275.467 21.2607 275.381 20.803 275.308 20.3283C275.246 19.8528 275.188 19.3037 275.133 18.681C275.087 18.1517 275.061 17.6103 275.055 17.0567C275.059 16.5022 275.064 15.958 275.07 15.4243C275.065 15.3724 275.06 15.3153 275.055 15.253C275.059 15.1795 275.064 15.1163 275.07 15.0635C274.729 15.7101 274.44 16.4148 274.203 17.1778C273.975 17.9295 273.776 18.6997 273.604 19.4884C273.442 20.2761 273.307 21.0669 273.198 21.8605C273.099 22.6429 273.012 23.3876 272.938 24.0946C272.939 24.105 272.965 24.1654 273.016 24.276C273.077 24.3752 273.135 24.4957 273.189 24.6374C273.252 24.7678 273.311 24.8986 273.364 25.0299C273.416 25.1509 273.444 25.2321 273.448 25.2736C273.469 25.5123 273.403 25.6643 273.252 25.7297C273.101 25.7952 272.943 25.8351 272.777 25.8495C272.652 25.8603 272.517 25.8669 272.37 25.8691C272.224 25.8714 272.077 25.8581 271.928 25.8292C271.789 25.7994 271.655 25.7536 271.524 25.6918C271.404 25.6394 271.303 25.5541 271.219 25.4359C271.148 25.3376 271.054 25.1 270.938 24.7233C270.82 24.3361 270.693 23.8872 270.554 23.3764C270.415 22.8553 270.277 22.2974 270.142 21.7027C270.007 21.108 269.879 20.544 269.76 20.0107C269.64 19.4774 269.542 19.0102 269.465 18.609C269.389 18.2079 269.344 17.9347 269.331 17.7894L269.311 17.5559C269.041 18.3009 268.833 19.0927 268.686 19.9315C268.54 20.7702 268.443 21.5889 268.398 22.3875L268.36 22.6731C268.346 22.758 268.338 22.8423 268.335 22.9263C268.331 22.9998 268.332 23.0729 268.338 23.1455C268.348 23.2597 268.371 23.3989 268.406 23.5631C268.451 23.7265 268.504 23.9049 268.562 24.0985C268.638 24.3638 268.703 24.6404 268.76 24.9282C268.826 25.2048 268.871 25.4832 268.895 25.7634ZM285.715 21.5097C285.742 21.8211 285.682 22.1504 285.534 22.4978C285.397 22.8444 285.206 23.1694 284.96 23.4731C284.714 23.7663 284.422 24.0165 284.084 24.2236C283.757 24.4298 283.423 24.5478 283.08 24.5775C282.592 24.6199 282.164 24.5631 281.795 24.4069C281.425 24.2404 281.096 24.0076 280.809 23.7084C280.52 23.3989 280.275 23.0438 280.073 22.6431C279.881 22.2416 279.72 21.8269 279.589 21.3992C279.456 20.9611 279.351 20.5259 279.271 20.0936C279.201 19.6501 279.151 19.2467 279.119 18.8835C279.092 18.5722 279.076 18.2024 279.07 17.7742C279.074 17.3452 279.098 16.8987 279.141 16.4349C279.195 15.9701 279.28 15.5079 279.397 15.0481C279.514 14.5884 279.671 14.1721 279.869 13.7995C280.077 13.4259 280.333 13.1161 280.635 12.8703C280.948 12.6235 281.318 12.4816 281.743 12.4446C282.075 12.4157 282.377 12.4575 282.648 12.5698C282.93 12.6813 283.169 12.8435 283.365 13.0565C283.571 13.2582 283.733 13.5002 283.851 13.7827C283.98 14.0643 284.058 14.3607 284.085 14.672C284.121 15.0767 284.066 15.5259 283.92 16.0195C283.775 16.5131 283.571 16.9961 283.309 17.4685C283.057 17.94 282.76 18.3736 282.418 18.7693C282.086 19.1537 281.746 19.4551 281.399 19.6734C281.436 19.8584 281.502 20.1298 281.595 20.4876C281.688 20.835 281.802 21.1807 281.936 21.5245C282.081 21.8674 282.238 22.1622 282.405 22.4091C282.584 22.655 282.776 22.7689 282.984 22.7509C283.088 22.7418 283.173 22.703 283.241 22.6345C283.318 22.565 283.384 22.4756 283.437 22.3665C283.49 22.2573 283.532 22.1386 283.563 22.0105C283.604 21.8814 283.64 21.758 283.672 21.6403L283.746 21.4142C283.764 21.3813 283.773 21.3596 283.772 21.3493C283.781 21.338 283.79 21.3215 283.799 21.2998C283.86 21.1586 283.917 21.0282 283.969 20.9087C284.032 20.7882 284.122 20.681 284.239 20.5872L284.223 20.5886C284.261 20.5434 284.301 20.5191 284.342 20.5155C284.393 20.5006 284.44 20.4913 284.481 20.4877C284.595 20.4778 284.723 20.5033 284.864 20.5642C285.005 20.6251 285.138 20.7077 285.262 20.8119C285.385 20.9058 285.489 21.017 285.574 21.1456C285.657 21.2638 285.704 21.3852 285.715 21.5097ZM282.036 14.9129C282.027 14.8091 282.012 14.7006 281.992 14.5873C281.972 14.4741 281.937 14.3778 281.889 14.2983C281.759 14.4874 281.647 14.7114 281.555 14.9704C281.472 15.2181 281.406 15.48 281.357 15.7561C281.307 16.0219 281.267 16.2919 281.239 16.5663C281.221 16.8397 281.211 17.0914 281.21 17.3216C281.452 16.9764 281.659 16.5924 281.832 16.1697C282.003 15.7365 282.071 15.3176 282.036 14.9129ZM221.053 55.4708C221.067 55.6264 221.055 55.7844 221.016 55.9445C220.987 56.0934 220.953 56.2428 220.914 56.3926C220.737 57.0039 220.505 57.5783 220.217 58.1157C219.928 58.6426 219.581 59.1067 219.177 59.5078C218.773 59.9089 218.305 60.2371 217.773 60.4925C217.241 60.7478 216.643 60.9044 215.979 60.9621C215.097 61.0388 214.323 60.9178 213.657 60.5992C212.992 60.2807 212.41 59.845 211.913 59.2923C211.414 58.7292 210.987 58.0918 210.633 57.3803C210.289 56.6678 210.001 55.9504 209.771 55.2281C209.429 54.1808 209.144 53.1286 208.917 52.0715C208.688 51.0039 208.527 49.9305 208.433 48.8513C208.378 48.2182 208.347 47.5622 208.34 46.8831C208.344 46.2032 208.39 45.53 208.478 44.8636C208.566 44.1868 208.708 43.5314 208.903 42.8975C209.098 42.2532 209.36 41.6554 209.689 41.104C210.016 40.5423 210.417 40.037 210.89 39.5881C211.374 39.1382 211.948 38.7694 212.613 38.4816C212.854 38.3665 213.108 38.2817 213.375 38.2271C213.641 38.1622 213.909 38.118 214.179 38.0945C214.719 38.0476 215.24 38.0912 215.743 38.2252C216.246 38.3592 216.693 38.5713 217.085 38.8614C217.486 39.1507 217.811 39.5146 218.058 39.9531C218.315 40.3908 218.469 40.8898 218.517 41.4502C218.534 41.637 218.504 41.7807 218.429 41.8813C218.354 41.982 218.213 42.0413 218.006 42.0593C217.622 42.0927 217.315 42.0566 217.087 41.951C216.868 41.8445 216.683 41.7037 216.532 41.5287C216.381 41.3536 216.249 41.1611 216.137 40.9513C216.035 40.7406 215.914 40.5473 215.773 40.3713C215.632 40.1953 215.453 40.0541 215.234 39.9476C215.016 39.8411 214.725 39.8037 214.362 39.8352C213.999 39.8668 213.663 39.9692 213.353 40.1425C213.054 40.3044 212.779 40.5113 212.529 40.763C212.29 41.0139 212.073 41.2941 211.881 41.6036C211.698 41.9018 211.536 42.2035 211.395 42.5085C211.029 43.3558 210.798 44.2489 210.702 45.1879C210.605 46.1164 210.597 47.0425 210.677 47.9661C210.704 48.2774 210.75 48.6812 210.814 49.1776C210.887 49.6626 210.976 50.1986 211.079 50.7856C211.193 51.3717 211.33 51.9924 211.492 52.6475C211.652 53.2923 211.833 53.9249 212.033 54.5453C212.244 55.1648 212.478 55.7561 212.736 56.3192C213.005 56.8814 213.293 57.3687 213.6 57.7811C213.919 58.1926 214.26 58.5132 214.625 58.7428C215.001 58.9716 215.406 59.0671 215.842 59.0292C216.288 58.9904 216.673 58.842 216.995 58.5839C217.317 58.3154 217.582 57.9944 217.79 57.6208C218.007 57.236 218.176 56.8292 218.295 56.4006C218.425 55.9607 218.52 55.5551 218.582 55.1837C218.604 55.0772 218.622 54.9816 218.635 54.8968C218.659 54.811 218.689 54.7352 218.725 54.6694C218.772 54.6026 218.83 54.5505 218.9 54.513C218.97 54.4756 219.072 54.451 219.207 54.4393C219.352 54.4267 219.526 54.4429 219.729 54.488C219.941 54.5219 220.14 54.583 220.325 54.6715C220.521 54.759 220.688 54.87 220.825 55.0045C220.962 55.1389 221.038 55.2944 221.053 55.4708ZM228.324 53.0509C228.403 53.9537 228.403 54.8633 228.326 55.7797C228.259 56.6848 228.026 57.5572 227.628 58.3968C227.504 58.6481 227.358 58.8961 227.191 59.1406C227.023 59.3748 226.833 59.59 226.62 59.7862C226.418 59.992 226.187 60.1585 225.926 60.2857C225.677 60.4224 225.407 60.5034 225.116 60.5286C224.659 60.5683 224.25 60.4941 223.889 60.3059C223.539 60.1272 223.224 59.8775 222.946 59.5567C222.676 59.2246 222.44 58.8478 222.236 58.4264C222.041 57.9937 221.877 57.5531 221.744 57.1046C221.621 56.6448 221.519 56.1988 221.44 55.7666C221.371 55.3334 221.322 54.9508 221.293 54.6187C221.261 54.2451 221.241 53.8339 221.233 53.3849C221.225 52.936 221.237 52.4749 221.269 52.0015C221.312 51.5273 221.376 51.0565 221.46 50.5891C221.556 50.1207 221.69 49.6804 221.863 49.268C222.035 48.8452 222.253 48.4656 222.517 48.129C222.78 47.782 223.095 47.4985 223.462 47.2783L223.464 47.2939C223.781 47.0886 224.105 46.9715 224.437 46.9426C224.645 46.9246 224.81 46.9573 224.932 47.0408C225.053 47.1139 225.118 47.2547 225.125 47.4631C225.705 47.5173 226.191 47.7521 226.582 48.1677C226.974 48.5833 227.289 49.0787 227.527 49.654C227.776 50.2284 227.958 50.8242 228.075 51.4414C228.201 52.0578 228.285 52.5942 228.324 53.0509ZM224.468 49.465C224.292 49.4804 224.12 49.4274 223.952 49.306C223.781 49.6241 223.646 49.9861 223.545 50.3922C223.443 50.7879 223.369 51.1969 223.322 51.6192C223.285 52.0303 223.268 52.4447 223.273 52.8625C223.278 53.2803 223.297 53.6708 223.328 54.034C223.354 54.335 223.404 54.7228 223.476 55.1975C223.548 55.6617 223.646 56.129 223.771 56.5991C223.906 57.0684 224.069 57.5038 224.261 57.9053C224.463 58.306 224.702 58.5937 224.979 58.7683C225.284 58.5535 225.523 58.2348 225.695 57.812C225.877 57.378 226.009 56.9116 226.091 56.4131C226.174 55.9145 226.214 55.4144 226.212 54.9126C226.221 54.41 226.21 53.9823 226.179 53.6294C226.156 53.37 226.111 53.0341 226.044 52.6217C225.977 52.2093 225.889 51.7935 225.779 51.3743C225.668 50.9448 225.529 50.5491 225.362 50.1872C225.205 49.8245 225.02 49.5582 224.806 49.3886C224.716 49.4278 224.603 49.4533 224.468 49.465ZM234.778 47.5494C234.903 48.9815 234.911 50.4028 234.804 51.8132C234.707 53.2228 234.563 54.6312 234.371 56.0385C234.342 56.177 234.326 56.2934 234.323 56.3877C234.287 56.694 234.247 57.0112 234.202 57.3392C234.167 57.656 234.09 57.9763 233.972 58.3003C233.86 58.5714 233.693 58.816 233.471 59.0339C233.259 59.2405 233.013 59.356 232.733 59.3804C232.619 59.3903 232.497 59.3747 232.368 59.3337C232.239 59.2926 232.098 59.2369 231.946 59.1665C231.725 59.0393 231.553 58.8556 231.427 58.6156C231.301 58.3652 231.19 58.1082 231.094 57.8447L231.053 57.7384L231.054 57.754C230.819 57.0948 230.61 56.4333 230.427 55.7696C230.254 55.105 230.081 54.4352 229.907 53.7602C229.808 53.3401 229.709 52.9252 229.611 52.5156C229.512 52.0955 229.403 51.6815 229.283 51.2736L228.986 50.3742C228.916 50.1711 228.839 49.953 228.756 49.7197C228.683 49.4751 228.611 49.2462 228.54 49.0327C228.469 48.8193 228.411 48.6309 228.365 48.4676C228.319 48.2939 228.293 48.1759 228.287 48.1136C228.27 47.9165 228.321 47.7813 228.44 47.7082C228.569 47.6239 228.716 47.5745 228.882 47.56C229.214 47.5312 229.511 47.5786 229.773 47.7022C230.045 47.8249 230.252 48.0474 230.395 48.3695C230.473 48.5406 230.541 48.7228 230.6 48.9164C230.669 49.1091 230.728 49.3026 230.776 49.4971C231.012 50.1667 231.241 50.8787 231.463 51.6331C231.695 52.3762 231.899 53.0957 232.074 53.7914L232.284 54.5731C232.298 54.6241 232.307 54.6652 232.31 54.6963C232.313 54.7274 232.315 54.7534 232.317 54.7741C232.329 54.794 232.336 54.8195 232.339 54.8506C232.352 54.8808 232.367 54.9266 232.382 54.988C232.515 53.8681 232.611 52.7514 232.671 51.6379C232.731 50.5139 232.711 49.3916 232.614 48.2708C232.594 48.0425 232.559 47.8208 232.509 47.6055C232.469 47.3894 232.424 47.1634 232.372 46.9274C232.322 46.7122 232.271 46.4917 232.22 46.2661C232.179 46.0293 232.148 45.7915 232.127 45.5528C232.108 45.3349 232.162 45.1785 232.29 45.0838C232.418 44.989 232.58 44.9331 232.777 44.916C233.016 44.8952 233.235 44.8918 233.435 44.9058C233.635 44.9198 233.812 44.9672 233.965 45.048C234.118 45.1184 234.248 45.2325 234.356 45.3905C234.462 45.538 234.543 45.7401 234.596 45.9969C234.638 46.2337 234.671 46.4923 234.695 46.7725C234.729 47.0414 234.757 47.3004 234.778 47.5494ZM242.735 55.3586C242.762 55.6699 242.701 55.9993 242.554 56.3467C242.417 56.6932 242.225 57.0183 241.98 57.3219C241.733 57.6152 241.442 57.8654 241.104 58.0725C240.777 58.2787 240.442 58.3966 240.1 58.4264C239.612 58.4688 239.183 58.4119 238.814 58.2558C238.444 58.0893 238.116 57.8565 237.828 57.5573C237.54 57.2478 237.295 56.8927 237.093 56.492C236.901 56.0904 236.739 55.6758 236.608 55.248C236.476 54.8099 236.37 54.3747 236.291 53.9425C236.221 53.499 236.17 53.0956 236.139 52.7324C236.112 52.4211 236.095 52.0513 236.089 51.6231C236.094 51.194 236.118 50.7476 236.161 50.2837C236.215 49.819 236.3 49.3568 236.417 48.897C236.534 48.4372 236.691 48.021 236.889 47.6483C237.097 47.2748 237.352 46.965 237.655 46.7191C237.968 46.4723 238.337 46.3304 238.763 46.2935C239.095 46.2646 239.396 46.3063 239.668 46.4187C239.949 46.5302 240.188 46.6924 240.384 46.9053C240.59 47.107 240.752 47.3491 240.871 47.6316C241 47.9131 241.078 48.2096 241.105 48.5209C241.14 48.9256 241.085 49.3748 240.94 49.8684C240.795 50.362 240.591 50.845 240.329 51.3174C240.077 51.7889 239.78 52.2224 239.438 52.6181C239.105 53.0025 238.766 53.3039 238.419 53.5223C238.456 53.7073 238.521 53.9787 238.615 54.3365C238.708 54.6839 238.822 55.0295 238.956 55.3733C239.101 55.7163 239.257 56.0111 239.425 56.2579C239.603 56.5038 239.796 56.6178 240.004 56.5997C240.107 56.5907 240.193 56.5519 240.26 56.4833C240.338 56.4139 240.403 56.3245 240.456 56.2153C240.51 56.1061 240.552 55.9875 240.582 55.8593C240.623 55.7303 240.66 55.6069 240.691 55.4891L240.766 55.2631C240.784 55.2302 240.792 55.2085 240.791 55.1981C240.801 55.1868 240.81 55.1704 240.819 55.1487C240.879 55.0075 240.936 54.8771 240.988 54.7575C241.051 54.6371 241.141 54.5299 241.258 54.4361L241.243 54.4374C241.281 54.3923 241.321 54.3679 241.362 54.3643C241.413 54.3494 241.459 54.3402 241.501 54.3366C241.615 54.3267 241.743 54.3522 241.884 54.4131C242.025 54.474 242.158 54.5566 242.282 54.6608C242.405 54.7547 242.509 54.8659 242.593 54.9945C242.677 55.1127 242.724 55.2341 242.735 55.3586ZM239.056 48.7617C239.047 48.658 239.032 48.5495 239.012 48.4362C238.991 48.323 238.957 48.2266 238.908 48.1472C238.778 48.3363 238.667 48.5603 238.575 48.8193C238.491 49.067 238.425 49.3289 238.376 49.605C238.326 49.8708 238.287 50.1408 238.258 50.4151C238.24 50.6885 238.231 50.9403 238.23 51.1704C238.472 50.8253 238.679 50.4413 238.851 50.0185C239.023 49.5854 239.091 49.1665 239.056 48.7617ZM245.183 58.2669C245.027 58.2804 244.854 58.2745 244.664 58.2493C244.484 58.2231 244.307 58.1705 244.133 58.0915C243.969 58.0117 243.824 57.9092 243.698 57.7843C243.582 57.648 243.515 57.4813 243.498 57.2841C243.473 56.9935 243.458 56.7072 243.455 56.4253C243.46 56.132 243.467 55.8439 243.474 55.561L243.475 55.5766L243.478 54.5255C243.476 54.1492 243.467 53.737 243.449 53.289C243.431 52.8409 243.407 52.3882 243.378 51.9307C243.358 51.4619 243.334 51.0039 243.305 50.5568C243.277 50.1096 243.246 49.6993 243.214 49.3257C243.195 49.1077 243.171 48.8903 243.142 48.6732C243.122 48.4449 243.102 48.2166 243.082 47.9883C243.054 47.7921 243.03 47.5746 243.01 47.3359C242.988 47.0868 242.968 46.8585 242.95 46.651C242.931 46.433 242.942 46.2544 242.982 46.115C243.032 45.9643 243.191 45.8772 243.461 45.8537C243.7 45.833 243.954 45.8736 244.225 45.9756C244.505 46.0767 244.707 46.2368 244.831 46.4561L244.815 46.4575C244.877 46.5671 244.93 46.7508 244.973 47.0084C245.026 47.2548 245.066 47.4761 245.093 47.6723C245.246 47.3872 245.419 47.0847 245.611 46.7648C245.813 46.444 246.033 46.1478 246.27 45.8762C246.507 45.5942 246.764 45.3575 247.04 45.1662C247.316 44.9749 247.62 44.8649 247.952 44.836C248.388 44.7981 248.73 44.8782 248.977 45.0763C249.224 45.2744 249.414 45.535 249.547 45.858C249.679 46.1707 249.766 46.5134 249.809 46.8861C249.851 47.2484 249.885 47.58 249.911 47.881L249.922 48.0055C249.933 48.13 249.938 48.255 249.939 48.3805C249.949 48.4946 249.937 48.6054 249.905 48.7128C249.882 48.8089 249.826 48.8921 249.738 48.9625C249.661 49.032 249.544 49.0735 249.388 49.087C249.222 49.1014 249.044 49.096 248.854 49.0707C248.662 49.0351 248.48 48.9778 248.305 48.8988C248.142 48.8189 247.997 48.7165 247.871 48.5915C247.744 48.4562 247.667 48.2955 247.641 48.1096C247.634 48.0266 247.626 47.9436 247.619 47.8606C247.612 47.7776 247.61 47.6941 247.613 47.6102C247.609 47.5583 247.603 47.496 247.597 47.4234C247.6 47.3395 247.599 47.2612 247.592 47.1885C247.289 47.5495 247.029 47.9851 246.812 48.4954C246.605 49.0048 246.422 49.5435 246.262 50.1115C246.113 50.6787 245.99 51.2488 245.893 51.8218C245.796 52.3844 245.715 52.8934 245.65 53.3486L245.654 53.3953C245.65 53.7197 245.657 54.0381 245.674 54.3503C245.691 54.6625 245.708 54.9851 245.727 55.3181C245.749 55.6926 245.766 56.0727 245.779 56.4585C245.802 56.8434 245.808 57.2192 245.798 57.586C245.795 57.785 245.745 57.9409 245.651 58.0537C245.567 58.176 245.411 58.247 245.183 58.2669ZM265.371 53.9714C265.392 54.21 265.282 54.4496 265.042 54.6901C264.812 54.9297 264.502 55.1605 264.114 55.3824C263.735 55.5931 263.308 55.7975 262.834 55.9956C262.369 56.1823 261.908 56.3479 261.45 56.4923C261.002 56.6357 260.589 56.7501 260.209 56.8354C259.831 56.931 259.548 56.9869 259.361 57.0032C259.008 57.0338 258.678 57.0207 258.37 56.9639C258.072 56.9061 257.807 56.8037 257.575 56.6566C257.341 56.4991 257.151 56.2909 257.003 56.0319C256.865 55.772 256.78 55.4501 256.746 55.0661C256.505 52.2953 256.276 49.534 256.058 46.7821C255.839 44.0302 255.609 41.2585 255.366 38.467C255.328 38.0311 255.28 37.6014 255.223 37.1777C255.165 36.754 255.117 36.3242 255.079 35.8884C255.07 35.7846 255.065 35.6648 255.064 35.529C255.062 35.3828 255.076 35.2508 255.108 35.1331C255.138 35.0049 255.192 34.8958 255.268 34.8055C255.343 34.7153 255.454 34.6639 255.599 34.6512C255.744 34.6386 255.897 34.6463 256.056 34.6743C256.226 34.7013 256.382 34.7505 256.524 34.8218C256.676 34.8922 256.81 34.9852 256.924 35.1007C257.048 35.2049 257.143 35.3326 257.209 35.4837C257.277 35.666 257.315 35.8666 257.324 36.0854C257.342 36.293 257.36 36.5057 257.379 36.7236C257.671 39.4796 257.945 42.2161 258.202 44.9332C258.47 47.6494 258.724 50.3877 258.963 53.1481C258.991 53.4595 259.018 53.7708 259.045 54.0821C259.082 54.3925 259.13 54.7021 259.188 55.0107C259.467 54.976 259.806 54.8995 260.203 54.7813C260.601 54.6631 260.996 54.5241 261.39 54.3644C261.794 54.1934 262.17 54.0091 262.519 53.8115C262.867 53.6139 263.137 53.4127 263.329 53.2079C263.414 53.1063 263.505 53.0044 263.6 52.902C263.695 52.7892 263.82 52.726 263.976 52.7125C264.111 52.7007 264.255 52.7353 264.408 52.816C264.572 52.8959 264.723 53.0031 264.86 53.1375C264.996 53.2616 265.112 53.3979 265.209 53.5463C265.305 53.6948 265.36 53.8365 265.371 53.9714ZM271.563 52.8529C271.59 53.1642 271.53 53.4936 271.383 53.841C271.245 54.1875 271.054 54.5126 270.809 54.8162C270.562 55.1095 270.27 55.3597 269.933 55.5667C269.606 55.7729 269.271 55.8909 268.928 55.9207C268.441 55.9631 268.012 55.9062 267.643 55.7501C267.273 55.5836 266.945 55.3507 266.657 55.0516C266.369 54.742 266.124 54.3869 265.922 53.9863C265.73 53.5847 265.568 53.17 265.437 52.7423C265.305 52.3042 265.199 51.869 265.12 51.4368C265.05 50.9932 264.999 50.5899 264.967 50.2266C264.94 49.9153 264.924 49.5456 264.918 49.1174C264.923 48.6883 264.947 48.2418 264.99 47.778C265.044 47.3133 265.129 46.851 265.246 46.3913C265.363 45.9315 265.52 45.5153 265.717 45.1426C265.926 44.769 266.181 44.4593 266.484 44.2134C266.797 43.9666 267.166 43.8247 267.592 43.7877C267.924 43.7589 268.225 43.8006 268.496 43.913C268.778 44.0244 269.017 44.1866 269.213 44.3996C269.419 44.6013 269.581 44.8434 269.7 45.1258C269.829 45.4074 269.907 45.7038 269.934 46.0152C269.969 46.4199 269.914 46.869 269.769 47.3626C269.623 47.8562 269.42 48.3392 269.157 48.8116C268.906 49.2831 268.609 49.7167 268.267 50.1124C267.934 50.4968 267.594 50.7982 267.247 51.0166C267.284 51.2015 267.35 51.4729 267.444 51.8307C267.537 52.1782 267.65 52.5238 267.785 52.8676C267.93 53.2105 268.086 53.5054 268.254 53.7522C268.432 53.9981 268.625 54.112 268.832 54.094C268.936 54.085 269.022 54.0462 269.089 53.9776C269.167 53.9081 269.232 53.8188 269.285 53.7096C269.338 53.6004 269.38 53.4817 269.411 53.3536C269.452 53.2246 269.489 53.1012 269.52 52.9834L269.595 52.7574C269.613 52.7244 269.621 52.7028 269.62 52.6924C269.63 52.6811 269.639 52.6646 269.647 52.643C269.708 52.5018 269.765 52.3714 269.817 52.2518C269.88 52.1313 269.97 52.0242 270.087 51.9303L270.072 51.9317C270.11 51.8866 270.149 51.8622 270.191 51.8586C270.242 51.8437 270.288 51.8345 270.33 51.8309C270.444 51.8209 270.571 51.8464 270.713 51.9073C270.854 51.9683 270.987 52.0508 271.111 52.1551C271.234 52.2489 271.338 52.3601 271.422 52.4887C271.505 52.607 271.553 52.7283 271.563 52.8529ZM267.885 46.256C267.876 46.1522 267.861 46.0437 267.841 45.9305C267.82 45.8172 267.786 45.7209 267.737 45.6415C267.607 45.8305 267.496 46.0545 267.403 46.3135C267.32 46.5612 267.254 46.8231 267.205 47.0993C267.155 47.365 267.116 47.6351 267.087 47.9094C267.069 48.1828 267.06 48.4346 267.059 48.6647C267.301 48.3195 267.508 47.9356 267.68 47.5128C267.852 47.0797 267.92 46.6607 267.885 46.256ZM275.949 54.9497C275.959 55.0639 275.941 55.1647 275.897 55.2523C275.851 55.3294 275.789 55.3924 275.709 55.4411C275.64 55.4889 275.559 55.5221 275.467 55.5406C275.386 55.5685 275.304 55.5861 275.221 55.5933C275.106 55.6033 274.97 55.5994 274.812 55.5818C274.665 55.5737 274.516 55.55 274.367 55.5107C274.217 55.4715 274.076 55.4209 273.946 55.3591C273.824 55.286 273.727 55.1951 273.655 55.0864C273.584 54.988 273.51 54.801 273.434 54.5253C273.367 54.2383 273.302 53.9094 273.238 53.5385C273.174 53.1573 273.113 52.7548 273.055 52.3311C272.996 51.8971 272.94 51.4838 272.885 51.0912C272.84 50.6978 272.799 50.3458 272.761 50.0354C272.733 49.7137 272.713 49.475 272.699 49.3194C272.636 48.5929 272.585 47.8916 272.548 47.2152C272.519 46.5276 272.489 45.8244 272.458 45.1056C272.406 45.1101 272.355 45.1198 272.304 45.1347C272.253 45.1496 272.202 45.1593 272.15 45.1638C272.017 45.1963 271.878 45.2241 271.734 45.2471C271.599 45.2692 271.46 45.2865 271.315 45.2992C271.138 45.3145 270.98 45.2969 270.839 45.2463C270.699 45.1958 270.62 45.0616 270.601 44.8436C270.578 44.5842 270.617 44.3717 270.718 44.2061C270.818 44.0405 270.953 43.9086 271.122 43.8102C271.291 43.7015 271.477 43.6225 271.682 43.5733C271.886 43.5138 272.086 43.4651 272.281 43.4272C272.312 43.4245 272.333 43.4227 272.343 43.4218C272.353 43.4105 272.373 43.4035 272.404 43.4008C272.404 43.2754 272.401 43.124 272.396 42.9467C272.39 42.759 272.383 42.5557 272.375 42.3369C272.355 41.9935 272.339 41.6289 272.327 41.2432C272.313 40.847 272.301 40.4716 272.291 40.117C272.281 39.752 272.279 39.4332 272.287 39.1607C272.293 38.8778 272.307 38.6779 272.329 38.561C272.369 38.4216 272.416 38.3077 272.471 38.2193C272.537 38.1299 272.663 38.0771 272.85 38.0609C273.265 38.0248 273.598 38.1318 273.85 38.3817C274.102 38.6317 274.245 38.9539 274.279 39.3482C274.319 39.8048 274.343 40.2628 274.352 40.7221C274.37 41.1805 274.39 41.6441 274.41 42.1129L274.432 42.9109C274.689 42.8572 274.944 42.7879 275.198 42.7031C275.443 42.6296 275.688 42.5612 275.933 42.4981C276.189 42.434 276.436 42.3916 276.675 42.3709C276.882 42.3528 277.048 42.3959 277.172 42.5002C277.295 42.594 277.366 42.7447 277.384 42.9523C277.404 43.1806 277.382 43.4073 277.318 43.6324C277.254 43.8576 277.123 44.0363 276.925 44.1684L276.941 44.1671C276.901 44.1915 276.779 44.2334 276.575 44.293C276.37 44.3421 276.135 44.394 275.867 44.4486C275.611 44.5023 275.354 44.556 275.097 44.6096C274.851 44.6624 274.666 44.6994 274.542 44.7206L274.527 44.722C274.556 45.3049 274.591 45.8822 274.63 46.4539C274.668 47.0152 274.713 47.5864 274.763 48.1675C274.833 48.9666 274.928 49.8158 275.048 50.715C275.177 51.603 275.334 52.4467 275.519 53.2462L275.704 53.9359C275.761 54.1087 275.812 54.282 275.859 54.4557C275.904 54.619 275.934 54.7837 275.949 54.9497ZM282.175 54.4085C282.185 54.5227 282.168 54.6235 282.123 54.7111C282.078 54.7882 282.015 54.8512 281.936 54.8999C281.867 54.9477 281.786 54.9809 281.694 54.9994C281.612 55.0273 281.53 55.0449 281.447 55.0521C281.333 55.0621 281.197 55.0582 281.038 55.0406C280.891 55.0325 280.743 55.0088 280.593 54.9695C280.443 54.9303 280.303 54.8797 280.172 54.8179C280.051 54.7448 279.954 54.6539 279.882 54.5452C279.81 54.4468 279.737 54.2598 279.66 53.9841C279.594 53.6971 279.529 53.3682 279.465 52.9973C279.4 52.6161 279.339 52.2136 279.282 51.7899C279.223 51.3559 279.166 50.9426 279.111 50.55C279.066 50.1566 279.025 49.8046 278.988 49.4942C278.96 49.1725 278.939 48.9338 278.926 48.7782C278.863 48.0517 278.812 47.3504 278.774 46.674C278.746 45.9864 278.716 45.2832 278.685 44.5644C278.633 44.569 278.582 44.5787 278.531 44.5935C278.48 44.6084 278.428 44.6181 278.376 44.6226C278.243 44.6551 278.104 44.6829 277.96 44.7059C277.826 44.728 277.686 44.7453 277.541 44.758C277.365 44.7733 277.206 44.7557 277.066 44.7052C276.926 44.6546 276.846 44.5204 276.827 44.3025C276.805 44.043 276.844 43.8305 276.944 43.6649C277.045 43.4993 277.18 43.3674 277.349 43.269C277.517 43.1603 277.704 43.0813 277.909 43.0322C278.113 42.9726 278.312 42.9239 278.508 42.886C278.539 42.8833 278.56 42.8815 278.57 42.8806C278.579 42.8693 278.6 42.8623 278.631 42.8596C278.63 42.7342 278.628 42.5828 278.623 42.4055C278.617 42.2178 278.61 42.0145 278.601 41.7957C278.582 41.4523 278.566 41.0877 278.553 40.702C278.54 40.3058 278.528 39.9304 278.518 39.5758C278.507 39.2108 278.506 38.892 278.513 38.6195C278.52 38.3366 278.534 38.1367 278.555 38.0198C278.595 37.8804 278.643 37.7665 278.698 37.6781C278.763 37.5887 278.89 37.5359 279.076 37.5197C279.491 37.4836 279.825 37.5906 280.077 37.8405C280.328 38.0905 280.471 38.4127 280.506 38.807C280.545 39.2636 280.569 39.7216 280.578 40.1809C280.597 40.6393 280.616 41.1029 280.636 41.5717L280.658 42.3697C280.915 42.316 281.171 42.2467 281.425 42.1619C281.669 42.0884 281.914 42.02 282.16 41.9569C282.415 41.8928 282.663 41.8504 282.901 41.8297C283.109 41.8116 283.275 41.8547 283.399 41.959C283.522 42.0528 283.593 42.2035 283.611 42.4111C283.631 42.6394 283.608 42.8661 283.544 43.0912C283.48 43.3164 283.349 43.4951 283.152 43.6273L283.167 43.6259C283.128 43.6503 283.006 43.6922 282.802 43.7518C282.597 43.8009 282.361 43.8528 282.094 43.9074C281.837 43.9611 281.58 44.0148 281.324 44.0685C281.077 44.1212 280.892 44.1582 280.769 44.1794L280.753 44.1808C280.783 44.7637 280.817 45.341 280.857 45.9127C280.895 46.474 280.939 47.0452 280.99 47.6263C281.059 48.4254 281.154 49.2746 281.274 50.1738C281.404 51.0618 281.561 51.9055 281.745 52.705L281.93 53.3947C281.987 53.5675 282.039 53.7408 282.085 53.9145C282.131 54.0778 282.161 54.2425 282.175 54.4085ZM290.399 51.2157C290.426 51.5271 290.365 51.8564 290.218 52.2039C290.081 52.5504 289.889 52.8755 289.644 53.1791C289.398 53.4724 289.106 53.7225 288.768 53.9296C288.441 54.1358 288.106 54.2538 287.764 54.2836C287.276 54.3259 286.848 54.2691 286.478 54.113C286.108 53.9464 285.78 53.7136 285.492 53.4145C285.204 53.1049 284.959 52.7498 284.757 52.3492C284.565 51.9476 284.404 51.5329 284.272 51.1052C284.14 50.6671 284.034 50.2319 283.955 49.7996C283.885 49.3561 283.834 48.9527 283.803 48.5895C283.776 48.2782 283.759 47.9085 283.753 47.4803C283.758 47.0512 283.782 46.6047 283.825 46.1409C283.879 45.6762 283.964 45.2139 284.081 44.7542C284.198 44.2944 284.355 43.8782 284.553 43.5055C284.761 43.1319 285.016 42.8222 285.319 42.5763C285.632 42.3295 286.001 42.1876 286.427 42.1506C286.759 42.1218 287.061 42.1635 287.332 42.2759C287.613 42.3873 287.852 42.5495 288.048 42.7625C288.254 42.9642 288.416 43.2063 288.535 43.4887C288.664 43.7703 288.742 44.0667 288.769 44.378C288.804 44.7828 288.749 45.2319 288.604 45.7255C288.459 46.2191 288.255 46.7021 287.993 47.1745C287.741 47.646 287.444 48.0796 287.102 48.4753C286.769 48.8597 286.43 49.1611 286.083 49.3794C286.12 49.5644 286.185 49.8358 286.279 50.1936C286.372 50.5411 286.486 50.8867 286.62 51.2305C286.765 51.5734 286.921 51.8683 287.089 52.1151C287.267 52.361 287.46 52.4749 287.668 52.4569C287.771 52.4479 287.857 52.4091 287.924 52.3405C288.002 52.271 288.067 52.1817 288.12 52.0725C288.174 51.9633 288.216 51.8446 288.246 51.7165C288.287 51.5875 288.324 51.4641 288.355 51.3463L288.43 51.1202C288.448 51.0873 288.456 51.0656 288.456 51.0553C288.465 51.044 288.474 51.0275 288.483 51.0059C288.543 50.8646 288.6 50.7343 288.652 50.6147C288.715 50.4942 288.805 50.3871 288.923 50.2932L288.907 50.2946C288.945 50.2495 288.985 50.2251 289.026 50.2215C289.077 50.2066 289.123 50.1973 289.165 50.1937C289.279 50.1838 289.407 50.2093 289.548 50.2702C289.689 50.3312 289.822 50.4137 289.946 50.518C290.069 50.6118 290.173 50.723 290.257 50.8516C290.341 50.9698 290.388 51.0912 290.399 51.2157ZM286.72 44.6189C286.711 44.5151 286.696 44.4066 286.676 44.2934C286.655 44.1801 286.621 44.0838 286.572 44.0044C286.442 44.1934 286.331 44.4174 286.239 44.6764C286.156 44.9241 286.089 45.186 286.04 45.4622C285.99 45.7279 285.951 45.9979 285.922 46.2723C285.904 46.5457 285.895 46.7975 285.894 47.0276C286.136 46.6824 286.343 46.2985 286.515 45.8757C286.687 45.4426 286.755 45.0236 286.72 44.6189ZM292.847 54.124C292.691 54.1376 292.518 54.1317 292.328 54.1064C292.148 54.0802 291.971 54.0277 291.797 53.9487C291.633 53.8688 291.488 53.7664 291.362 53.6414C291.246 53.5051 291.179 53.3384 291.162 53.1413C291.137 52.8507 291.122 52.5644 291.119 52.2824C291.125 51.9891 291.131 51.701 291.138 51.4181L291.139 51.4337L291.142 50.3826C291.14 50.0063 291.131 49.5942 291.113 49.1461C291.095 48.6981 291.071 48.2453 291.042 47.7878C291.022 47.319 290.998 46.8611 290.969 46.4139C290.941 45.9668 290.91 45.5564 290.878 45.1828C290.859 44.9649 290.835 44.7474 290.806 44.5304C290.786 44.3021 290.766 44.0738 290.746 43.8455C290.719 43.6492 290.694 43.4317 290.674 43.193C290.652 42.944 290.632 42.7157 290.614 42.5081C290.595 42.2902 290.606 42.1115 290.646 41.9721C290.696 41.8214 290.855 41.7343 291.125 41.7109C291.364 41.6901 291.618 41.7308 291.889 41.8327C292.169 41.9338 292.371 42.094 292.495 42.3133L292.479 42.3146C292.541 42.4243 292.594 42.6079 292.637 42.8656C292.69 43.1119 292.73 43.3332 292.757 43.5295C292.91 43.2443 293.083 42.9418 293.275 42.6219C293.477 42.3011 293.697 42.0049 293.935 41.7333C294.171 41.4513 294.428 41.2147 294.704 41.0234C294.98 40.8321 295.284 40.722 295.616 40.6932C296.052 40.6553 296.394 40.7354 296.641 40.9335C296.888 41.1315 297.078 41.3921 297.211 41.7152C297.343 42.0279 297.43 42.3705 297.473 42.7432C297.515 43.1055 297.549 43.4372 297.575 43.7381L297.586 43.8627C297.597 43.9872 297.602 44.1122 297.603 44.2376C297.613 44.3518 297.601 44.4625 297.569 44.5699C297.546 44.666 297.49 44.7493 297.402 44.8196C297.325 44.8891 297.208 44.9306 297.052 44.9442C296.886 44.9586 296.708 44.9532 296.518 44.9279C296.326 44.8922 296.144 44.8349 295.97 44.756C295.806 44.6761 295.661 44.5737 295.535 44.4487C295.408 44.3133 295.332 44.1527 295.305 43.9668C295.298 43.8838 295.291 43.8008 295.283 43.7177C295.276 43.6347 295.274 43.5512 295.277 43.4673C295.273 43.4154 295.267 43.3532 295.261 43.2805C295.264 43.1966 295.263 43.1183 295.256 43.0457C294.953 43.4066 294.693 43.8422 294.476 44.3525C294.269 44.8619 294.086 45.4007 293.926 45.9687C293.777 46.5358 293.654 47.1059 293.557 47.6789C293.46 48.2416 293.379 48.7505 293.314 49.2058L293.318 49.2525C293.314 49.5769 293.321 49.8952 293.338 50.2074C293.355 50.5197 293.372 50.8423 293.391 51.1753C293.413 51.5497 293.43 51.9299 293.443 52.3157C293.466 52.7005 293.472 53.0764 293.462 53.4432C293.459 53.6422 293.41 53.7981 293.315 53.9109C293.231 54.0331 293.075 54.1042 292.847 54.124ZM303.337 41.465C303.348 41.5895 303.31 41.6974 303.224 41.7885C303.148 41.8787 303.051 41.9604 302.932 42.0335C302.812 42.0962 302.685 42.1438 302.552 42.1763C302.429 42.2079 302.327 42.2273 302.243 42.2345C302.119 42.2453 301.999 42.2453 301.883 42.2345C301.766 42.2132 301.649 42.192 301.532 42.1708C301.415 42.1496 301.304 42.1331 301.199 42.1214C301.092 42.0993 300.982 42.0932 300.868 42.1031C300.712 42.1167 300.559 42.1561 300.407 42.2215C300.256 42.287 300.122 42.3718 300.006 42.476C299.89 42.5802 299.796 42.7034 299.724 42.8455C299.664 42.9867 299.64 43.1404 299.655 43.3064C299.676 43.5555 299.75 43.8 299.875 44.0401C300 44.2697 300.156 44.5019 300.344 44.7365C300.542 44.9702 300.761 45.2073 301.001 45.4478C301.251 45.6771 301.512 45.9106 301.784 46.1484C302.114 46.4543 302.444 46.7654 302.775 47.0817C303.116 47.3971 303.422 47.7312 303.693 48.0841C303.974 48.436 304.211 48.8128 304.403 49.2143C304.595 49.6159 304.71 50.045 304.75 50.5016C304.784 50.896 304.748 51.2547 304.64 51.5777C304.542 51.8999 304.384 52.1803 304.164 52.4189C303.954 52.6567 303.689 52.8471 303.367 52.9901C303.056 53.1426 302.708 53.2355 302.324 53.2689C302.221 53.2779 302.058 53.2712 301.836 53.2486C301.625 53.2251 301.382 53.1888 301.105 53.1396C300.828 53.08 300.54 53.0162 300.242 52.948C299.953 52.879 299.685 52.803 299.438 52.7199C299.2 52.6256 298.998 52.5333 298.833 52.4431C298.678 52.3416 298.597 52.2441 298.588 52.1507C298.578 52.0262 298.624 51.8967 298.727 51.7622C298.83 51.6174 298.954 51.4863 299.101 51.369C299.247 51.2414 299.399 51.134 299.559 51.0469C299.729 50.9589 299.871 50.91 299.985 50.9001C300.141 50.8865 300.305 50.9089 300.477 50.9671C300.66 51.0244 300.844 51.0921 301.028 51.1701C301.234 51.2568 301.44 51.333 301.644 51.3989C301.859 51.4639 302.075 51.4869 302.293 51.468C302.459 51.4535 302.548 51.3883 302.559 51.2724C302.58 51.1555 302.584 51.0245 302.571 50.8792C302.54 50.516 302.448 50.1789 302.295 49.868C302.142 49.5468 301.953 49.2391 301.729 48.9449C301.505 48.6507 301.25 48.3696 300.965 48.1015C300.68 47.8231 300.395 47.5499 300.11 47.2819C299.815 47.0148 299.525 46.7472 299.24 46.4792C298.966 46.2103 298.717 45.9339 298.494 45.6501C298.27 45.3559 298.081 45.0534 297.929 44.7425C297.787 44.4307 297.7 44.0932 297.668 43.73C297.63 43.2838 297.693 42.8757 297.86 42.5057C298.025 42.1253 298.253 41.7919 298.541 41.5054C298.841 41.218 299.181 40.9897 299.564 40.8205C299.956 40.6401 300.355 40.5323 300.759 40.4971C300.894 40.4854 301.105 40.4985 301.39 40.5364C301.675 40.5639 301.957 40.6178 302.235 40.6981C302.514 40.7785 302.764 40.8823 302.984 41.0095C303.204 41.1367 303.322 41.2886 303.337 41.465Z" fill="#2F2F2F"/>
<defs>
<filter id="filter0_d_0_1220" x="4" y="51" width="336" height="216" filterUnits="userSpaceOnUse" color-interpolation-filters="sRGB">
<feFlood flood-opacity="0" result="BackgroundImageFix"/>
<feColorMatrix in="SourceAlpha" type="matrix" values="0 0 0 0 0 0 0 0 0 0 0 0 0 0 0 0 0 0 127 0" result="hardAlpha"/>
<feMorphology radius="5" operator="erode" in="SourceAlpha" result="effect1_dropShadow_0_1220"/>
<feOffset dy="20"/>
<feGaussianBlur stdDeviation="12.5"/>
<feColorMatrix type="matrix" values="0 0 0 0 0.0352941 0 0 0 0 0.0352941 0 0 0 0 0.0431373 0 0 0 0.24 0"/>
<feBlend mode="normal" in2="BackgroundImageFix" result="effect1_dropShadow_0_1220"/>
<feBlend mode="normal" in="SourceGraphic" in2="effect1_dropShadow_0_1220" result="shape"/>
</filter>
<linearGradient id="paint0_linear_0_1220" x1="4.11953e-06" y1="7.15311" x2="0.235897" y2="272.153" gradientUnits="userSpaceOnUse">
<stop stop-color="white"/>
<stop offset="0.0599923" stop-color="white"/>
<stop offset="0.525049" stop-color="#FAFAFA" stop-opacity="0.22"/>
<stop offset="0.918692" stop-color="#FAFAFA" stop-opacity="0.32"/>
<stop offset="1" stop-color="#FAFAFA"/>
</linearGradient>
<clipPath id="clip0_0_1220">
<rect width="296" height="176" fill="white" transform="translate(24 51)"/>
</clipPath>
</defs>
</svg>
