<svg width="960" height="960" viewBox="0 0 960 960" fill="none" xmlns="http://www.w3.org/2000/svg">
<rect width="960" height="960" fill="white"/>
<line x1="138.578" y1="252" x2="138.578" y2="709" stroke="url(#paint0_linear_15_378)" stroke-width="0.5"/>
<line x1="252.742" y1="252" x2="252.742" y2="709" stroke="url(#paint1_linear_15_378)" stroke-width="0.5"/>
<line x1="369.492" y1="252" x2="369.492" y2="709" stroke="#B6B6B6" stroke-width="0.5"/>
<line x1="470.664" y1="252" x2="470.664" y2="709" stroke="url(#paint2_linear_15_378)" stroke-width="0.5"/>
<line x1="102" y1="322.058" x2="857" y2="322.058" stroke="url(#paint3_linear_15_378)" stroke-width="0.5"/>
<line x1="102" y1="435.632" x2="857" y2="435.632" stroke="url(#paint4_linear_15_378)" stroke-width="0.5"/>
<line x1="102" y1="546.502" x2="857" y2="546.502" stroke="url(#paint5_linear_15_378)" stroke-width="0.5"/>
<line x1="102" y1="665.483" x2="857" y2="665.483" stroke="url(#paint6_linear_15_378)" stroke-width="0.5"/>
<line x1="584.828" y1="252" x2="584.828" y2="709" stroke="url(#paint7_linear_15_378)" stroke-width="0.5"/>
<line x1="701.578" y1="252" x2="701.578" y2="709" stroke="url(#paint8_linear_15_378)" stroke-width="0.5"/>
<line x1="802.758" y1="252" x2="802.758" y2="709" stroke="url(#paint9_linear_15_378)" stroke-width="0.5"/>
<rect x="391" y="436" width="156" height="156" rx="32" fill="url(#paint10_linear_15_378)"/>
<path d="M517 530C517 532.829 515.876 535.542 513.876 537.542C511.875 539.543 509.162 540.667 506.333 540.667H442.333L421 562V476.667C421 473.838 422.124 471.125 424.124 469.124C426.125 467.124 428.838 466 431.667 466H506.333C509.162 466 511.875 467.124 513.876 469.124C515.876 471.125 517 473.838 517 476.667V530Z" stroke="white" stroke-width="5" stroke-linecap="round" stroke-linejoin="round"/>
<path d="M483.932 490C482.092 488.164 479.598 487.132 476.998 487.132C474.398 487.132 471.905 488.164 470.065 490L468.998 491.6L467.398 490C466.418 489.16 465.281 488.521 464.054 488.12C462.826 487.718 461.532 487.563 460.244 487.662C458.956 487.761 457.701 488.113 456.549 488.697C455.397 489.281 454.372 490.086 453.532 491.067C452.691 492.048 452.052 493.184 451.651 494.412C451.25 495.639 451.094 496.934 451.193 498.221C451.292 499.509 451.644 500.764 452.228 501.916C452.812 503.068 453.618 504.093 454.598 504.934L468.998 519.334L483.398 504.934C488.198 500.134 487.665 493.734 483.932 490Z" stroke="white" stroke-width="5" stroke-linecap="round" stroke-linejoin="round"/>
<path d="M249.636 403.362C249.974 404.303 250.061 405.102 249.899 405.758C249.754 406.374 249.451 406.915 248.987 407.38C248.523 407.845 247.949 408.234 247.264 408.546C246.608 408.848 245.933 409.14 245.238 409.423C247.417 410.5 249.363 411.943 251.075 413.752C252.787 415.561 254.054 417.613 254.878 419.907C255.691 422.172 256.105 424.53 256.122 426.981C256.128 429.403 255.726 431.705 254.916 433.888C254.106 436.072 252.9 438.032 251.299 439.769C249.698 441.505 247.691 442.807 245.28 443.672C243.368 444.358 241.515 444.608 239.722 444.422C237.928 444.236 236.202 443.727 234.542 442.895C232.871 442.033 231.279 440.928 229.766 439.579C228.242 438.2 226.813 436.671 225.48 434.992C224.136 433.283 222.874 431.478 221.694 429.577C220.543 427.666 219.481 425.773 218.509 423.897C217.567 422.011 216.72 420.207 215.969 418.484C215.237 416.722 214.617 415.135 214.11 413.723C213.519 412.076 212.959 410.284 212.431 408.349C211.931 406.404 211.53 404.406 211.226 402.357C210.922 400.308 210.766 398.256 210.759 396.2C210.751 394.144 210.973 392.172 211.424 390.283C211.865 388.365 212.556 386.59 213.497 384.957C214.457 383.285 215.743 381.827 217.356 380.584C217.948 380.106 218.561 379.687 219.195 379.326C219.829 378.966 220.485 378.664 221.161 378.421C224.103 377.366 226.829 377.284 229.34 378.175C231.881 379.056 234.122 380.675 236.064 383.033C236.388 383.381 236.689 383.755 236.965 384.154C237.23 384.523 237.442 384.929 237.6 385.37C237.79 385.899 237.721 386.306 237.391 386.591C237.061 386.875 236.691 387.091 236.279 387.239C235.22 387.619 234.298 387.734 233.514 387.584C232.73 387.434 232.017 387.158 231.375 386.758C230.733 386.357 230.114 385.882 229.519 385.332C228.952 384.772 228.363 384.286 227.751 383.875C227.138 383.464 226.455 383.178 225.7 383.018C224.945 382.857 224.053 382.962 223.023 383.331C221.553 383.859 220.406 384.735 219.584 385.96C218.762 387.185 218.182 388.621 217.844 390.27C217.496 391.889 217.348 393.652 217.402 395.558C217.445 397.436 217.61 399.285 217.899 401.107C218.177 402.9 218.523 404.602 218.935 406.214C219.348 407.825 219.749 409.175 220.14 410.264C220.552 411.411 221.195 412.973 222.071 414.949C222.946 416.926 223.973 419.047 225.152 421.314C226.36 423.569 227.687 425.832 229.133 428.102C230.597 430.333 232.115 432.295 233.686 433.988C235.286 435.672 236.901 436.935 238.532 437.777C240.192 438.609 241.816 438.74 243.404 438.17C244.787 437.674 245.894 436.828 246.727 435.633C247.549 434.408 248.126 433.055 248.458 431.575C248.808 430.054 248.942 428.529 248.857 426.999C248.762 425.439 248.498 424.057 248.065 422.851C247.654 421.704 247.085 420.629 246.361 419.628C245.625 418.597 244.784 417.687 243.837 416.898C242.879 416.08 241.835 415.392 240.706 414.834C239.565 414.248 238.39 413.84 237.179 413.61C236.741 413.502 236.27 413.438 235.766 413.42C235.28 413.362 234.79 413.339 234.296 413.35C234.05 413.405 233.584 413.539 232.897 413.753C232.199 413.937 231.482 414.111 230.744 414.276C230.006 414.442 229.327 414.536 228.704 414.56C228.072 414.555 227.687 414.361 227.549 413.979C227.359 413.449 227.252 412.874 227.228 412.251C227.204 411.629 227.275 411.039 227.44 410.482C227.634 409.914 227.9 409.404 228.235 408.952C228.6 408.489 229.077 408.151 229.665 407.94C230.518 407.634 231.477 407.439 232.543 407.356C233.627 407.232 234.61 407.195 235.491 407.244C236.93 406.628 238.354 406.017 239.764 405.411C241.163 404.776 242.536 404.117 243.885 403.434C244.364 403.196 244.823 402.948 245.262 402.691C245.73 402.423 246.229 402.194 246.758 402.004C247.464 401.751 248.052 401.722 248.521 401.919C248.99 402.116 249.362 402.597 249.636 403.362ZM278.536 419.633C278.852 420.516 278.93 421.517 278.767 422.638C278.635 423.748 278.328 424.837 277.849 425.906C277.358 426.945 276.703 427.894 275.882 428.753C275.091 429.602 274.21 430.2 273.24 430.548C271.857 431.045 270.571 431.207 269.381 431.037C268.181 430.837 267.049 430.413 265.986 429.765C264.913 429.088 263.93 428.246 263.037 427.238C262.174 426.22 261.388 425.141 260.68 424C259.961 422.831 259.321 421.649 258.76 420.456C258.218 419.223 257.762 418.092 257.393 417.062C257.076 416.18 256.745 415.12 256.401 413.882C256.085 412.634 255.813 411.321 255.584 409.942C255.384 408.553 255.278 407.147 255.265 405.724C255.252 404.301 255.39 402.973 255.678 401.741C255.996 400.498 256.5 399.404 257.19 398.459C257.909 397.504 258.872 396.809 260.078 396.377C261.019 396.039 261.926 395.929 262.798 396.047C263.7 396.155 264.518 396.443 265.25 396.911C266.001 397.338 266.657 397.916 267.217 398.645C267.807 399.363 268.26 400.163 268.577 401.045C268.988 402.193 269.172 403.538 269.129 405.081C269.085 406.624 268.863 408.181 268.464 409.752C268.095 411.312 267.565 412.797 266.876 414.206C266.205 415.576 265.451 416.71 264.611 417.609C264.86 418.117 265.257 418.855 265.803 419.821C266.339 420.757 266.933 421.673 267.586 422.567C268.269 423.451 268.948 424.187 269.623 424.774C270.329 425.351 270.975 425.534 271.564 425.323C271.858 425.218 272.076 425.04 272.219 424.789C272.39 424.528 272.512 424.219 272.583 423.862C272.654 423.504 272.685 423.128 272.676 422.733C272.696 422.327 272.707 421.941 272.708 421.575L272.751 420.863C272.779 420.753 272.787 420.684 272.776 420.655C272.795 420.615 272.809 420.56 272.817 420.491C272.886 420.034 272.95 419.613 273.011 419.226C273.1 418.828 273.279 418.449 273.548 418.087L273.504 418.103C273.579 417.943 273.676 417.842 273.793 417.799C273.93 417.717 274.057 417.655 274.175 417.613C274.498 417.497 274.888 417.473 275.344 417.541C275.801 417.61 276.249 417.748 276.688 417.956C277.117 418.134 277.504 418.377 277.847 418.685C278.179 418.964 278.409 419.28 278.536 419.633ZM262.816 403.312C262.711 403.018 262.585 402.715 262.44 402.402C262.294 402.089 262.12 401.836 261.918 401.643C261.686 402.29 261.535 403.025 261.464 403.847C261.413 404.629 261.422 405.44 261.49 406.278C261.548 407.088 261.641 407.901 261.769 408.718C261.925 409.525 262.091 410.263 262.264 410.931C262.701 409.745 263.008 408.473 263.185 407.114C263.351 405.727 263.228 404.459 262.816 403.312ZM292.862 422.36C292.978 422.684 293.004 422.989 292.942 423.277C292.869 423.536 292.736 423.766 292.542 423.969C292.379 424.16 292.17 424.318 291.916 424.443C291.702 424.586 291.477 424.7 291.242 424.784C290.918 424.9 290.52 424.993 290.047 425.064C289.614 425.153 289.165 425.197 288.701 425.198C288.236 425.199 287.79 425.16 287.364 425.08C286.956 424.961 286.605 424.772 286.313 424.511C286.031 424.281 285.674 423.795 285.241 423.053C284.828 422.272 284.387 421.368 283.919 420.34C283.44 419.284 282.955 418.163 282.463 416.978C281.961 415.764 281.48 414.609 281.02 413.512C280.589 412.405 280.201 411.416 279.855 410.544C279.528 409.632 279.285 408.955 279.126 408.514C278.387 406.455 277.704 404.459 277.077 402.527C276.468 400.554 275.844 398.537 275.204 396.475C275.057 396.528 274.915 396.596 274.778 396.678C274.642 396.76 274.5 396.828 274.353 396.88C273.992 397.076 273.61 397.263 273.209 397.44C272.837 397.607 272.446 397.764 272.034 397.912C271.534 398.092 271.061 398.162 270.615 398.122C270.17 398.083 269.836 397.755 269.614 397.137C269.35 396.402 269.301 395.755 269.466 395.198C269.631 394.641 269.922 394.155 270.337 393.74C270.742 393.296 271.223 392.924 271.779 392.625C272.325 392.296 272.867 392.002 273.405 391.742C273.493 391.711 273.552 391.689 273.582 391.679C273.6 391.639 273.654 391.603 273.742 391.571C273.645 391.208 273.521 390.771 273.371 390.26C273.211 389.72 273.034 389.136 272.842 388.508C272.523 387.527 272.197 386.482 271.866 385.372C271.523 384.233 271.202 383.153 270.902 382.132C270.591 381.082 270.343 380.158 270.157 379.362C269.96 378.536 269.847 377.946 269.819 377.59C269.829 377.155 269.88 376.788 269.972 376.49C270.094 376.18 270.419 375.931 270.949 375.741C272.125 375.318 273.174 375.374 274.096 375.906C275.017 376.438 275.679 377.264 276.08 378.381C276.544 379.675 276.965 380.985 277.341 382.311C277.747 383.626 278.158 384.956 278.574 386.301L279.249 388.599C279.953 388.247 280.641 387.85 281.313 387.41C281.966 387.009 282.624 386.624 283.288 386.253C283.981 385.871 284.666 385.559 285.342 385.316C285.93 385.105 286.444 385.103 286.884 385.31C287.313 385.488 287.633 385.872 287.844 386.46C288.077 387.107 288.186 387.781 288.172 388.484C288.159 389.186 287.916 389.804 287.444 390.339L287.488 390.323C287.391 390.424 287.07 390.639 286.524 390.968C285.968 391.267 285.323 391.598 284.59 391.961C283.886 392.313 283.182 392.665 282.479 393.017C281.805 393.359 281.296 393.608 280.954 393.764L280.91 393.78C281.442 395.448 281.984 397.096 282.535 398.725C283.076 400.323 283.642 401.946 284.233 403.594C285.046 405.858 285.97 408.249 287.007 410.766C288.062 413.242 289.163 415.57 290.31 417.748L291.375 419.606C291.672 420.064 291.955 420.527 292.222 420.996C292.48 421.435 292.693 421.889 292.862 422.36ZM319.501 346.311C319.818 347.193 319.831 347.969 319.54 348.638C319.249 349.307 318.792 349.885 318.171 350.374C317.549 350.863 316.852 351.279 316.079 351.623C315.306 351.967 314.596 352.255 313.949 352.487C312.655 352.952 311.355 353.401 310.051 353.837C308.746 354.272 307.446 354.721 306.152 355.186C305.535 355.408 304.917 355.629 304.299 355.851C303.682 356.073 303.075 356.324 302.478 356.604C302.422 357.189 302.46 357.756 302.591 358.307C302.712 358.828 302.867 359.353 303.057 359.883C304.049 362.648 305.134 365.346 306.311 367.978C307.489 370.61 308.691 373.266 309.919 375.947C311.631 375.166 313.332 374.356 315.023 373.517C316.714 372.678 318.424 371.798 320.152 370.879C320.387 370.795 320.603 370.701 320.798 370.597C320.993 370.494 321.209 370.4 321.444 370.316C322.621 369.893 323.441 370.329 323.906 371.624C324.032 371.976 324.115 372.345 324.153 372.73C324.221 373.104 324.245 373.494 324.224 373.9C324.23 374.562 324.05 375.124 323.685 375.587C323.309 376.021 322.848 376.402 322.302 376.731C321.746 377.03 321.144 377.296 320.497 377.529C319.869 377.721 319.325 377.916 318.865 378.114L312.077 380.85C313.256 383.58 314.44 386.277 315.628 388.938C316.815 391.6 318.028 394.285 319.267 396.995C320.262 399.028 321.219 401.092 322.136 403.186C323.084 405.27 324.099 407.313 325.183 409.314L325.436 410.02C325.679 410.697 325.651 411.221 325.353 411.594C325.045 411.937 324.597 412.214 324.008 412.425C322.92 412.816 321.827 413.009 320.73 413.004C319.998 413.001 319.413 412.896 318.973 412.689C318.523 412.452 318.15 412.154 317.856 411.795C317.58 411.396 317.337 410.952 317.128 410.462C316.919 409.973 316.695 409.439 316.454 408.862C314.595 404.515 312.717 400.209 310.821 395.943C308.914 391.647 307.025 387.311 305.156 382.935C303.797 379.705 302.434 376.508 301.067 373.347C299.7 370.185 298.425 366.957 297.242 363.663C296.619 361.928 296.195 360.42 295.968 359.141C295.759 357.821 295.827 356.668 296.17 355.681C296.513 354.695 297.195 353.819 298.216 353.055C299.236 352.29 300.673 351.575 302.526 350.91C304.438 350.224 306.34 349.557 308.233 348.911C310.126 348.265 312.028 347.599 313.94 346.912C314.617 346.67 315.258 346.423 315.865 346.171C316.462 345.891 317.096 345.713 317.766 345.639C318.14 345.571 318.486 345.563 318.803 345.615C319.11 345.638 319.343 345.869 319.501 346.311ZM351.155 393.567C351.472 394.449 351.549 395.451 351.387 396.572C351.254 397.682 350.948 398.771 350.469 399.84C349.978 400.879 349.323 401.828 348.502 402.687C347.711 403.536 346.83 404.134 345.86 404.482C344.477 404.979 343.191 405.141 342.001 404.971C340.8 404.771 339.669 404.347 338.606 403.699C337.533 403.022 336.55 402.18 335.657 401.172C334.794 400.154 334.008 399.075 333.3 397.934C332.581 396.765 331.941 395.583 331.38 394.39C330.838 393.157 330.382 392.026 330.013 390.996C329.696 390.114 329.365 389.054 329.021 387.816C328.705 386.568 328.433 385.255 328.204 383.876C328.004 382.487 327.898 381.081 327.885 379.658C327.872 378.235 328.01 376.907 328.298 375.675C328.616 374.432 329.119 373.338 329.809 372.393C330.529 371.437 331.492 370.743 332.698 370.31C333.639 369.973 334.546 369.863 335.418 369.981C336.32 370.089 337.137 370.377 337.87 370.845C338.621 371.272 339.276 371.85 339.837 372.579C340.427 373.297 340.88 374.097 341.196 374.979C341.608 376.126 341.792 377.471 341.748 379.014C341.705 380.558 341.483 382.114 341.084 383.685C340.715 385.246 340.185 386.731 339.496 388.14C338.825 389.51 338.07 390.644 337.231 391.543C337.48 392.051 337.877 392.788 338.423 393.754C338.959 394.691 339.553 395.607 340.206 396.501C340.888 397.385 341.568 398.121 342.243 398.708C342.948 399.285 343.595 399.468 344.183 399.257C344.477 399.151 344.696 398.973 344.838 398.723C345.01 398.462 345.132 398.153 345.203 397.796C345.274 397.438 345.304 397.062 345.295 396.667C345.316 396.261 345.327 395.875 345.328 395.509L345.371 394.797C345.398 394.687 345.407 394.618 345.396 394.588C345.415 394.548 345.429 394.494 345.437 394.424C345.506 393.968 345.57 393.547 345.63 393.16C345.72 392.762 345.899 392.383 346.168 392.021L346.124 392.036C346.199 391.876 346.296 391.775 346.413 391.733C346.55 391.651 346.677 391.589 346.795 391.547C347.118 391.43 347.508 391.407 347.964 391.475C348.42 391.544 348.868 391.682 349.308 391.889C349.737 392.067 350.123 392.311 350.466 392.619C350.799 392.898 351.029 393.214 351.155 393.567ZM335.436 377.246C335.331 376.952 335.205 376.648 335.059 376.336C334.914 376.023 334.74 375.769 334.538 375.576C334.306 376.224 334.154 376.959 334.084 377.781C334.033 378.563 334.042 379.374 334.11 380.212C334.168 381.021 334.261 381.835 334.388 382.652C334.545 383.459 334.71 384.197 334.884 384.865C335.321 383.679 335.628 382.407 335.805 381.048C335.971 379.661 335.848 378.393 335.436 377.246ZM370.303 386.694C370.62 387.577 370.697 388.578 370.535 389.699C370.402 390.809 370.096 391.898 369.616 392.967C369.126 394.006 368.471 394.955 367.65 395.814C366.859 396.663 365.978 397.261 365.007 397.609C363.625 398.106 362.339 398.269 361.149 398.098C359.948 397.898 358.816 397.474 357.754 396.826C356.681 396.149 355.698 395.307 354.805 394.299C353.941 393.281 353.155 392.202 352.447 391.061C351.729 389.892 351.089 388.71 350.528 387.517C349.986 386.284 349.53 385.153 349.16 384.123C348.843 383.241 348.513 382.181 348.168 380.943C347.853 379.695 347.581 378.382 347.352 377.003C347.152 375.614 347.045 374.208 347.033 372.785C347.02 371.362 347.158 370.034 347.446 368.802C347.763 367.559 348.267 366.465 348.957 365.52C349.677 364.565 350.639 363.87 351.845 363.438C352.786 363.1 353.693 362.99 354.566 363.108C355.468 363.216 356.285 363.504 357.017 363.972C357.768 364.399 358.424 364.977 358.984 365.706C359.574 366.424 360.027 367.224 360.344 368.106C360.756 369.254 360.94 370.599 360.896 372.142C360.852 373.685 360.631 375.242 360.232 376.813C359.862 378.373 359.333 379.858 358.643 381.267C357.973 382.637 357.218 383.771 356.379 384.67C356.627 385.178 357.025 385.916 357.571 386.882C358.106 387.818 358.701 388.734 359.354 389.628C360.036 390.512 360.715 391.248 361.391 391.835C362.096 392.412 362.743 392.595 363.331 392.384C363.625 392.279 363.843 392.101 363.986 391.85C364.158 391.589 364.279 391.28 364.35 390.923C364.421 390.565 364.452 390.189 364.443 389.794C364.463 389.388 364.474 389.002 364.476 388.636L364.519 387.924C364.546 387.814 364.554 387.745 364.544 387.716C364.563 387.676 364.576 387.621 364.585 387.552C364.653 387.095 364.718 386.674 364.778 386.287C364.868 385.889 365.047 385.51 365.315 385.148L365.271 385.164C365.347 385.004 365.443 384.903 365.561 384.86C365.697 384.778 365.825 384.716 365.942 384.674C366.266 384.558 366.656 384.534 367.112 384.602C367.568 384.671 368.016 384.809 368.456 385.017C368.885 385.195 369.271 385.438 369.614 385.746C369.947 386.025 370.176 386.341 370.303 386.694ZM354.584 370.373C354.478 370.079 354.353 369.776 354.207 369.463C354.062 369.15 353.888 368.897 353.686 368.704C353.453 369.351 353.302 370.086 353.232 370.908C353.181 371.69 353.189 372.501 353.258 373.339C353.316 374.149 353.409 374.962 353.536 375.78C353.693 376.586 353.858 377.324 354.031 377.992C354.469 376.806 354.776 375.534 354.952 374.175C355.118 372.788 354.996 371.52 354.584 370.373ZM394.505 385.577C394.621 385.901 394.648 386.207 394.585 386.495C394.512 386.753 394.384 386.999 394.202 387.23C394.038 387.422 393.834 387.594 393.591 387.748C393.377 387.891 393.152 388.005 392.917 388.09C392.564 388.216 392.165 388.31 391.722 388.369C391.278 388.429 390.824 388.459 390.36 388.46C389.885 388.431 389.429 388.362 388.991 388.254C388.573 388.105 388.217 387.901 387.924 387.641C387.632 387.38 387.357 387.031 387.1 386.592C386.861 386.113 386.623 385.634 386.385 385.155C386.344 385.967 386.239 386.784 386.07 387.609C385.931 388.423 385.677 389.194 385.308 389.924C384.928 390.625 384.439 391.249 383.838 391.797C383.278 392.363 382.571 392.799 381.718 393.105C380.218 393.644 378.871 393.729 377.676 393.361C376.511 392.982 375.474 392.359 374.564 391.49C373.674 390.581 372.913 389.526 372.283 388.324C371.671 387.083 371.154 385.874 370.732 384.698C370.383 383.727 370.032 382.608 369.676 381.341C369.321 380.074 368.985 378.767 368.668 377.42C368.35 376.073 368.078 374.76 367.851 373.48C367.613 372.171 367.443 371.003 367.341 369.978C367.244 368.784 367.17 367.466 367.117 366.024C367.083 364.542 367.189 363.126 367.435 361.776C367.7 360.386 368.175 359.12 368.86 357.978C369.546 356.835 370.549 355.977 371.871 355.403C370.927 353.052 370.009 350.908 369.114 348.972C368.239 346.995 367.333 344.98 366.396 342.925L364.197 338.186L363.387 336.485C363.159 336.035 362.946 335.581 362.748 335.121C362.539 334.631 362.35 334.151 362.181 333.681C361.938 333.004 361.946 332.47 362.204 332.079C362.491 331.677 362.929 331.37 363.517 331.159C364.811 330.695 365.865 330.532 366.679 330.672C367.493 330.811 368.148 331.157 368.645 331.709C369.172 332.25 369.608 332.957 369.954 333.829C370.29 334.671 370.637 335.593 370.996 336.593C371.228 337.24 371.565 337.949 372.008 338.719L372.815 340.273L374.783 344.646C375.095 345.331 375.407 346.016 375.72 346.7C376.032 347.385 376.344 348.07 376.656 348.755L380.987 357.908L389.118 375.01L389.837 376.595C390.387 377.759 390.939 378.972 391.491 380.234C392.074 381.486 392.739 382.692 393.487 383.851C393.691 384.143 393.876 384.425 394.04 384.698C394.234 384.961 394.389 385.254 394.505 385.577ZM374.961 363.458C374.845 363.134 374.704 362.786 374.537 362.415C374.389 362.003 374.252 361.62 374.125 361.267L373.698 360.076C373.597 360.444 373.48 360.951 373.347 361.597C373.203 362.213 373.116 362.758 373.088 363.233C372.987 364.432 373.035 365.908 373.234 367.663C373.421 369.389 373.685 371.187 374.024 373.057C374.382 374.888 374.789 376.667 375.243 378.397C375.688 380.097 376.11 381.505 376.511 382.623C376.659 383.035 376.828 383.505 377.018 384.035C377.238 384.554 377.492 385.077 377.781 385.604C378.059 386.102 378.376 386.569 378.732 387.006C379.088 387.442 379.471 387.77 379.881 387.988C380.122 387.27 380.213 386.275 380.154 385.001C380.085 383.698 379.904 382.269 379.611 380.714C379.337 379.119 378.993 377.466 378.578 375.755C378.164 374.045 377.726 372.409 377.265 370.848C376.823 369.247 376.39 367.809 375.966 366.533C375.56 365.218 375.225 364.193 374.961 363.458ZM409.432 353.625C409.864 354.831 410.286 356.19 410.696 357.703C411.096 359.186 411.458 360.75 411.782 362.393C412.106 364.036 412.347 365.726 412.506 367.462C412.683 369.158 412.751 370.827 412.709 372.469C412.668 374.111 412.486 375.687 412.165 377.197C411.863 378.666 411.388 379.982 410.743 381.143C410.278 381.974 409.682 382.72 408.955 383.379C408.269 384.057 407.485 384.554 406.602 384.871C406.279 384.987 405.92 385.049 405.524 385.058C405.14 385.097 404.791 384.957 404.477 384.638C403.809 384.811 403.114 384.911 402.393 384.937C401.712 384.983 401.05 384.756 400.405 384.256C400.243 384.082 400.08 383.858 399.916 383.585C399.751 383.312 399.582 383.025 399.407 382.722C399.324 382.586 399.248 382.464 399.176 382.357C399.094 382.22 399.017 382.099 398.945 381.991C396.192 377.003 393.703 371.92 391.479 366.742C389.285 361.553 387.222 356.268 385.29 350.885C385.121 350.415 384.825 349.591 384.403 348.415C383.981 347.238 383.5 345.9 382.962 344.4C382.453 342.889 381.903 341.31 381.311 339.663C380.75 338.005 380.225 336.451 379.737 334.999C379.249 333.547 378.85 332.296 378.539 331.245C378.218 330.166 378.034 329.468 377.987 329.153C377.957 328.699 377.997 328.302 378.108 327.964C378.219 327.625 378.524 327.366 379.024 327.187C380.407 326.69 381.551 326.778 382.456 327.449C383.379 328.08 384.068 329.028 384.522 330.293L388.592 341.632C389.088 343.014 389.537 344.264 389.938 345.382C390.329 346.47 390.714 347.544 391.094 348.603C391.493 349.621 391.908 350.684 392.338 351.792C392.759 352.869 393.241 354.074 393.785 355.406C393.853 354.485 394 353.553 394.225 352.608C394.48 351.654 394.82 350.751 395.246 349.901C395.671 349.051 396.212 348.293 396.869 347.625C397.526 346.958 398.34 346.45 399.311 346.102C400.722 345.595 401.966 345.497 403.04 345.809C404.144 346.11 405.091 346.666 405.881 347.479C406.689 348.251 407.378 349.199 407.947 350.323C408.546 351.436 409.041 352.536 409.432 353.625ZM402.979 354.795C402.768 354.207 402.506 353.571 402.194 352.886C401.911 352.19 401.513 351.636 400.999 351.223C400.808 351.524 400.652 351.829 400.531 352.138C400.439 352.437 400.343 352.77 400.242 353.138L400.202 353.302L400.186 353.258C399.848 354.906 399.736 356.723 399.851 358.707C399.995 360.681 400.253 362.696 400.627 364.754C401.019 366.771 401.499 368.757 402.068 370.711C402.626 372.635 403.179 374.362 403.728 375.892C403.844 376.215 404.019 376.701 404.251 377.348C404.502 377.955 404.746 378.449 404.982 378.829C405.78 377.446 406.215 375.697 406.285 373.58C406.374 371.423 406.254 369.192 405.924 366.886C405.614 364.541 405.172 362.292 404.599 360.141C404.026 357.989 403.486 356.207 402.979 354.795ZM440.144 370.092C440.355 370.68 440.351 371.13 440.131 371.442C439.921 371.782 439.551 372.048 439.022 372.238C437.64 372.734 436.508 372.725 435.626 372.212C434.774 371.688 433.984 370.875 433.257 369.775C433.021 369.395 432.785 369.015 432.549 368.635C432.303 368.225 432.076 367.825 431.869 367.434C431.673 367.073 431.519 366.83 431.408 366.704C431.296 366.578 431.137 366.319 430.93 365.929C430.884 366.908 430.764 367.964 430.573 369.095C430.4 370.186 430.118 371.25 429.727 372.287C429.325 373.295 428.787 374.202 428.113 375.008C427.469 375.804 426.647 376.381 425.647 376.74C424.588 377.12 423.616 377.187 422.731 376.94C421.835 376.664 421.044 376.217 420.358 375.601C419.69 374.944 419.099 374.176 418.585 373.298C418.1 372.41 417.704 371.539 417.398 370.686C416.68 368.686 416.096 366.456 415.644 363.995C415.211 361.494 414.931 358.955 414.803 356.378C414.664 353.772 414.68 351.226 414.85 348.741C415.01 346.227 415.359 343.96 415.896 341.941L415.912 341.986L416.034 341.493C416.199 340.936 416.398 340.334 416.63 339.686C416.881 338.998 417.301 338.548 417.889 338.337C418.448 338.137 419.023 338.213 419.614 338.565C420.195 338.888 420.669 339.282 421.035 339.748C421.853 339.621 422.539 339.59 423.094 339.657C423.638 339.693 424.101 339.826 424.482 340.055C424.863 340.283 425.177 340.602 425.423 341.012C425.659 341.392 425.867 341.832 426.046 342.332C426.12 342.538 426.2 342.758 426.284 342.994C426.368 343.229 426.438 343.47 426.493 343.716C426.548 343.961 426.634 344.246 426.75 344.57C426.866 344.893 426.972 345.187 427.067 345.452C427.172 345.746 427.354 346.113 427.611 346.552C427.897 346.98 428.189 347.423 428.486 347.881L429.381 349.402C429.834 350.203 430.3 351.131 430.779 352.188C431.288 353.234 431.811 354.274 432.348 355.31C432.867 356.385 433.375 357.431 433.873 358.448C434.36 359.435 434.821 360.349 435.255 361.189L438.658 367.339L439.059 368.041C439.256 368.402 439.441 368.734 439.616 369.037C439.82 369.328 439.996 369.68 440.144 370.092ZM420.935 348.35C420.914 348.291 420.868 348.208 420.796 348.101C420.714 347.965 420.632 347.828 420.55 347.692C420.39 349.376 420.352 351.166 420.435 353.062C420.537 354.918 420.728 356.791 421.008 358.683C421.308 360.534 421.686 362.374 422.143 364.202C422.619 365.99 423.136 367.664 423.696 369.223C423.749 369.37 423.796 369.502 423.839 369.62C423.881 369.737 423.938 369.85 424.009 369.957L424.025 370.001C424.34 368.659 424.431 367.016 424.298 365.072C424.183 363.088 423.954 361.062 423.61 358.994C423.256 356.897 422.825 354.91 422.318 353.033C421.829 351.117 421.368 349.556 420.935 348.35ZM457.098 353.498C457.319 354.116 457.443 354.785 457.47 355.506C457.496 356.227 457.482 356.929 457.429 357.613C457.382 358.592 457.257 359.584 457.052 360.587C456.837 361.56 456.522 362.487 456.107 363.366C455.682 364.216 455.126 364.98 454.44 365.658C453.754 366.336 452.896 366.86 451.866 367.229C450.043 367.884 448.364 367.972 446.831 367.493C445.298 367.014 443.93 366.21 442.728 365.081C441.526 363.952 440.482 362.616 439.597 361.075C438.741 359.523 438.049 358.011 437.521 356.541C437.131 355.453 436.716 354.157 436.276 352.655C435.826 351.123 435.433 349.521 435.098 347.848C434.793 346.165 434.596 344.459 434.507 342.732C434.447 340.993 434.584 339.384 434.916 337.903C435.237 336.394 435.804 335.061 436.618 333.906C437.461 332.74 438.648 331.882 440.177 331.333C440.501 331.217 440.992 331.107 441.652 331.003C442.312 330.899 442.978 330.859 443.651 330.883C444.343 330.867 444.978 330.972 445.556 331.196C446.153 331.38 446.537 331.707 446.706 332.177C446.864 332.619 446.779 333.031 446.452 333.414C446.154 333.786 445.747 334.132 445.23 334.45C444.733 334.728 444.195 334.988 443.617 335.228C443.058 335.429 442.602 335.593 442.249 335.719L441.455 336.004C440.896 337.035 440.61 338.366 440.598 339.998C440.575 341.599 440.707 343.262 440.993 344.985C441.28 346.708 441.649 348.385 442.102 350.016C442.544 351.617 442.944 352.918 443.303 353.918C443.81 355.329 444.414 356.69 445.116 357.998C445.837 359.267 446.753 360.382 447.862 361.345C448.104 361.557 448.421 361.792 448.812 362.05C449.222 362.268 449.604 362.314 449.957 362.187C450.222 362.092 450.407 361.777 450.514 361.24C450.649 360.694 450.729 360.084 450.753 359.411C450.778 358.738 450.763 358.096 450.709 357.485C450.656 356.873 450.611 356.424 450.575 356.138C450.562 356.01 450.529 355.873 450.476 355.726C450.424 355.578 450.371 355.431 450.318 355.284C450.223 355.02 450.133 354.77 450.049 354.534C449.983 354.259 449.953 354.037 449.959 353.869C449.986 353.295 450.129 352.862 450.389 352.569C450.679 352.266 451.074 352.025 451.574 351.845C452.015 351.687 452.507 351.577 453.049 351.515C453.591 351.453 454.13 351.476 454.667 351.582C455.203 351.688 455.692 351.895 456.134 352.201C456.576 352.507 456.897 352.939 457.098 353.498ZM484.53 355.555C484.646 355.878 484.575 356.236 484.317 356.627C484.06 357.018 483.727 357.387 483.32 357.732C482.942 358.067 482.533 358.363 482.095 358.62C481.666 358.907 481.32 359.098 481.055 359.193C480.555 359.372 480.062 359.433 479.576 359.375C479.101 359.346 478.634 359.248 478.176 359.081C477.717 358.913 477.263 358.711 476.813 358.474C476.392 358.227 475.986 357.974 475.594 357.716C474.111 356.821 472.545 355.789 470.898 354.621C469.25 353.453 467.746 352.316 466.386 351.21C466.429 351.328 466.496 351.47 466.589 351.635C466.682 351.801 466.749 351.943 466.791 352.061C467.072 352.657 467.338 353.259 467.589 353.866C467.859 354.433 468.149 355.01 468.459 355.596C468.615 355.938 468.771 356.281 468.927 356.623C469.102 356.926 469.287 357.257 469.483 357.619C469.711 358.068 469.939 358.518 470.167 358.967C470.394 359.417 470.598 359.891 470.778 360.391C470.999 361.009 470.971 361.484 470.691 361.817C470.423 362.179 469.995 362.465 469.406 362.676C468.995 362.824 468.543 362.953 468.051 363.063C467.559 363.173 467.061 363.219 466.557 363.201C466.052 363.183 465.571 363.09 465.112 362.923C464.654 362.756 464.252 362.468 463.906 362.061C463.691 361.74 463.366 361.11 462.929 360.171C462.492 359.232 462.033 358.184 461.552 357.029C461.061 355.844 460.569 354.659 460.077 353.475C459.615 352.279 459.227 351.29 458.912 350.506C458.849 350.33 458.781 350.188 458.71 350.081C458.667 349.963 458.625 349.846 458.583 349.728C458.274 349.607 457.978 349.43 457.696 349.2C457.414 348.969 457.226 348.721 457.131 348.456C456.993 348.074 456.945 347.709 456.987 347.362C457.028 347.016 457.09 346.678 457.171 346.35C455.696 342.796 454.315 339.224 453.027 335.636C451.961 332.665 450.934 329.713 449.948 326.78C448.98 323.807 447.998 320.84 447.001 317.877L445.012 311.918C444.935 311.613 444.813 311.226 444.644 310.755C444.475 310.284 444.296 309.784 444.105 309.255C443.873 308.608 443.63 307.931 443.377 307.226C443.124 306.52 442.901 305.853 442.709 305.224C442.516 304.596 442.345 304.027 442.195 303.516C442.045 303.006 441.972 302.617 441.976 302.35L441.991 302.394C441.951 301.911 441.996 301.529 442.128 301.249C442.26 300.969 442.576 300.74 443.076 300.56C444.312 300.117 445.4 300.141 446.34 300.634C447.28 301.126 447.972 301.99 448.416 303.226C449.123 305.196 449.816 307.172 450.494 309.153C451.19 311.095 451.878 313.056 452.556 315.037C453.234 317.018 453.912 318.999 454.589 320.981C455.286 322.922 455.988 324.878 456.696 326.848C456.949 327.554 457.208 328.275 457.472 329.01C457.754 329.706 458.028 330.421 458.292 331.156C458.532 331.734 458.763 332.332 458.985 332.949C459.207 333.567 459.439 334.214 459.682 334.891L461.723 325.592L461.739 325.636L461.851 324.699C461.886 324.521 461.893 324.402 461.872 324.343C461.881 324.274 461.884 324.189 461.881 324.091C461.898 323.952 461.938 323.738 462 323.45C462.092 323.152 462.26 322.693 462.503 322.075C462.597 321.875 462.726 321.679 462.889 321.488C463.053 321.296 463.297 321.142 463.62 321.026C463.944 320.91 464.304 320.897 464.702 320.987C465.118 321.036 465.511 321.161 465.882 321.36C466.252 321.559 466.589 321.803 466.892 322.093C467.195 322.383 467.399 322.675 467.505 322.969C467.589 323.204 467.605 323.663 467.551 324.347C467.487 325 467.382 325.818 467.237 326.8C467.12 327.772 466.972 328.838 466.791 329.998C466.599 331.129 466.383 332.286 466.144 333.468C465.933 334.639 465.727 335.775 465.525 336.877C465.323 337.979 465.142 338.957 464.984 339.811L464.502 342.075C465.601 343.009 466.85 344.038 468.25 345.163C469.668 346.247 471.136 347.33 472.653 348.413C474.171 349.495 475.682 350.513 477.186 351.467C478.72 352.411 480.167 353.203 481.526 353.844L482.094 354.039C482.541 354.177 483.025 354.368 483.545 354.613C484.054 354.829 484.382 355.143 484.53 355.555ZM487.2 317.344C487.327 317.697 487.3 318.038 487.12 318.368C486.969 318.688 486.749 319 486.459 319.303C486.159 319.577 485.828 319.812 485.467 320.008C485.135 320.193 484.851 320.328 484.616 320.413C484.263 320.539 483.914 320.631 483.57 320.689C483.214 320.716 482.859 320.744 482.504 320.772C482.149 320.8 481.814 320.837 481.498 320.884C481.173 320.902 480.848 320.968 480.524 321.084C480.083 321.243 479.668 321.475 479.28 321.78C478.892 322.086 478.568 322.434 478.31 322.825C478.053 323.217 477.875 323.646 477.776 324.113C477.708 324.569 477.758 325.032 477.927 325.503C478.18 326.209 478.581 326.862 479.128 327.462C479.665 328.033 480.296 328.587 481.02 329.124C481.773 329.651 482.591 330.171 483.472 330.684C484.373 331.158 485.308 331.636 486.278 332.118C487.468 332.753 488.664 333.402 489.866 334.067C491.097 334.721 492.24 335.456 493.297 336.272C494.383 337.077 495.357 337.989 496.221 339.007C497.084 340.025 497.748 341.181 498.213 342.476C498.614 343.593 498.782 344.662 498.716 345.682C498.68 346.691 498.435 347.625 497.98 348.486C497.554 349.336 496.929 350.092 496.104 350.753C495.319 351.433 494.382 351.969 493.294 352.359C493 352.465 492.523 352.57 491.863 352.674C491.233 352.767 490.498 352.848 489.659 352.917C488.81 352.956 487.926 352.991 487.008 353.022C486.119 353.042 485.283 353.027 484.501 352.975C483.738 352.884 483.083 352.771 482.536 352.635C482.008 352.459 481.697 352.239 481.602 351.974C481.475 351.621 481.51 351.21 481.707 350.741C481.893 350.243 482.154 349.767 482.49 349.315C482.815 348.833 483.176 348.404 483.572 348.03C483.998 347.644 484.373 347.393 484.697 347.277C485.138 347.119 485.631 347.058 486.175 347.095C486.749 347.122 487.334 347.178 487.929 347.263C488.593 347.356 489.247 347.42 489.89 347.455C490.563 347.479 491.208 347.38 491.826 347.159C492.296 346.99 492.503 346.733 492.446 346.388C492.418 346.033 492.33 345.65 492.182 345.238C491.813 344.209 491.288 343.301 490.608 342.516C489.917 341.702 489.134 340.953 488.258 340.272C487.383 339.59 486.429 338.969 485.398 338.41C484.357 337.821 483.321 337.246 482.29 336.687C481.229 336.138 480.184 335.583 479.153 335.024C478.151 334.453 477.218 333.842 476.353 333.19C475.478 332.508 474.7 331.774 474.019 330.989C473.369 330.194 472.858 329.281 472.489 328.252C472.035 326.987 471.908 325.754 472.108 324.554C472.297 323.324 472.701 322.183 473.319 321.131C473.967 320.068 474.781 319.145 475.762 318.361C476.761 317.538 477.834 316.92 478.982 316.508C479.364 316.371 479.984 316.248 480.841 316.14C481.688 316.002 482.547 315.943 483.417 315.962C484.287 315.982 485.091 316.092 485.827 316.293C486.563 316.493 487.02 316.844 487.2 317.344ZM508.486 332.662C508.951 333.957 508.595 334.815 507.418 335.237C507.065 335.364 506.608 335.478 506.047 335.58C505.515 335.671 504.953 335.723 504.36 335.737C503.768 335.751 503.208 335.719 502.683 335.642C502.176 335.525 501.776 335.336 501.484 335.076C501.101 334.749 500.83 334.365 500.671 333.924C500.503 333.453 500.328 332.968 500.149 332.468C497.629 326.001 495.065 319.6 492.459 313.264C489.872 306.889 487.269 300.469 484.65 294.005C484.095 292.644 483.54 291.282 482.985 289.921C482.419 288.53 481.883 287.129 481.376 285.717C481.133 285.041 481.027 284.514 481.058 284.138C481.079 283.732 481.471 283.392 482.236 283.118C482.618 282.98 483.051 282.891 483.535 282.851C484.008 282.781 484.472 282.78 484.928 282.849C485.403 282.877 485.841 282.986 486.241 283.174C486.659 283.323 487.011 283.562 487.295 283.892C487.468 284.095 487.85 284.838 488.443 286.119C489.065 287.39 489.825 289.043 490.721 291.078C491.607 293.085 492.594 295.37 493.68 297.935C494.767 300.5 495.885 303.153 497.035 305.895C498.204 308.596 499.358 311.303 500.498 314.015C501.627 316.697 502.672 319.194 503.635 321.505C504.626 323.805 505.483 325.822 506.205 327.555C506.956 329.277 507.518 330.52 507.891 331.282C507.976 331.518 508.075 331.748 508.189 331.972C508.302 332.197 508.402 332.427 508.486 332.662ZM504.201 342.368C504.095 342.074 504.119 341.817 504.272 341.596C504.414 341.345 504.622 341.138 504.895 340.974C505.187 340.769 505.48 340.614 505.774 340.509C506.098 340.393 506.377 340.292 506.613 340.208C506.907 340.102 507.25 339.995 507.643 339.888C508.055 339.74 508.458 339.661 508.854 339.652C509.238 339.614 509.59 339.67 509.91 339.821C510.249 339.932 510.487 340.178 510.624 340.561C510.677 340.708 510.778 341.037 510.928 341.547C511.097 342.018 511.267 342.538 511.438 343.107C511.639 343.666 511.794 344.191 511.904 344.683C512.033 345.135 512.088 345.381 512.069 345.421C512.009 345.808 511.793 346.084 511.421 346.251C511.06 346.447 510.703 346.608 510.35 346.735C509.468 347.052 508.79 347.245 508.317 347.315C507.844 347.386 507.457 347.325 507.156 347.134C506.885 346.933 506.621 346.613 506.363 346.174C506.136 345.724 505.826 345.138 505.434 344.416C505.248 344.084 505.033 343.763 504.789 343.452C504.545 343.141 504.348 342.78 504.201 342.368Z" fill="#424242"/>
<path d="M457.478 672.817C457.799 673.389 457.931 674.103 457.874 674.959C457.817 675.816 457.627 676.531 457.305 677.106C457.215 677.264 457.029 677.476 456.748 677.742C456.467 678.007 456.158 678.287 455.823 678.583C455.499 678.837 455.183 679.104 454.875 679.384C454.578 679.622 454.342 679.808 454.167 679.943L458.543 685.442C459.898 687.154 461.179 688.925 462.386 690.757C463.605 692.545 465.007 694.213 466.592 695.76C466.739 695.893 466.877 696.012 467.008 696.118C467.139 696.224 467.266 696.386 467.388 696.604C467.587 696.958 467.631 697.292 467.52 697.605C467.436 697.902 467.268 698.176 467.014 698.426C466.802 698.688 466.541 698.925 466.229 699.135C465.917 699.346 465.625 699.528 465.353 699.681L464.781 700.002C463.936 700.476 463.243 700.775 462.704 700.899C462.191 701.008 461.721 700.967 461.292 700.778C460.863 700.588 460.47 700.271 460.113 699.827C459.741 699.355 459.293 698.782 458.771 698.107C455.318 693.487 451.784 688.913 448.167 684.385C446.6 685.552 445.011 686.712 443.402 687.866C441.819 689.005 440.215 690.138 438.59 691.265L441.779 700.011C442 700.533 442.293 701.246 442.658 702.152C443.05 703.043 443.431 703.976 443.799 704.952C444.18 705.885 444.502 706.779 444.767 707.634C445.059 708.473 445.209 709.124 445.217 709.585C445.237 710.004 445.217 710.319 445.158 710.532C445.098 710.745 444.877 710.958 444.496 711.173C444.005 711.448 443.461 711.628 442.864 711.712C442.309 711.809 441.748 711.801 441.183 711.688C440.661 711.587 440.168 711.38 439.706 711.066C439.243 710.752 438.858 710.323 438.553 709.778C438.247 709.233 437.995 708.657 437.798 708.051C437.629 707.43 437.432 706.823 437.208 706.232C436.498 704.266 435.769 702.328 435.02 700.419C434.255 698.483 433.526 696.545 432.832 694.605C432.626 694.685 432.385 694.766 432.109 694.85C431.818 694.905 431.519 694.948 431.213 694.976C430.933 694.99 430.666 694.961 430.411 694.889C430.156 694.817 429.967 694.672 429.844 694.454C429.691 694.182 429.649 693.883 429.718 693.558C429.798 693.19 429.921 692.834 430.086 692.491C430.264 692.105 430.464 691.759 430.687 691.455C430.895 691.123 431.085 690.855 431.257 690.651C429.688 686.514 428.1 682.407 426.491 678.329C424.883 674.25 423.198 670.161 421.434 666.062C420.962 664.965 420.469 663.863 419.954 662.754C419.439 661.645 418.924 660.537 418.41 659.428C417.922 658.304 417.456 657.186 417.011 656.074C416.593 654.947 416.23 653.789 415.921 652.6C415.616 651.482 415.581 650.462 415.817 649.541C416.053 648.621 416.729 647.847 417.847 647.22C418.174 647.036 418.502 646.887 418.833 646.774C419.19 646.645 419.538 646.593 419.875 646.619C420.782 646.575 422.061 647.13 423.711 648.282C425.361 649.434 427.202 650.927 429.235 652.761C431.252 654.567 433.335 656.587 435.485 658.821C437.662 661.039 439.725 663.214 441.674 665.346C443.622 667.477 445.36 669.423 446.885 671.183C448.395 672.915 449.513 674.205 450.239 675.052C450.765 674.649 451.299 674.259 451.841 673.884C452.368 673.481 452.917 673.119 453.489 672.798C453.762 672.645 454.083 672.482 454.452 672.311C454.822 672.139 455.195 672.037 455.571 672.005C455.959 671.931 456.317 671.963 456.646 672.101C456.986 672.196 457.263 672.435 457.478 672.817ZM444.459 679.694C441.578 676.222 438.653 672.829 435.682 669.515C432.723 666.159 429.622 662.9 426.379 659.739C428.198 664.13 429.961 668.516 431.667 672.897C433.374 677.279 435.04 681.683 436.665 686.111C438.014 685.067 439.328 684.025 440.608 682.984C441.899 681.901 443.183 680.804 444.459 679.694ZM477.094 691.102C477.446 691.729 477.484 692.245 477.21 692.65C476.963 693.039 476.58 693.379 476.062 693.67C475.599 693.93 475.113 694.149 474.604 694.328C474.137 694.518 473.646 694.632 473.13 694.671C472.642 694.694 472.156 694.627 471.672 694.468C471.216 694.294 470.788 693.978 470.389 693.522C469.09 692.101 467.977 690.629 467.051 689.106C466.109 687.556 465.172 685.95 464.239 684.288L461.417 679.26C460.132 676.971 458.897 674.547 457.711 671.987C456.51 669.4 455.376 666.901 454.309 664.489C454.263 664.408 454.223 664.305 454.189 664.18C454.155 664.056 454.123 663.967 454.092 663.912C453.951 663.597 453.809 663.247 453.664 662.862C453.52 662.477 453.426 662.118 453.382 661.784C453.35 661.408 453.389 661.064 453.5 660.75C453.639 660.422 453.898 660.151 454.28 659.937C454.716 659.692 455.178 659.558 455.667 659.534C456.167 659.469 456.652 659.501 457.12 659.633C457.572 659.737 457.995 659.948 458.388 660.265C458.808 660.566 459.141 660.935 459.385 661.371C459.646 661.835 459.922 662.36 460.216 662.948C460.495 663.508 460.745 664.049 460.966 664.57C461.042 664.706 461.113 664.863 461.177 665.042C461.269 665.206 461.339 665.363 461.389 665.515C461.342 664.538 461.334 663.503 461.366 662.41C461.382 661.29 461.513 660.213 461.757 659.18C462.013 658.104 462.401 657.135 462.919 656.27C463.465 655.391 464.214 654.683 465.168 654.148C465.958 653.704 466.681 653.46 467.337 653.415C467.992 653.369 468.6 653.494 469.16 653.789C469.731 654.042 470.24 654.437 470.685 654.975C471.158 655.498 471.586 656.1 471.968 656.782C472.488 657.708 472.989 658.664 473.469 659.648C473.935 660.605 474.4 661.562 474.866 662.52C475.32 663.519 475.779 664.498 476.245 665.455C476.71 666.412 477.211 667.367 477.746 668.321C478.388 669.466 479.081 670.636 479.824 671.831C480.551 673 481.283 674.112 482.019 675.168C482.74 676.197 483.421 677.123 484.062 677.946C484.687 678.741 485.206 679.346 485.618 679.76C485.956 680.108 486.333 680.524 486.748 681.007C487.175 681.449 487.603 681.925 488.033 682.436C488.475 682.904 488.883 683.375 489.255 683.847C489.627 684.318 489.928 684.759 490.158 685.168C490.494 685.767 490.463 686.286 490.064 686.725C489.693 687.149 489.276 687.49 488.812 687.75C488.349 688.01 487.795 688.268 487.149 688.523C486.546 688.789 485.944 688.93 485.344 688.945C484.542 688.857 483.839 688.499 483.235 687.87C482.659 687.226 482.145 686.565 481.692 685.887L480.95 684.853C480.502 684.244 479.911 683.447 479.178 682.461C478.445 681.475 477.651 680.379 476.796 679.175C475.968 677.955 475.131 676.687 474.285 675.37C473.423 674.027 472.625 672.701 471.891 671.392C471.233 670.221 470.639 669.067 470.109 667.931C469.606 666.78 469.096 665.615 468.578 664.436C468.311 663.834 468.092 663.347 467.92 662.978C467.749 662.608 467.529 662.122 467.263 661.519C467.207 662.697 467.236 664.025 467.348 665.503C467.461 666.98 467.632 668.497 467.86 670.053C468.073 671.582 468.312 673.061 468.576 674.489C468.867 675.902 469.156 677.12 469.443 678.142L469.703 679.178C469.811 679.691 469.933 680.196 470.069 680.693C470.232 681.175 470.42 681.607 470.635 681.988C470.91 682.479 471.258 683.036 471.68 683.659C472.086 684.255 472.491 684.817 472.894 685.343C473.358 685.978 473.843 686.62 474.35 687.267C474.381 687.322 474.507 687.483 474.73 687.753C474.953 688.022 475.206 688.345 475.49 688.724C475.774 689.102 476.06 689.515 476.347 689.963C476.646 690.368 476.895 690.748 477.094 691.102ZM510.343 671.043C510.511 671.343 510.589 671.64 510.575 671.934C510.546 672.202 510.46 672.464 510.319 672.723C510.189 672.939 510.017 673.143 509.802 673.335C509.615 673.512 509.412 673.662 509.194 673.784C508.867 673.968 508.49 674.126 508.063 674.258C507.635 674.391 507.192 674.496 506.734 674.574C506.261 674.624 505.8 674.632 505.35 674.598C504.913 674.521 504.528 674.378 504.197 674.17C503.865 673.962 503.536 673.663 503.209 673.273C502.895 672.84 502.58 672.408 502.266 671.975C502.36 672.782 502.393 673.606 502.363 674.447C502.361 675.272 502.238 676.076 501.996 676.857C501.738 677.611 501.358 678.308 500.857 678.947C500.399 679.599 499.774 680.146 498.984 680.59C497.594 681.37 496.28 681.678 495.041 681.513C493.829 681.333 492.702 680.89 491.661 680.185C490.632 679.436 489.707 678.522 488.886 677.442C488.076 676.32 487.366 675.213 486.754 674.123C486.249 673.224 485.717 672.179 485.156 670.989C484.595 669.798 484.047 668.565 483.51 667.29C482.973 666.014 482.487 664.764 482.05 663.54C481.599 662.288 481.237 661.165 480.966 660.171C480.672 659.01 480.38 657.722 480.088 656.309C479.809 654.854 479.678 653.44 479.697 652.068C479.727 650.653 479.985 649.326 480.472 648.085C480.958 646.845 481.805 645.832 483.012 645.046C481.692 642.885 480.43 640.923 479.226 639.162C478.035 637.358 476.806 635.521 475.542 633.651L472.586 629.343L471.505 627.8C471.206 627.394 470.92 626.981 470.648 626.56C470.361 626.113 470.095 625.671 469.85 625.235C469.498 624.608 469.417 624.08 469.606 623.651C469.823 623.207 470.204 622.832 470.749 622.526C471.948 621.853 472.96 621.518 473.786 621.52C474.612 621.523 475.315 621.755 475.897 622.217C476.506 622.663 477.054 623.288 477.54 624.09C478.01 624.865 478.506 625.716 479.026 626.642C479.362 627.242 479.813 627.885 480.377 628.572L481.431 629.969L484.098 633.955C484.519 634.579 484.941 635.202 485.363 635.825C485.784 636.449 486.206 637.072 486.627 637.696L492.418 646.002L503.277 661.517L504.248 662.961C504.984 664.017 505.73 665.121 506.484 666.275C507.266 667.412 508.122 668.491 509.053 669.51C509.303 669.764 509.531 670.011 509.739 670.253C509.973 670.48 510.175 670.743 510.343 671.043ZM487.397 652.476C487.229 652.176 487.032 651.857 486.806 651.518C486.592 651.136 486.393 650.782 486.209 650.455L485.59 649.351C485.552 649.731 485.521 650.25 485.497 650.909C485.457 651.54 485.462 652.093 485.513 652.566C485.612 653.764 485.905 655.213 486.392 656.91C486.864 658.581 487.422 660.31 488.068 662.098C488.725 663.843 489.421 665.531 490.157 667.161C490.877 668.763 491.528 670.082 492.109 671.118C492.323 671.499 492.568 671.935 492.843 672.426C493.146 672.901 493.483 673.375 493.856 673.846C494.213 674.291 494.603 674.699 495.026 675.071C495.45 675.442 495.882 675.701 496.323 675.848C496.441 675.101 496.365 674.104 496.096 672.858C495.811 671.584 495.395 670.205 494.849 668.72C494.314 667.193 493.7 665.62 493.007 664.002C492.314 662.384 491.61 660.844 490.897 659.381C490.195 657.876 489.529 656.529 488.899 655.342C488.28 654.113 487.78 653.157 487.397 652.476ZM541.336 641.983C541.489 642.256 541.591 642.628 541.641 643.102C541.704 643.533 541.727 644.021 541.712 644.568C541.708 645.071 541.684 645.604 541.641 646.166C541.598 646.728 541.546 647.241 541.484 647.705L541.353 648.908L541.336 650.315L541.355 651.594C541.688 652.124 542.058 652.687 542.464 653.283C542.871 653.879 543.262 654.448 543.637 654.99C545.512 657.629 547.377 660.345 549.232 663.138C551.114 665.916 552.842 668.709 554.418 671.516C555.259 673.015 555.985 674.596 556.597 676.26C557.223 677.95 557.54 679.6 557.547 681.209C557.596 682.83 557.257 684.364 556.529 685.812C555.801 687.26 554.524 688.496 552.698 689.521C551.444 690.225 550.251 690.589 549.119 690.616C547.987 690.642 546.927 690.413 545.938 689.928C544.992 689.456 544.106 688.771 543.28 687.873C542.453 686.975 541.726 685.967 541.099 684.85C539.86 682.643 538.865 680.263 538.113 677.71C537.362 675.158 536.775 672.549 536.354 669.882C535.96 667.201 535.697 664.499 535.567 661.777C535.452 659.082 535.397 656.462 535.401 653.915C535.37 653.86 535.34 653.806 535.309 653.751C535.263 653.67 535.181 653.555 535.062 653.406C535.075 654.259 535.048 655.17 534.983 656.139C534.929 657.065 534.769 657.961 534.503 658.827C534.263 659.678 533.903 660.472 533.42 661.208C532.965 661.93 532.329 662.52 531.511 662.979C530.367 663.621 529.26 663.884 528.191 663.767C527.122 663.65 526.119 663.299 525.181 662.715C524.271 662.115 523.438 661.364 522.681 660.463C521.924 659.562 521.294 658.661 520.789 657.762C520.208 656.726 519.689 655.674 519.232 654.605C518.802 653.52 518.401 652.455 518.03 651.409C517.446 649.73 516.861 647.89 516.275 645.889C515.702 643.846 515.239 641.777 514.887 639.681C514.52 637.558 514.309 635.49 514.254 633.478C514.227 631.45 514.467 629.578 514.972 627.861L515.139 627.391C515.294 626.838 515.512 626.268 515.791 625.681C516.056 625.067 516.433 624.622 516.924 624.347C517.223 624.178 517.528 624.115 517.838 624.156C518.175 624.182 518.502 624.285 518.818 624.466C519.119 624.619 519.395 624.823 519.645 625.077C519.922 625.315 520.137 625.571 520.29 625.843C520.474 626.171 520.55 626.594 520.519 627.113L520.601 627.067C522.263 626.134 523.809 626.27 525.237 627.475C525.69 627.579 526.092 627.784 526.442 628.089C526.82 628.378 527.131 628.741 527.376 629.177C527.498 629.395 527.622 629.648 527.748 629.936C527.858 630.197 527.947 630.451 528.015 630.7C528.098 630.976 528.187 631.23 528.282 631.463C528.378 631.697 528.479 631.909 528.586 632.1C528.938 632.726 529.387 633.495 529.934 634.407C530.482 635.318 531.065 636.262 531.686 637.24C532.306 638.218 532.919 639.182 533.524 640.132C534.141 641.04 534.676 641.833 535.128 642.511C535.181 642.159 535.277 641.818 535.415 641.49C535.581 641.146 535.84 640.875 536.195 640.676C536.494 640.508 536.896 640.426 537.4 640.429C537.931 640.418 538.452 640.484 538.963 640.628C539.5 640.756 539.985 640.949 540.418 641.209C540.862 641.425 541.168 641.683 541.336 641.983ZM520.643 631.451C520.551 631.288 520.451 631.111 520.344 630.92C520.264 630.714 520.191 630.486 520.123 630.238L520.043 630.766C519.963 631.134 519.888 631.48 519.82 631.805C519.752 632.13 519.705 632.461 519.679 632.799C519.551 634.232 519.682 635.932 520.07 637.901C520.47 639.826 521.005 641.801 521.675 643.826C522.331 645.824 523.052 647.748 523.84 649.599C524.656 651.435 525.415 652.979 526.119 654.233C526.471 654.86 526.836 655.479 527.215 656.09C527.594 656.702 528.074 657.239 528.656 657.7C528.808 657.078 528.877 656.466 528.862 655.865C528.832 655.237 528.781 654.602 528.708 653.962C528.558 652.29 528.204 650.447 527.646 648.43C527.088 646.414 526.417 644.39 525.635 642.357C524.852 640.323 524.024 638.369 523.15 636.494C522.262 634.592 521.426 632.911 520.643 631.451ZM548.252 673.364C547.212 671.511 546.192 669.79 545.193 668.2C544.209 666.638 543.115 664.977 541.911 663.216C542.078 664.663 542.278 666.199 542.509 667.825C542.784 669.463 543.112 671.07 543.496 672.647C543.894 674.251 544.353 675.803 544.873 677.303C545.392 678.803 545.996 680.167 546.684 681.393L546.845 681.679C547.197 682.306 547.612 682.95 548.092 683.613C548.587 684.303 549.182 684.757 549.878 684.976L550.328 684.723C550.873 684.418 551.215 683.974 551.355 683.394C551.538 682.826 551.591 682.186 551.515 681.477C551.439 680.767 551.271 680.019 551.009 679.234C550.748 678.449 550.446 677.687 550.102 676.948C549.759 676.209 549.412 675.526 549.06 674.899C548.735 674.257 548.466 673.745 548.252 673.364ZM559.75 635.142C560.209 635.959 560.452 636.934 560.478 638.066C560.531 639.183 560.41 640.308 560.115 641.441C559.804 642.548 559.315 643.592 558.649 644.576C558.009 645.544 557.24 646.28 556.341 646.785C555.06 647.504 553.819 647.878 552.617 647.907C551.4 647.91 550.213 647.68 549.058 647.217C547.887 646.728 546.778 646.06 545.73 645.215C544.709 644.354 543.755 643.42 542.868 642.414C541.965 641.379 541.138 640.321 540.386 639.237C539.647 638.111 539.009 637.071 538.474 636.118C538.015 635.3 537.513 634.31 536.968 633.147C536.45 631.968 535.963 630.718 535.508 629.397C535.08 628.06 534.742 626.691 534.493 625.29C534.244 623.889 534.159 622.557 534.239 621.294C534.346 620.015 534.661 618.853 535.184 617.806C535.735 616.745 536.569 615.9 537.687 615.273C538.559 614.784 539.435 614.525 540.315 614.497C541.222 614.453 542.076 614.601 542.876 614.941C543.687 615.238 544.43 615.699 545.103 616.324C545.804 616.935 546.384 617.648 546.843 618.466C547.439 619.529 547.844 620.825 548.057 622.353C548.27 623.882 548.31 625.454 548.178 627.07C548.073 628.67 547.797 630.222 547.351 631.726C546.918 633.188 546.361 634.432 545.683 635.458C546.013 635.918 546.527 636.579 547.226 637.441C547.91 638.276 548.648 639.08 549.44 639.853C550.26 640.612 551.052 641.224 551.816 641.692C552.607 642.143 553.275 642.216 553.82 641.911C554.092 641.758 554.278 641.546 554.377 641.275C554.503 640.989 554.572 640.664 554.582 640.3C554.593 639.936 554.561 639.559 554.486 639.171C554.439 638.768 554.386 638.386 554.327 638.025L554.251 637.315C554.259 637.202 554.256 637.133 554.241 637.105C554.253 637.063 554.257 637.007 554.254 636.937C554.245 636.475 554.239 636.049 554.234 635.658C554.257 635.251 554.37 634.846 554.575 634.445L554.534 634.468C554.582 634.298 554.66 634.182 554.769 634.121C554.89 634.017 555.005 633.935 555.114 633.873C555.414 633.705 555.795 633.617 556.256 633.609C556.717 633.601 557.182 633.663 557.65 633.794C558.103 633.898 558.524 634.074 558.913 634.321C559.288 634.541 559.567 634.815 559.75 635.142ZM541.539 621.658C541.386 621.385 541.212 621.107 541.016 620.822C540.821 620.538 540.607 620.317 540.376 620.16C540.254 620.838 540.227 621.588 540.295 622.41C540.374 623.19 540.517 623.987 540.724 624.803C540.916 625.591 541.142 626.378 541.404 627.163C541.692 627.933 541.978 628.633 542.26 629.263C542.494 628.02 542.585 626.715 542.534 625.346C542.467 623.95 542.135 622.721 541.539 621.658ZM572.5 637.554C572.852 638.181 572.89 638.697 572.616 639.101C572.369 639.491 571.986 639.831 571.468 640.122C571.005 640.382 570.519 640.601 570.01 640.779C569.543 640.969 569.052 641.084 568.536 641.123C568.048 641.146 567.562 641.078 567.078 640.919C566.622 640.745 566.194 640.43 565.795 639.973C564.496 638.553 563.383 637.081 562.456 635.558C561.515 634.008 560.578 632.402 559.645 630.74L556.823 625.712C555.538 623.423 554.302 620.998 553.117 618.439C551.916 615.852 550.782 613.352 549.715 610.941C549.669 610.859 549.629 610.756 549.595 610.632C549.561 610.508 549.529 610.418 549.498 610.364C549.357 610.049 549.215 609.699 549.07 609.314C548.926 608.929 548.832 608.57 548.788 608.236C548.756 607.86 548.795 607.515 548.906 607.202C549.045 606.874 549.304 606.602 549.686 606.388C550.122 606.144 550.584 606.009 551.073 605.986C551.573 605.92 552.058 605.953 552.526 606.084C552.978 606.189 553.401 606.399 553.794 606.716C554.214 607.018 554.547 607.387 554.791 607.823C555.051 608.286 555.328 608.812 555.622 609.399C555.901 609.96 556.151 610.5 556.372 611.021C556.448 611.158 556.519 611.315 556.583 611.494C556.675 611.657 556.745 611.815 556.795 611.966C556.748 610.989 556.74 609.954 556.772 608.861C556.788 607.741 556.919 606.665 557.163 605.632C557.419 604.556 557.807 603.586 558.325 602.722C558.871 601.842 559.62 601.135 560.574 600.6C561.364 600.156 562.087 599.912 562.743 599.866C563.398 599.821 564.006 599.946 564.565 600.241C565.137 600.493 565.646 600.889 566.091 601.427C566.564 601.95 566.992 602.552 567.374 603.233C567.894 604.16 568.395 605.115 568.875 606.1C569.341 607.057 569.806 608.014 570.272 608.971C570.726 609.971 571.185 610.949 571.651 611.906C572.116 612.863 572.617 613.819 573.152 614.773C573.794 615.917 574.487 617.087 575.23 618.283C575.957 619.452 576.689 620.564 577.425 621.62C578.146 622.649 578.827 623.575 579.468 624.397C580.093 625.193 580.612 625.798 581.024 626.212C581.362 626.559 581.739 626.975 582.154 627.459C582.581 627.9 583.009 628.376 583.439 628.888C583.881 629.356 584.289 629.826 584.661 630.298C585.033 630.77 585.334 631.21 585.564 631.619C585.9 632.219 585.869 632.738 585.47 633.177C585.099 633.6 584.681 633.942 584.218 634.202C583.755 634.462 583.201 634.719 582.555 634.974C581.952 635.241 581.35 635.382 580.75 635.396C579.948 635.309 579.245 634.951 578.641 634.322C578.065 633.678 577.551 633.017 577.098 632.339L576.356 631.304C575.907 630.696 575.317 629.899 574.584 628.912C573.851 627.926 573.057 626.831 572.202 625.627C571.374 624.407 570.537 623.139 569.69 621.822C568.829 620.478 568.031 619.152 567.297 617.844C566.639 616.672 566.045 615.518 565.515 614.383C565.012 613.231 564.502 612.066 563.984 610.888C563.717 610.285 563.498 609.799 563.326 609.429C563.155 609.06 562.935 608.574 562.669 607.971C562.613 609.149 562.642 610.477 562.754 611.954C562.867 613.432 563.038 614.949 563.266 616.505C563.479 618.034 563.718 619.512 563.982 620.941C564.273 622.354 564.562 623.572 564.849 624.593L565.109 625.63C565.217 626.143 565.339 626.647 565.475 627.145C565.638 627.627 565.826 628.058 566.041 628.44C566.316 628.93 566.664 629.487 567.086 630.111C567.492 630.707 567.897 631.268 568.3 631.795C568.764 632.43 569.249 633.071 569.756 633.719C569.787 633.773 569.913 633.935 570.136 634.204C570.359 634.473 570.612 634.797 570.896 635.175C571.18 635.553 571.466 635.966 571.753 636.414C572.052 636.82 572.301 637.2 572.5 637.554ZM599.809 612.658C600.268 613.475 600.511 614.45 600.537 615.582C600.59 616.699 600.469 617.824 600.174 618.958C599.863 620.064 599.374 621.109 598.708 622.092C598.068 623.06 597.299 623.796 596.4 624.301C595.119 625.02 593.878 625.394 592.676 625.424C591.459 625.426 590.272 625.196 589.117 624.733C587.946 624.244 586.837 623.576 585.789 622.731C584.769 621.87 583.814 620.937 582.927 619.93C582.024 618.895 581.197 617.837 580.445 616.753C579.706 615.627 579.068 614.588 578.533 613.634C578.074 612.816 577.572 611.826 577.027 610.663C576.509 609.484 576.022 608.234 575.567 606.913C575.139 605.576 574.801 604.207 574.552 602.806C574.303 601.405 574.219 600.073 574.298 598.81C574.405 597.531 574.72 596.369 575.244 595.323C575.794 594.261 576.628 593.416 577.746 592.789C578.618 592.3 579.494 592.041 580.374 592.013C581.281 591.97 582.135 592.118 582.935 592.457C583.746 592.754 584.489 593.215 585.162 593.841C585.863 594.451 586.443 595.164 586.902 595.982C587.498 597.045 587.903 598.341 588.116 599.87C588.329 601.398 588.37 602.97 588.237 604.586C588.132 606.186 587.856 607.738 587.41 609.243C586.977 610.704 586.421 611.948 585.742 612.974C586.072 613.434 586.586 614.095 587.285 614.957C587.969 615.792 588.707 616.596 589.499 617.37C590.319 618.128 591.111 618.741 591.875 619.208C592.666 619.66 593.334 619.733 593.879 619.427C594.151 619.274 594.337 619.062 594.436 618.791C594.562 618.505 594.631 618.18 594.641 617.816C594.652 617.452 594.62 617.076 594.545 616.687C594.498 616.284 594.445 615.902 594.386 615.541L594.31 614.831C594.318 614.718 594.315 614.649 594.3 614.621C594.312 614.579 594.316 614.523 594.313 614.453C594.305 613.992 594.298 613.565 594.293 613.174C594.316 612.767 594.429 612.363 594.634 611.961L594.593 611.984C594.641 611.814 594.719 611.698 594.828 611.637C594.949 611.533 595.064 611.451 595.173 611.39C595.473 611.221 595.854 611.133 596.315 611.125C596.776 611.117 597.241 611.179 597.709 611.31C598.162 611.415 598.583 611.59 598.973 611.837C599.347 612.057 599.626 612.331 599.809 612.658ZM581.598 599.174C581.445 598.901 581.271 598.623 581.075 598.339C580.88 598.054 580.666 597.833 580.435 597.677C580.314 598.354 580.286 599.104 580.354 599.926C580.433 600.706 580.576 601.503 580.783 602.319C580.975 603.107 581.201 603.894 581.463 604.679C581.751 605.449 582.037 606.149 582.319 606.779C582.553 605.536 582.644 604.231 582.593 602.862C582.526 601.466 582.194 600.237 581.598 599.174ZM610.098 617.58C609.689 617.81 609.209 618.008 608.657 618.174C608.132 618.325 607.583 618.4 607.01 618.4C606.463 618.384 605.941 618.283 605.442 618.097C604.956 617.868 604.567 617.495 604.276 616.977C603.848 616.214 603.455 615.45 603.096 614.683C602.75 613.874 602.411 613.079 602.08 612.297L602.103 612.338L600.811 609.462C600.342 608.435 599.806 607.32 599.203 606.118C598.599 604.916 597.975 603.707 597.329 602.493C596.695 601.236 596.063 600.014 595.433 598.827C594.802 597.64 594.212 596.556 593.661 595.575C593.34 595.002 593.005 594.438 592.657 593.881C592.32 593.281 591.984 592.682 591.647 592.082C591.329 591.58 590.995 591.015 590.643 590.388C590.276 589.734 589.939 589.135 589.633 588.59C589.312 588.018 589.12 587.516 589.058 587.085C589.007 586.612 589.336 586.177 590.045 585.779C590.671 585.427 591.417 585.223 592.282 585.168C593.174 585.097 593.925 585.285 594.534 585.732L594.493 585.755C594.797 585.978 595.168 586.415 595.605 587.066C596.054 587.674 596.437 588.229 596.755 588.732C596.82 587.763 596.918 586.723 597.046 585.612C597.202 584.485 597.437 583.403 597.751 582.367C598.05 581.303 598.459 580.339 598.977 579.475C599.496 578.611 600.191 577.934 601.063 577.445C602.207 576.802 603.24 576.599 604.161 576.835C605.081 577.07 605.923 577.548 606.685 578.267C607.431 578.959 608.094 579.787 608.672 580.753C609.234 581.692 609.737 582.556 610.181 583.346L610.364 583.673C610.548 584 610.718 584.335 610.874 584.677C611.042 584.977 611.148 585.294 611.192 585.628C611.248 585.919 611.199 586.215 611.046 586.516C610.92 586.802 610.652 587.06 610.243 587.289C609.807 587.534 609.314 587.739 608.762 587.906C608.195 588.045 607.625 588.114 607.051 588.113C606.504 588.097 605.982 587.997 605.483 587.811C604.969 587.597 604.561 587.253 604.259 586.778C604.136 586.56 604.014 586.342 603.892 586.124C603.769 585.906 603.66 585.68 603.565 585.447C603.489 585.311 603.397 585.147 603.29 584.956C603.195 584.723 603.094 584.511 602.987 584.32C602.604 585.682 602.432 587.194 602.469 588.857C602.534 590.505 602.699 592.204 602.965 593.954C603.258 595.689 603.627 597.4 604.071 599.085C604.5 600.744 604.907 602.235 605.292 603.56L605.361 603.683C605.754 604.573 606.166 605.435 606.597 606.268C607.029 607.101 607.476 607.961 607.938 608.848C608.461 609.844 608.979 610.862 609.49 611.901C610.029 612.925 610.511 613.944 610.938 614.959C611.174 615.507 611.232 615.994 611.112 616.419C611.035 616.857 610.697 617.244 610.098 617.58ZM642.134 598.041C642.439 598.586 642.51 599.03 642.344 599.374C642.194 599.745 641.874 600.068 641.383 600.343C640.102 601.062 638.985 601.242 638.03 600.881C637.103 600.506 636.189 599.836 635.29 598.872C634.994 598.536 634.698 598.201 634.402 597.865C634.091 597.502 633.801 597.145 633.532 596.794C633.279 596.471 633.087 596.256 632.956 596.15C632.825 596.045 632.625 595.816 632.356 595.465C632.473 596.439 632.531 597.5 632.529 598.647C632.54 599.752 632.439 600.848 632.225 601.936C631.996 602.996 631.616 603.98 631.086 604.886C630.583 605.778 629.868 606.484 628.942 607.004C627.961 607.554 627.013 607.782 626.099 607.685C625.17 607.562 624.316 607.253 623.536 606.759C622.769 606.222 622.059 605.563 621.406 604.783C620.78 603.987 620.246 603.194 619.802 602.404C618.762 600.551 617.815 598.449 616.961 596.097C616.119 593.703 615.421 591.246 614.866 588.726C614.297 586.179 613.89 583.666 613.645 581.187C613.385 578.681 613.353 576.388 613.547 574.308L613.57 574.349L613.609 573.843C613.679 573.266 613.775 572.639 613.896 571.962C614.03 571.242 614.369 570.729 614.914 570.423C615.432 570.132 616.012 570.111 616.653 570.361C617.279 570.582 617.812 570.893 618.251 571.291C619.036 571.03 619.707 570.886 620.266 570.859C620.809 570.805 621.287 570.859 621.701 571.021C622.114 571.184 622.476 571.446 622.788 571.809C623.084 572.145 623.362 572.544 623.622 573.007C623.729 573.198 623.843 573.402 623.966 573.62C624.088 573.838 624.197 574.064 624.292 574.297C624.387 574.531 624.519 574.797 624.687 575.097C624.855 575.397 625.008 575.669 625.146 575.915C625.299 576.187 625.538 576.518 625.865 576.909C626.219 577.283 626.58 577.672 626.949 578.074L628.084 579.426C628.664 580.14 629.278 580.978 629.925 581.94C630.6 582.887 631.289 583.827 631.991 584.758C632.681 585.733 633.356 586.68 634.016 587.6C634.66 588.492 635.266 589.317 635.834 590.073L640.211 595.572L640.723 596.198C640.977 596.522 641.215 596.818 641.437 597.088C641.687 597.342 641.919 597.659 642.134 598.041ZM619.581 579.791C619.55 579.736 619.491 579.662 619.402 579.568C619.298 579.447 619.195 579.326 619.091 579.205C619.214 580.892 619.473 582.664 619.87 584.52C620.279 586.333 620.778 588.149 621.369 589.968C621.971 591.744 622.65 593.495 623.404 595.222C624.17 596.906 624.959 598.471 625.769 599.915C625.846 600.051 625.915 600.174 625.976 600.283C626.037 600.392 626.112 600.493 626.2 600.587L626.223 600.628C626.311 599.252 626.128 597.617 625.674 595.722C625.231 593.784 624.669 591.825 623.986 589.843C623.288 587.833 622.534 585.945 621.722 584.179C620.921 582.371 620.208 580.908 619.581 579.791ZM653.058 591.264C653.227 591.564 653.304 591.861 653.29 592.155C653.261 592.423 653.168 592.672 653.011 592.903C652.881 593.119 652.702 593.31 652.472 593.475C652.284 593.652 652.081 593.801 651.863 593.923C651.564 594.092 651.187 594.25 650.732 594.397C650.32 594.557 649.885 594.676 649.427 594.754C648.969 594.831 648.523 594.867 648.089 594.86C647.666 594.81 647.29 594.681 646.958 594.473C646.641 594.292 646.208 593.872 645.659 593.213C645.122 592.511 644.537 591.693 643.905 590.757C643.257 589.795 642.592 588.77 641.911 587.684C641.214 586.57 640.548 585.51 639.912 584.505C639.303 583.485 638.756 582.574 638.27 581.772C637.796 580.927 637.444 580.3 637.215 579.891C636.144 577.984 635.139 576.129 634.199 574.327C633.271 572.483 632.321 570.597 631.347 568.671C631.211 568.748 631.082 568.838 630.961 568.941C630.84 569.045 630.712 569.135 630.576 569.212C630.252 569.465 629.907 569.712 629.541 569.954C629.202 570.18 628.842 570.4 628.46 570.614C627.997 570.874 627.542 571.022 627.096 571.057C626.65 571.093 626.266 570.824 625.945 570.252C625.563 569.57 625.407 568.941 625.477 568.364C625.547 567.787 625.753 567.26 626.094 566.782C626.42 566.276 626.832 565.83 627.331 565.442C627.815 565.027 628.3 564.647 628.788 564.302C628.869 564.256 628.924 564.226 628.951 564.211C628.963 564.168 629.01 564.124 629.092 564.078C628.935 563.736 628.741 563.325 628.508 562.847C628.26 562.341 627.989 561.794 627.695 561.207C627.218 560.292 626.723 559.315 626.212 558.276C625.685 557.21 625.189 556.199 624.723 555.241C624.243 554.257 623.844 553.388 623.528 552.633C623.197 551.852 622.988 551.288 622.902 550.942C622.839 550.512 622.828 550.141 622.87 549.832C622.938 549.506 623.217 549.206 623.708 548.931C624.798 548.319 625.842 548.199 626.839 548.571C627.836 548.943 628.625 549.647 629.206 550.683C629.879 551.882 630.511 553.104 631.103 554.349C631.721 555.578 632.347 556.822 632.981 558.078L634.029 560.232C634.664 559.768 635.276 559.263 635.866 558.717C636.443 558.214 637.029 557.724 637.622 557.248C638.242 556.756 638.865 556.335 639.492 555.983C640.037 555.677 640.543 555.59 641.011 555.721C641.464 555.826 641.843 556.15 642.149 556.695C642.486 557.295 642.706 557.942 642.809 558.637C642.912 559.331 642.775 559.981 642.398 560.587L642.439 560.564C642.361 560.68 642.08 560.945 641.596 561.36C641.097 561.748 640.516 562.181 639.853 562.661C639.218 563.125 638.582 563.589 637.947 564.053C637.339 564.502 636.879 564.832 636.567 565.042L636.526 565.065C637.328 566.622 638.136 568.157 638.95 569.672C639.749 571.158 640.577 572.665 641.433 574.191C642.611 576.289 643.92 578.493 645.359 580.803C646.811 583.07 648.283 585.182 649.776 587.14L651.135 588.795C651.504 589.198 651.86 589.607 652.202 590.025C652.528 590.415 652.814 590.828 653.058 591.264ZM671.589 572.37C672.047 573.188 672.29 574.163 672.316 575.295C672.37 576.412 672.249 577.537 671.953 578.67C671.642 579.776 671.153 580.821 670.487 581.804C669.848 582.772 669.078 583.509 668.179 584.014C666.898 584.732 665.657 585.107 664.455 585.136C663.238 585.138 662.052 584.908 660.896 584.446C659.726 583.956 658.616 583.289 657.568 582.443C656.548 581.583 655.594 580.649 654.706 579.642C653.803 578.608 652.976 577.549 652.225 576.466C651.485 575.34 650.848 574.3 650.312 573.346C649.854 572.529 649.351 571.538 648.806 570.375C648.288 569.197 647.801 567.947 647.346 566.625C646.919 565.289 646.58 563.92 646.331 562.519C646.083 561.117 645.998 559.785 646.077 558.522C646.184 557.244 646.499 556.082 647.023 555.035C647.574 553.973 648.408 553.129 649.525 552.502C650.397 552.012 651.273 551.754 652.153 551.726C653.061 551.682 653.914 551.83 654.714 552.17C655.526 552.467 656.268 552.928 656.942 553.553C657.643 554.163 658.222 554.877 658.681 555.695C659.278 556.757 659.683 558.053 659.896 559.582C660.109 561.111 660.149 562.683 660.016 564.298C659.911 565.898 659.635 567.451 659.19 568.955C658.756 570.417 658.2 571.661 657.521 572.687C657.851 573.147 658.366 573.808 659.064 574.67C659.748 575.504 660.486 576.309 661.278 577.082C662.098 577.84 662.89 578.453 663.654 578.92C664.445 579.372 665.113 579.445 665.658 579.139C665.931 578.986 666.117 578.774 666.216 578.504C666.342 578.218 666.41 577.893 666.421 577.529C666.431 577.164 666.399 576.788 666.325 576.4C666.277 575.996 666.224 575.614 666.165 575.253L666.089 574.543C666.098 574.431 666.094 574.361 666.079 574.334C666.091 574.291 666.095 574.235 666.092 574.165C666.084 573.704 666.077 573.278 666.073 572.886C666.095 572.479 666.209 572.075 666.413 571.674L666.373 571.697C666.42 571.526 666.499 571.411 666.608 571.35C666.729 571.246 666.844 571.163 666.953 571.102C667.252 570.934 667.633 570.846 668.094 570.838C668.556 570.83 669.02 570.891 669.488 571.023C669.941 571.127 670.362 571.303 670.752 571.55C671.126 571.77 671.405 572.043 671.589 572.37ZM653.377 558.887C653.224 558.614 653.05 558.336 652.855 558.051C652.659 557.767 652.446 557.546 652.214 557.389C652.093 558.067 652.066 558.816 652.133 559.639C652.212 560.418 652.355 561.216 652.562 562.032C652.754 562.82 652.98 563.607 653.242 564.392C653.531 565.161 653.816 565.861 654.098 566.491C654.332 565.249 654.424 563.943 654.372 562.575C654.305 561.179 653.974 559.949 653.377 558.887ZM694.14 570.41C693.731 570.64 693.251 570.837 692.699 571.004C692.175 571.155 691.626 571.23 691.052 571.229C690.506 571.214 689.983 571.113 689.484 570.927C688.998 570.698 688.609 570.325 688.319 569.807C687.89 569.044 687.497 568.279 687.139 567.513C686.792 566.704 686.453 565.909 686.122 565.127L686.145 565.168L684.853 562.292C684.384 561.265 683.848 560.15 683.245 558.948C682.642 557.745 682.017 556.537 681.371 555.323C680.738 554.066 680.106 552.844 679.475 551.657C678.845 550.47 678.254 549.385 677.704 548.404C677.382 547.832 677.048 547.268 676.699 546.711C676.363 546.111 676.026 545.512 675.69 544.912C675.372 544.41 675.037 543.845 674.685 543.218C674.318 542.564 673.982 541.965 673.676 541.42C673.354 540.847 673.163 540.346 673.1 539.915C673.049 539.442 673.378 539.006 674.087 538.609C674.714 538.257 675.459 538.053 676.324 537.998C677.216 537.927 677.967 538.115 678.576 538.562L678.535 538.585C678.839 538.808 679.21 539.245 679.647 539.896C680.096 540.504 680.479 541.059 680.797 541.562C680.863 540.593 680.96 539.553 681.089 538.441C681.244 537.315 681.48 536.233 681.794 535.197C682.093 534.133 682.501 533.169 683.02 532.305C683.538 531.441 684.233 530.764 685.105 530.274C686.25 529.632 687.282 529.429 688.203 529.664C689.124 529.9 689.965 530.378 690.727 531.097C691.474 531.788 692.136 532.617 692.714 533.583C693.276 534.521 693.779 535.386 694.223 536.176L694.407 536.503C694.59 536.83 694.76 537.165 694.916 537.507C695.085 537.807 695.191 538.124 695.235 538.457C695.291 538.748 695.242 539.045 695.088 539.346C694.962 539.632 694.694 539.889 694.286 540.119C693.85 540.363 693.356 540.569 692.804 540.735C692.237 540.874 691.667 540.944 691.093 540.943C690.547 540.927 690.024 540.826 689.526 540.64C689.012 540.427 688.603 540.083 688.301 539.608C688.179 539.39 688.056 539.171 687.934 538.953C687.811 538.735 687.703 538.51 687.608 538.277C687.531 538.14 687.439 537.977 687.332 537.786C687.237 537.553 687.136 537.341 687.029 537.15C686.646 538.511 686.474 540.024 686.512 541.687C686.576 543.335 686.742 545.034 687.007 546.784C687.3 548.519 687.669 550.229 688.113 551.915C688.542 553.573 688.949 555.065 689.335 556.39L689.404 556.512C689.796 557.403 690.208 558.265 690.64 559.098C691.071 559.93 691.518 560.791 691.98 561.678C692.504 562.674 693.021 563.692 693.532 564.731C694.071 565.754 694.554 566.774 694.98 567.788C695.216 568.337 695.274 568.824 695.155 569.249C695.078 569.687 694.739 570.074 694.14 570.41ZM721.785 544.197C722.244 545.014 722.486 545.989 722.513 547.121C722.566 548.238 722.445 549.363 722.149 550.496C721.839 551.603 721.35 552.647 720.683 553.631C720.044 554.599 719.275 555.335 718.376 555.84C717.095 556.559 715.853 556.933 714.652 556.962C713.434 556.965 712.248 556.735 711.093 556.272C709.922 555.783 708.813 555.115 707.765 554.27C706.744 553.409 705.79 552.475 704.903 551.468C704 550.434 703.172 549.376 702.421 548.292C701.682 547.166 701.044 546.126 700.509 545.173C700.05 544.355 699.548 543.365 699.003 542.202C698.484 541.023 697.998 539.773 697.543 538.452C697.115 537.115 696.777 535.746 696.528 534.345C696.279 532.944 696.194 531.612 696.274 530.349C696.381 529.07 696.696 527.908 697.219 526.861C697.77 525.8 698.604 524.955 699.721 524.328C700.593 523.839 701.47 523.58 702.35 523.552C703.257 523.508 704.111 523.656 704.91 523.996C705.722 524.293 706.465 524.754 707.138 525.379C707.839 525.99 708.419 526.703 708.878 527.521C709.474 528.584 709.879 529.88 710.092 531.408C710.305 532.937 710.345 534.509 710.213 536.125C710.107 537.725 709.832 539.277 709.386 540.781C708.952 542.243 708.396 543.487 707.718 544.513C708.048 544.973 708.562 545.634 709.261 546.496C709.944 547.331 710.682 548.135 711.475 548.908C712.295 549.667 713.087 550.279 713.85 550.747C714.642 551.198 715.31 551.271 715.855 550.965C716.127 550.813 716.313 550.601 716.412 550.33C716.538 550.044 716.607 549.719 716.617 549.355C716.628 548.991 716.596 548.614 716.521 548.226C716.474 547.823 716.421 547.441 716.361 547.08L716.285 546.37C716.294 546.257 716.291 546.188 716.275 546.16C716.287 546.118 716.292 546.062 716.288 545.992C716.28 545.53 716.274 545.104 716.269 544.712C716.292 544.306 716.405 543.901 716.61 543.5L716.569 543.523C716.617 543.353 716.695 543.237 716.804 543.176C716.925 543.072 717.04 542.99 717.149 542.928C717.449 542.76 717.829 542.672 718.291 542.664C718.752 542.656 719.217 542.718 719.685 542.849C720.138 542.953 720.559 543.129 720.948 543.376C721.323 543.596 721.602 543.87 721.785 544.197ZM703.574 530.713C703.421 530.44 703.247 530.162 703.051 529.877C702.856 529.593 702.642 529.372 702.411 529.215C702.289 529.893 702.262 530.643 702.33 531.465C702.409 532.245 702.552 533.042 702.759 533.858C702.95 534.646 703.177 535.433 703.438 536.218C703.727 536.988 704.012 537.688 704.294 538.318C704.529 537.075 704.62 535.77 704.569 534.401C704.502 533.005 704.17 531.776 703.574 530.713ZM724.904 512.882C725.088 513.209 725.118 513.55 724.995 513.906C724.899 514.246 724.734 514.59 724.499 514.937C724.248 515.257 723.961 515.543 723.637 515.797C723.341 516.035 723.084 516.215 722.866 516.337C722.539 516.521 722.21 516.669 721.88 516.783C721.534 516.87 721.188 516.956 720.843 517.043C720.497 517.129 720.173 517.222 719.87 517.32C719.551 517.391 719.242 517.511 718.942 517.679C718.534 517.909 718.163 518.206 717.831 518.572C717.498 518.937 717.238 519.335 717.048 519.764C716.859 520.192 716.755 520.645 716.736 521.122C716.744 521.583 716.87 522.032 717.115 522.468C717.482 523.122 717.985 523.699 718.625 524.2C719.249 524.674 719.963 525.116 720.766 525.525C721.596 525.919 722.489 526.296 723.443 526.656C724.41 526.974 725.411 527.29 726.448 527.604C727.728 528.032 729.015 528.474 730.31 528.93C731.632 529.37 732.882 529.905 734.059 530.535C735.264 531.149 736.377 531.886 737.397 532.746C738.418 533.607 739.265 534.637 739.938 535.836C740.519 536.871 740.862 537.897 740.966 538.914C741.098 539.915 741.011 540.877 740.706 541.801C740.427 542.71 739.936 543.559 739.233 544.348C738.571 545.15 737.737 545.833 736.728 546.399C736.456 546.552 736.003 546.735 735.369 546.947C734.763 547.144 734.052 547.346 733.237 547.552C732.406 547.732 731.54 547.913 730.639 548.096C729.766 548.264 728.939 548.388 728.16 548.467C727.392 548.504 726.727 548.501 726.165 548.457C725.616 548.372 725.272 548.206 725.134 547.961C724.951 547.634 724.917 547.223 725.033 546.728C725.134 546.205 725.313 545.693 725.568 545.191C725.809 544.662 726.094 544.18 726.423 543.744C726.779 543.293 727.107 542.984 727.406 542.816C727.815 542.586 728.291 542.444 728.834 542.39C729.405 542.321 729.99 542.279 730.591 542.264C731.262 542.246 731.917 542.201 732.557 542.128C733.225 542.04 733.845 541.836 734.417 541.515C734.853 541.27 735.014 540.982 734.9 540.652C734.814 540.306 734.664 539.943 734.449 539.561C733.914 538.608 733.246 537.8 732.445 537.139C731.628 536.45 730.732 535.843 729.755 535.316C728.778 534.789 727.735 534.335 726.626 533.954C725.501 533.546 724.384 533.152 723.274 532.771C722.137 532.406 721.014 532.033 719.905 531.652C718.822 531.257 717.801 530.809 716.839 530.309C715.863 529.782 714.974 529.188 714.173 528.527C713.399 527.85 712.744 527.035 712.209 526.081C711.551 524.91 711.221 523.715 711.219 522.498C711.201 521.254 711.41 520.061 711.845 518.921C712.308 517.766 712.957 516.72 713.794 515.785C714.642 514.807 715.598 514.019 716.661 513.423C717.015 513.224 717.606 513 718.434 512.751C719.246 512.474 720.083 512.273 720.944 512.148C721.806 512.023 722.616 511.998 723.375 512.073C724.134 512.149 724.644 512.418 724.904 512.882ZM747.467 504.142C747.62 504.414 747.753 504.716 747.867 505.046C747.981 505.377 748.079 505.68 748.162 505.956C748.276 506.286 748.382 506.603 748.48 506.906C748.564 507.182 748.674 507.442 748.812 507.687C750.234 510.222 751.705 512.747 753.225 515.262C754.756 517.736 756.459 520.131 758.332 522.448C759.019 523.352 759.718 524.214 760.429 525.034C761.14 525.853 761.885 526.671 762.666 527.487L762.885 527.686L762.84 527.605C763.028 527.749 763.211 527.916 763.388 528.103C763.577 528.248 763.732 528.429 763.855 528.647C764.023 528.947 764.079 529.238 764.023 529.521C763.993 529.788 763.9 530.037 763.744 530.269C763.587 530.5 763.38 530.706 763.122 530.886C762.893 531.051 762.669 531.195 762.451 531.317C761.551 531.822 760.776 532.132 760.123 532.247C759.483 532.319 758.9 532.27 758.374 532.1C757.833 531.902 757.336 531.59 756.882 531.164C756.455 530.722 756.011 530.219 755.55 529.653L755.015 528.986C754.691 528.666 754.394 528.295 754.122 527.875C753.972 527.672 753.891 527.592 753.879 527.635C753.879 527.635 753.805 527.533 753.655 527.33C753.656 528.226 753.619 529.214 753.545 530.295C753.483 531.333 753.316 532.377 753.044 533.425C752.785 534.431 752.417 535.372 751.941 536.248C751.45 537.097 750.782 537.759 749.937 538.233C748.765 538.89 747.654 539.049 746.602 538.707C745.578 538.35 744.633 537.752 743.767 536.912C742.886 536.045 742.112 535.081 741.446 534.022C740.764 532.935 740.194 531.983 739.735 531.165C737.992 528.059 736.359 524.926 734.836 521.767C733.341 518.592 731.852 515.397 730.369 512.179C730.323 512.098 730.262 511.989 730.186 511.852C730.136 511.701 730.089 511.584 730.043 511.503C729.856 511.106 729.684 510.736 729.528 510.394C729.372 510.052 729.264 509.7 729.205 509.339L729.228 509.38C729.092 508.883 729.066 508.485 729.15 508.187C729.261 507.874 729.534 507.595 729.97 507.351C730.379 507.121 730.834 506.973 731.334 506.908C731.819 506.814 732.302 506.812 732.782 506.901C733.247 506.963 733.674 507.117 734.063 507.365C734.48 507.596 734.811 507.93 735.056 508.366C735.178 508.584 735.323 508.843 735.492 509.143C735.66 509.443 735.791 509.709 735.887 509.943C735.994 510.133 736.118 510.386 736.259 510.701C736.412 510.974 736.542 511.206 736.649 511.396C737.899 514.135 739.196 516.829 740.54 519.479C741.869 522.102 743.275 524.735 744.759 527.378C745.172 528.114 745.585 528.85 745.998 529.586C746.438 530.306 746.933 530.996 747.482 531.655C747.739 530.006 747.697 528.112 747.357 525.974C747.002 523.808 746.484 521.608 745.803 519.374C745.134 517.098 744.386 514.902 743.557 512.787C742.74 510.629 741.972 508.749 741.251 507.147C741.206 507.065 741.152 506.969 741.091 506.86C741.057 506.736 741.017 506.633 740.971 506.551C740.83 506.236 740.697 505.935 740.571 505.647C740.445 505.359 740.395 505.047 740.421 504.71C740.284 504.465 740.152 504.198 740.026 503.91C739.901 503.622 739.831 503.339 739.818 503.06C739.789 502.753 739.832 502.478 739.946 502.235C740.088 501.977 740.349 501.74 740.731 501.526C741.821 500.914 742.87 500.773 743.88 501.103C744.873 501.405 745.688 502.058 746.324 503.063C746.582 503.205 746.8 503.369 746.977 503.557C747.166 503.702 747.329 503.897 747.467 504.142ZM773.94 524.492C774.292 525.119 774.33 525.635 774.056 526.04C773.809 526.429 773.426 526.769 772.908 527.06C772.445 527.32 771.959 527.539 771.45 527.717C770.983 527.908 770.492 528.022 769.976 528.061C769.487 528.084 769.001 528.016 768.518 527.858C768.062 527.684 767.634 527.368 767.235 526.912C765.935 525.491 764.823 524.019 763.896 522.496C762.955 520.946 762.017 519.34 761.084 517.678L758.262 512.65C756.978 510.361 755.742 507.936 754.557 505.377C753.355 502.79 752.222 500.291 751.155 497.879C751.109 497.797 751.069 497.694 751.035 497.57C751.001 497.446 750.969 497.356 750.938 497.302C750.797 496.987 750.655 496.637 750.51 496.252C750.366 495.867 750.272 495.508 750.228 495.174C750.196 494.798 750.235 494.453 750.346 494.14C750.484 493.812 750.744 493.541 751.126 493.326C751.562 493.082 752.024 492.948 752.513 492.924C753.013 492.858 753.498 492.891 753.966 493.023C754.418 493.127 754.841 493.338 755.234 493.655C755.654 493.956 755.987 494.325 756.231 494.761C756.537 495.306 756.831 495.894 757.113 496.524C757.407 497.111 757.68 497.693 757.931 498.269C758.091 498.681 758.211 498.99 758.29 499.196C758.397 499.387 758.56 499.708 758.777 500.159C758.783 499.403 758.83 498.624 758.917 497.823C759.017 496.978 759.203 496.193 759.476 495.466C759.734 494.712 760.086 494.031 760.533 493.422C760.991 492.77 761.575 492.246 762.283 491.848C762.992 491.451 763.646 491.244 764.247 491.23C764.833 491.188 765.377 491.294 765.879 491.55C766.365 491.779 766.816 492.135 767.231 492.619C767.646 493.103 768.022 493.644 768.358 494.244C768.572 494.625 768.765 495.001 768.937 495.371C769.136 495.725 769.321 496.087 769.492 496.456C769.664 496.826 769.836 497.195 770.007 497.565C770.191 497.892 770.389 498.246 770.604 498.628C771.001 499.336 771.397 500.01 771.792 500.649C772.198 501.245 772.627 501.882 773.079 502.56C772.847 501.508 772.601 500.302 772.34 498.943C772.106 497.569 771.912 496.138 771.756 494.648C771.628 493.143 771.557 491.642 771.541 490.146C771.537 488.607 771.651 487.182 771.882 485.869C772.14 484.542 772.553 483.361 773.119 482.326C773.67 481.265 774.422 480.466 775.376 479.931C776.874 479.09 778.168 478.937 779.257 479.472C780.374 479.992 781.314 480.934 782.079 482.296C782.293 482.678 782.509 483.094 782.726 483.546C782.928 483.97 783.109 484.388 783.269 484.8C783.959 486.348 784.698 487.922 785.489 489.521C786.306 491.105 787.127 492.632 787.953 494.104L788.389 494.881C789.46 496.788 790.551 498.541 791.663 500.139C792.775 501.736 794.104 503.338 795.65 504.943L796.596 505.863C796.919 506.183 797.279 506.537 797.675 506.924C798.099 507.295 798.487 507.668 798.841 508.043C799.195 508.418 799.52 508.773 799.815 509.109C800.111 509.444 800.32 509.721 800.443 509.939C800.764 510.512 800.774 511.008 800.472 511.428C800.17 511.848 799.801 512.181 799.365 512.425C799.093 512.578 798.772 512.741 798.402 512.912C798.048 513.111 797.671 513.269 797.271 513.386C796.913 513.515 796.533 513.603 796.129 513.651C795.753 513.683 795.408 513.643 795.095 513.532L795.118 513.573C794.735 513.465 794.39 513.265 794.082 512.972C793.774 512.679 793.493 512.371 793.24 512.047L792.952 511.725C791.744 510.467 790.676 509.329 789.745 508.31C788.842 507.276 787.98 506.219 787.159 505.139C786.338 504.059 785.535 502.915 784.749 501.708C783.991 500.485 783.153 499.056 782.236 497.421C781.456 496.031 780.715 494.583 780.013 493.078C779.339 491.557 778.68 490.063 778.036 488.597C777.959 488.461 777.875 488.311 777.784 488.147C777.704 487.941 777.639 487.763 777.59 487.611C777.457 489.8 777.538 492.084 777.834 494.462C778.141 496.798 778.548 499.15 779.053 501.518C779.585 503.872 780.193 506.2 780.877 508.504C781.573 510.765 782.256 512.908 782.927 514.933C782.942 514.96 783.088 515.093 783.365 515.332C783.655 515.528 783.961 515.786 784.284 516.106C784.619 516.384 784.94 516.669 785.248 516.962C785.541 517.228 785.718 517.416 785.779 517.525C786.131 518.151 786.14 518.648 785.808 519.013C785.476 519.379 785.092 519.684 784.656 519.929C784.329 520.112 783.967 520.298 783.57 520.485C783.173 520.671 782.753 520.817 782.311 520.923C781.895 521.012 781.471 521.054 781.036 521.047C780.645 521.051 780.262 520.944 779.888 520.724C779.571 520.543 779.021 520.01 778.237 519.124C777.438 518.211 776.533 517.141 775.523 515.917C774.498 514.664 773.433 513.309 772.328 511.851C771.222 510.393 770.177 509.009 769.191 507.699C768.205 506.389 767.359 505.233 766.653 504.231C765.948 503.23 765.488 502.538 765.274 502.157L764.93 501.544C765.113 503.913 765.523 506.335 766.159 508.809C766.795 511.283 767.544 513.64 768.407 515.879L768.656 516.707C768.724 516.955 768.806 517.196 768.901 517.43C768.981 517.636 769.074 517.834 769.181 518.025C769.349 518.325 769.583 518.677 769.882 519.083C770.209 519.473 770.572 519.896 770.971 520.353C771.505 520.985 772.027 521.659 772.537 522.377C773.059 523.051 773.527 523.756 773.94 524.492ZM814.657 492.071C815.116 492.888 815.358 493.863 815.384 494.995C815.438 496.112 815.317 497.237 815.021 498.371C814.71 499.477 814.221 500.522 813.555 501.505C812.916 502.473 812.146 503.209 811.247 503.714C809.966 504.433 808.725 504.807 807.523 504.837C806.306 504.839 805.12 504.609 803.964 504.146C802.794 503.657 801.684 502.989 800.637 502.144C799.616 501.283 798.662 500.349 797.774 499.343C796.871 498.308 796.044 497.25 795.293 496.166C794.553 495.04 793.916 494.001 793.38 493.047C792.922 492.229 792.42 491.239 791.874 490.076C791.356 488.897 790.87 487.647 790.415 486.326C789.987 484.989 789.648 483.62 789.4 482.219C789.151 480.818 789.066 479.486 789.145 478.223C789.252 476.944 789.567 475.782 790.091 474.736C790.642 473.674 791.476 472.829 792.593 472.202C793.465 471.713 794.341 471.454 795.221 471.426C796.129 471.383 796.982 471.531 797.782 471.87C798.594 472.167 799.336 472.628 800.01 473.254C800.711 473.864 801.29 474.577 801.749 475.395C802.346 476.458 802.751 477.754 802.964 479.282C803.177 480.811 803.217 482.383 803.084 483.999C802.979 485.599 802.704 487.151 802.258 488.656C801.824 490.117 801.268 491.361 800.589 492.387C800.919 492.847 801.434 493.508 802.132 494.37C802.816 495.205 803.554 496.009 804.347 496.783C805.166 497.541 805.958 498.154 806.722 498.621C807.513 499.073 808.181 499.145 808.726 498.84C808.999 498.687 809.185 498.475 809.284 498.204C809.41 497.918 809.478 497.593 809.489 497.229C809.499 496.865 809.467 496.489 809.393 496.1C809.346 495.697 809.292 495.315 809.233 494.954L809.157 494.244C809.166 494.131 809.162 494.062 809.147 494.034C809.159 493.992 809.163 493.936 809.16 493.866C809.152 493.405 809.145 492.978 809.141 492.587C809.163 492.18 809.277 491.776 809.482 491.374L809.441 491.397C809.488 491.227 809.567 491.111 809.676 491.05C809.797 490.946 809.912 490.864 810.021 490.803C810.321 490.634 810.701 490.546 811.162 490.538C811.624 490.53 812.088 490.592 812.556 490.723C813.009 490.827 813.43 491.003 813.82 491.25C814.194 491.47 814.473 491.744 814.657 492.071ZM796.445 478.587C796.292 478.314 796.118 478.036 795.923 477.751C795.727 477.467 795.514 477.246 795.282 477.09C795.161 477.767 795.134 478.517 795.201 479.339C795.28 480.119 795.424 480.916 795.63 481.732C795.822 482.52 796.049 483.307 796.31 484.092C796.599 484.862 796.884 485.562 797.166 486.192C797.4 484.949 797.492 483.644 797.44 482.275C797.374 480.879 797.042 479.65 796.445 478.587ZM823.815 482.147C824.488 483.346 824.279 484.251 823.189 484.863C822.862 485.046 822.431 485.235 821.894 485.428C821.385 485.607 820.839 485.752 820.257 485.864C819.675 485.975 819.118 486.037 818.587 486.048C818.068 486.017 817.642 485.898 817.311 485.69C816.878 485.431 816.548 485.097 816.318 484.688C816.074 484.252 815.821 483.802 815.561 483.339C812.002 477.381 808.411 471.494 804.789 465.679C801.179 459.822 797.546 453.923 793.89 447.984C793.117 446.734 792.343 445.484 791.57 444.233C790.781 442.956 790.02 441.663 789.286 440.355C788.934 439.728 788.742 439.227 788.71 438.851C788.663 438.447 788.993 438.047 789.702 437.649C790.056 437.45 790.468 437.29 790.938 437.17C791.393 437.022 791.851 436.944 792.312 436.936C792.785 436.886 793.235 436.92 793.66 437.04C794.098 437.117 794.484 437.294 794.819 437.572C795.023 437.744 795.524 438.413 796.321 439.578C797.146 440.728 798.169 442.232 799.391 444.09C800.598 445.921 801.95 448.011 803.448 450.36C804.945 452.709 806.489 455.14 808.078 457.652C809.679 460.122 811.267 462.599 812.841 465.084C814.4 467.542 815.845 469.831 817.178 471.95C818.538 474.053 819.717 475.9 820.717 477.489C821.744 479.063 822.504 480.194 822.999 480.884C823.121 481.102 823.257 481.313 823.407 481.515C823.557 481.718 823.693 481.929 823.815 482.147ZM821.201 492.429C821.048 492.157 821.029 491.899 821.143 491.656C821.242 491.385 821.412 491.146 821.654 490.939C821.908 490.689 822.171 490.487 822.444 490.334C822.744 490.166 823.002 490.021 823.22 489.898C823.493 489.745 823.814 489.583 824.184 489.411C824.565 489.197 824.95 489.053 825.338 488.978C825.711 488.877 826.068 488.874 826.408 488.969C826.76 489.022 827.036 489.226 827.235 489.58C827.311 489.717 827.466 490.024 827.699 490.502C827.943 490.939 828.197 491.423 828.461 491.956C828.751 492.474 828.992 492.966 829.182 493.433C829.384 493.857 829.479 494.09 829.467 494.133C829.472 494.524 829.305 494.833 828.966 495.059C828.642 495.312 828.317 495.531 827.99 495.714C827.172 496.173 826.536 496.476 826.082 496.624C825.627 496.772 825.235 496.777 824.907 496.638C824.606 496.485 824.292 496.213 823.966 495.823C823.666 495.417 823.263 494.891 822.757 494.244C822.519 493.947 822.253 493.666 821.961 493.4C821.668 493.135 821.415 492.811 821.201 492.429Z" fill="#424242"/>
<defs>
<linearGradient id="paint0_linear_15_378" x1="137.828" y1="252" x2="137.828" y2="709" gradientUnits="userSpaceOnUse">
<stop stop-color="white"/>
<stop offset="1" stop-color="#828282"/>
</linearGradient>
<linearGradient id="paint1_linear_15_378" x1="251.992" y1="252" x2="251.992" y2="709" gradientUnits="userSpaceOnUse">
<stop stop-color="white"/>
<stop offset="1" stop-color="#828282"/>
</linearGradient>
<linearGradient id="paint2_linear_15_378" x1="469.914" y1="252" x2="469.914" y2="709" gradientUnits="userSpaceOnUse">
<stop stop-color="white"/>
<stop offset="1" stop-color="#828282"/>
</linearGradient>
<linearGradient id="paint3_linear_15_378" x1="102" y1="322.808" x2="857" y2="322.808" gradientUnits="userSpaceOnUse">
<stop stop-color="#B6B6B6"/>
<stop offset="1" stop-color="#505050" stop-opacity="0.76"/>
</linearGradient>
<linearGradient id="paint4_linear_15_378" x1="102" y1="436.382" x2="857" y2="436.382" gradientUnits="userSpaceOnUse">
<stop stop-color="#B6B6B6"/>
<stop offset="1" stop-color="#505050" stop-opacity="0.76"/>
</linearGradient>
<linearGradient id="paint5_linear_15_378" x1="102" y1="547.252" x2="857" y2="547.252" gradientUnits="userSpaceOnUse">
<stop stop-color="#B6B6B6"/>
<stop offset="1" stop-color="#505050" stop-opacity="0.76"/>
</linearGradient>
<linearGradient id="paint6_linear_15_378" x1="102" y1="666.233" x2="857" y2="666.233" gradientUnits="userSpaceOnUse">
<stop stop-color="#B6B6B6"/>
<stop offset="1" stop-color="#505050" stop-opacity="0.76"/>
</linearGradient>
<linearGradient id="paint7_linear_15_378" x1="584.078" y1="252" x2="584.078" y2="709" gradientUnits="userSpaceOnUse">
<stop stop-color="white"/>
<stop offset="1" stop-color="#828282"/>
</linearGradient>
<linearGradient id="paint8_linear_15_378" x1="700.828" y1="252" x2="700.828" y2="709" gradientUnits="userSpaceOnUse">
<stop stop-color="white"/>
<stop offset="1" stop-color="#828282"/>
</linearGradient>
<linearGradient id="paint9_linear_15_378" x1="802.008" y1="252" x2="802.008" y2="709" gradientUnits="userSpaceOnUse">
<stop stop-color="white"/>
<stop offset="1" stop-color="#828282"/>
</linearGradient>
<linearGradient id="paint10_linear_15_378" x1="469" y1="436" x2="469" y2="861.5" gradientUnits="userSpaceOnUse">
<stop stop-color="#2A66EB"/>
<stop offset="1" stop-color="white"/>
</linearGradient>
</defs>
</svg>
